<svg width="123" height="133" viewBox="0 0 123 133" fill="none" xmlns="http://www.w3.org/2000/svg">
<path d="M-101.547 70.9881C-101.155 75.2011 -99.7796 79.0881 -97.6396 82.4891C-93.3506 89.3671 -85.9766 94.2191 -77.4646 95.5471C-75.0386 104.373 -66.1836 110.477 -56.1626 109.771C-47.3076 122.514 -33.1036 130.786 -17.0746 130.786C-3.01363 130.786 9.65338 124.415 18.5174 114.251C24.7074 117.871 31.8714 118.722 38.2144 115.913C42.3794 114.069 45.6084 110.898 47.7574 106.953C51.9224 111.691 57.5674 114.614 63.7864 114.614C74.1504 114.614 82.9294 106.523 85.9194 95.3471C88.1544 95.3851 90.3424 95.3181 92.4434 95.1461C100.773 94.4961 109.255 91.2681 114.948 84.4661C115.416 83.9021 115.855 83.3481 116.257 82.7751C116.266 82.7751 116.266 82.7751 116.266 82.7751C127.089 67.7301 116.639 50.2971 101.823 44.5941C94.5924 41.8141 85.3074 40.5061 76.7484 41.7471C73.9974 36.4361 69.5264 32.3571 63.7384 30.5131C60.2234 29.3951 56.5744 29.2141 52.9924 29.8351C50.8044 25.2211 45.9234 22.2411 40.5554 22.7471C39.8964 22.8141 39.2564 22.9381 38.6354 23.0911C32.6844 8.04608 16.8464 -1.01893 0.760376 2.35307C-12.5556 5.14207 -22.2996 15.6791 -24.9256 28.4021C-29.5586 25.7751 -35.1276 24.4851 -40.9636 25.0401C-51.6046 26.0431 -60.1926 32.8541 -63.4406 41.7661C-67.0516 40.7151 -70.9396 40.3051 -74.9516 40.6871C-91.0776 42.2071 -102.99 55.7711 -101.547 70.9881Z" fill="white"/>
<path d="M-97.6396 82.4904C-93.3506 89.3684 -85.9767 94.2204 -77.4647 95.5484C-75.0387 104.374 -66.1837 110.478 -56.1627 109.772C-47.3077 122.515 -33.1037 130.787 -17.0747 130.787C-3.01366 130.787 9.65336 124.416 18.5174 114.252C24.7074 117.872 31.8714 118.723 38.2144 115.914C42.3793 114.07 45.6084 110.899 47.7574 106.954C51.9223 111.692 57.5674 114.615 63.7863 114.615C74.1503 114.615 82.9294 106.524 85.9194 95.3484C88.1544 95.3864 90.3424 95.3194 92.4434 95.1474C100.773 94.4974 109.255 91.2694 114.948 84.4674C115.416 83.9034 115.855 83.3494 116.257 82.7764C115.732 82.8624 115.206 82.9384 114.671 82.9774C106.141 83.6744 97.4774 78.1344 94.5254 70.1004C91.3344 76.8734 80.2063 77.6564 76.1083 71.3994C79.7193 70.7694 82.8333 67.8934 83.7503 64.3494C78.3053 68.8204 69.4603 68.3324 64.5313 63.3084C66.0883 67.0914 69.1834 70.2054 72.9564 71.7814C66.0314 82.0984 49.3044 83.7604 40.4784 75.0104C41.6054 78.4874 39.5803 82.6714 36.1513 83.9414C32.7223 85.2114 28.4613 83.3494 27.0574 79.9774C22.2904 87.0084 13.1583 90.7814 4.82835 89.1664C-3.51065 87.5524 -10.5697 80.6454 -12.3657 72.3544C-5.71765 72.0294 0.67334 68.2084 4.11234 62.5054C-6.26166 67.8834 -19.6447 66.8714 -29.0917 59.9834C-27.4967 64.8454 -23.7516 68.9534 -19.0516 70.9874C-22.6246 80.0434 -36.7046 82.4214 -43.0476 75.0284C-46.2186 79.6904 -52.4477 82.0204 -57.9117 80.6074C-63.3657 79.1844 -67.6646 74.1114 -68.1706 68.4954C-71.3996 72.0874 -77.2457 72.9654 -81.3817 70.4724C-82.3077 75.7264 -86.3196 80.3114 -91.3926 81.9444C-93.3986 82.5854 -95.5476 82.7574 -97.6396 82.4904Z" fill="#C4E3F2"/>
<path d="M117.36 55.152C115.476 52.382 113.11 49.977 110.483 47.934C107.838 45.917 104.889 44.269 101.763 43.134C98.6741 41.987 95.4811 41.186 92.2501 40.656C89.0181 40.127 85.7391 39.873 82.4571 39.944C80.8161 39.968 79.1741 40.085 77.5401 40.288C77.4421 40.28 77.5361 40.334 77.4721 40.2519L77.4141 40.145L77.2141 39.809C76.7831 39.086 76.3251 38.3769 75.8201 37.6999C73.8251 34.9799 71.2551 32.639 68.2701 31.0059C65.2941 29.3629 61.9561 28.394 58.5721 28.184C57.7271 28.131 56.8791 28.123 56.0351 28.158C55.6121 28.173 55.1911 28.205 54.7711 28.242L54.1411 28.307L53.8271 28.348L53.7481 28.358C53.7411 28.359 53.7451 28.358 53.7461 28.358L53.7371 28.34L53.3041 27.64C52.8221 26.898 52.2711 26.2 51.6521 25.568C49.2051 23.015 45.7311 21.444 42.1821 21.359C41.2991 21.317 40.3991 21.383 39.5441 21.559L39.4551 21.5749L39.4491 21.577L39.4401 21.58C39.4331 21.563 39.4141 21.521 39.3601 21.4C38.7331 19.859 37.8901 18.424 37.0731 16.979C35.3071 14.162 33.1541 11.597 30.7031 9.35797C28.2631 7.10297 25.4711 5.23095 22.4751 3.79495C19.4831 2.35395 16.2951 1.30196 13.0091 0.756956C6.43613 -0.266044 -0.435875 0.552977 -6.50587 3.31598C-12.5879 6.03498 -17.8059 10.595 -21.3789 16.197C-23.1709 18.995 -24.5639 22.047 -25.5059 25.232C-25.6389 25.605 -25.7459 26.072 -25.8229 26.391L-25.8269 26.41L-26.0409 26.304C-27.5579 25.583 -29.1409 25.007 -30.7599 24.566C-37.2449 22.799 -44.2929 23.408 -50.4069 26.174C-53.4729 27.539 -56.2559 29.513 -58.6549 31.863C-59.8079 33.084 -60.9389 34.341 -61.8539 35.76C-62.3479 36.427 -62.7249 37.171 -63.1569 37.879C-63.1699 37.901 -63.1829 37.923 -63.1939 37.9459L-63.7419 39.046L-64.0199 39.615L-64.2349 40.141L-64.2399 40.155L-64.3399 40.13C-65.1499 39.931 -65.9679 39.763 -66.7909 39.626C-68.4369 39.356 -70.1049 39.212 -71.7719 39.201C-73.4409 39.183 -75.1069 39.307 -76.7509 39.582L-77.9879 39.76C-78.3999 39.823 -78.8009 39.945 -79.2069 40.035C-80.0119 40.249 -80.8399 40.384 -81.6259 40.668C-88.0119 42.624 -93.7249 46.688 -97.6679 52.106C-101.369 57.258 -103.284 63.679 -102.966 70.034C-102.936 70.628 -102.847 71.604 -102.769 72.192C-102.282 75.857 -101.046 79.4269 -99.1539 82.601C-97.0819 86.076 -94.2769 89.117 -90.9909 91.464C-87.7119 93.827 -83.9529 95.495 -80.0299 96.415C-79.5409 96.541 -79.0479 96.641 -78.5509 96.725C-78.5169 96.731 -78.5039 96.733 -78.4979 96.734L-78.4499 96.881L-78.3289 97.25C-78.2529 97.498 -78.1669 97.742 -78.0569 97.977C-77.8489 98.451 -77.6529 98.932 -77.4309 99.399C-76.5119 101.258 -75.2859 102.952 -73.8609 104.439C-71.0159 107.437 -67.2769 109.502 -63.3009 110.49C-61.3149 111.011 -59.2519 111.191 -57.2099 111.154L-56.8279 111.143L-56.1659 112.041C-55.5959 112.852 -54.9529 113.605 -54.3209 114.368C-49.2359 120.435 -42.7319 125.35 -35.4029 128.425C-28.0839 131.526 -19.9729 132.686 -12.0739 131.867C-4.16187 131.049 3.48812 128.124 10.0261 123.639C11.6441 122.493 13.2281 121.296 14.7061 119.974C15.4521 119.321 16.1871 118.656 16.8791 117.947C17.2281 117.596 17.5911 117.258 17.9291 116.896L18.7991 115.948L18.9151 116.012L19.0621 116.093L19.7161 116.413C20.6251 116.866 21.5701 117.248 22.5311 117.586C24.4531 118.261 26.4671 118.708 28.5151 118.861C32.6061 119.195 36.8301 118.334 40.4371 116.317C42.2421 115.313 43.8911 114.034 45.3251 112.558C46.0401 111.818 46.6991 111.026 47.3021 110.197C47.4551 109.991 47.6041 109.783 47.7441 109.568L48.0071 109.176L48.4501 109.614L49.0611 110.165C49.8791 110.895 50.7491 111.572 51.6661 112.182C53.4901 113.417 55.5051 114.385 57.6241 115.039C61.8671 116.338 66.5341 116.252 70.7161 114.774C74.9361 113.355 78.5521 110.57 81.3581 107.239C82.7361 105.542 83.9191 103.702 84.9171 101.77C85.3761 100.785 85.8551 99.808 86.2141 98.783C86.4081 98.276 86.6101 97.772 86.7541 97.249L86.8731 96.86L86.9191 96.708L88.0821 96.702C88.8091 96.692 89.5371 96.672 90.2651 96.638C91.7181 96.575 93.1721 96.456 94.6411 96.271C97.5671 95.898 100.461 95.208 103.239 94.161C106.022 93.134 108.67 91.702 111.084 89.94C113.279 88.288 115.261 86.338 116.921 84.127H116.976L117.367 83.565C118.324 82.188 119.208 80.75 119.917 79.214C120.615 77.675 121.174 76.066 121.552 74.408C122.261 71.086 122.26 67.597 121.466 64.305C120.701 61.007 119.263 57.902 117.36 55.152ZM-78.5009 96.731C-78.5039 96.731 -78.5039 96.731 -78.5009 96.731V96.731ZM119.482 74.594C118.775 77.493 117.398 80.057 115.912 82.2L115.751 82.422C113.89 84.988 111.649 87.178 109.17 88.861C106.712 90.579 104.04 91.802 101.384 92.704C98.7121 93.572 96.0421 94.131 93.4481 94.38C92.1551 94.518 90.8651 94.592 89.6141 94.637C88.9861 94.649 88.3661 94.662 87.7521 94.674C87.4301 94.674 87.1111 94.674 86.7931 94.673L86.2081 94.665C85.7381 94.658 85.3191 94.963 85.1811 95.413L84.7091 96.949C84.5191 97.536 84.2751 98.099 84.0641 98.67C83.5951 99.791 83.0971 100.887 82.4991 101.908C81.3401 103.969 79.9551 105.826 78.3971 107.427C75.2691 110.622 71.4161 112.693 67.5281 113.48C65.5771 113.83 63.6331 113.926 61.7681 113.724C59.9021 113.524 58.1281 113.025 56.4851 112.35C54.8421 111.668 53.3461 110.768 51.9941 109.757C51.3151 109.255 50.6841 108.707 50.0791 108.148C49.9231 108.013 49.7851 107.861 49.6381 107.718L49.3391 107.42C49.2171 107.302 49.1001 107.171 48.9821 107.046C48.6731 106.71 48.3671 106.377 48.0611 106.043C49.3531 105.517 50.6591 104.899 51.8331 104.176C53.1421 103.388 54.2661 102.487 55.0871 101.692C55.5461 101.248 55.5171 100.507 55.0211 100.105L54.6031 99.765C54.1591 99.404 53.5201 99.473 53.1331 99.896C48.9231 104.501 42.2491 106.845 36.0841 105.885C35.5181 105.797 34.9761 106.142 34.8551 106.702L34.7411 107.228C34.6071 107.848 35.0391 108.447 35.6701 108.507C36.8101 108.615 38.2571 108.616 39.7761 108.412C41.8881 108.149 44.1071 107.515 45.9871 106.82V106.815L45.9881 106.819C46.3431 106.701 46.7121 106.564 47.0801 106.427L46.8211 106.878L46.4221 107.543C46.2951 107.759 46.1341 108.023 46.0701 108.106C45.7341 108.608 45.3841 109.101 45.0051 109.567C44.2541 110.506 43.4261 111.378 42.5231 112.157C40.7161 113.711 38.6301 114.915 36.3991 115.667C31.9391 117.218 27.0131 116.904 22.7121 115.228C22.3211 115.084 21.9391 114.918 21.5581 114.75C21.4741 114.434 21.2631 114.157 20.9331 114.032C20.4071 113.834 19.7941 113.591 19.1601 113.266C18.0441 112.706 16.8751 111.887 16.0601 110.957L16.0561 110.959L16.0591 110.956C15.2791 109.996 14.6681 108.706 14.3041 107.512C14.0901 106.833 13.9551 106.188 13.8481 105.636C13.7341 105.048 13.1501 104.677 12.5681 104.814L12.0701 104.931C11.4631 105.074 11.1191 105.705 11.3051 106.3C12.3211 109.543 14.3241 112.43 16.9591 114.548C16.6021 114.932 16.2581 115.328 15.8821 115.69C14.2501 117.351 12.5001 118.867 10.6911 120.276C7.02613 123.03 3.05512 125.282 -1.11787 126.822C-9.43787 129.981 -18.3989 130.462 -26.4959 128.667C-34.6209 126.894 -41.8619 122.899 -47.5529 117.753C-48.2669 117.111 -48.9359 116.427 -49.6239 115.773C-50.2869 115.093 -50.9139 114.384 -51.5559 113.698C-52.1709 112.988 -52.7519 112.254 -53.3459 111.54C-53.6409 111.181 -53.8999 110.795 -54.1779 110.426L-55.2289 108.994L-55.4279 108.724C-55.5029 108.651 -55.5349 108.493 -55.6679 108.539L-56.3369 108.557L-58.1709 108.604C-58.2129 108.605 -58.2539 108.603 -58.2959 108.597C-58.8409 108.528 -59.3919 108.545 -59.9319 108.474L-61.2239 108.291C-62.9279 107.975 -64.5729 107.475 -66.1149 106.787C-67.6419 106.068 -69.0589 105.182 -70.3369 104.158C-71.6039 103.117 -72.6939 101.915 -73.6299 100.636C-74.5639 99.35 -75.2519 97.935 -75.8009 96.504C-75.9799 95.951 -76.1589 95.4 -76.3369 94.852L-76.4299 94.565L-76.4769 94.422C-76.5129 94.398 -76.5719 94.4 -76.6179 94.387L-77.2089 94.278L-78.2039 94.094C-78.9739 93.968 -79.7209 93.757 -80.4649 93.57C-86.3969 91.929 -91.3649 88.496 -94.6889 84.326C-97.8109 80.475 -99.5299 76.072 -100.091 71.892C-100.168 71.321 -100.254 70.4009 -100.285 69.825C-100.458 66.6229 -99.9989 63.176 -98.7289 59.798C-97.3199 56.07 -94.9939 52.3769 -91.6699 49.3809C-88.3529 46.4109 -84.1929 43.954 -79.4309 42.797L-77.6889 42.375C-77.6569 42.367 -77.6239 42.361 -77.5909 42.356C-76.9959 42.27 -76.3979 42.183 -75.7969 42.096C-74.5669 41.875 -73.3029 41.834 -72.0359 41.813C-70.7669 41.813 -69.4859 41.882 -68.2049 42.049C-67.5639 42.127 -66.9239 42.235 -66.2839 42.358C-65.9639 42.421 -65.6449 42.487 -65.3269 42.562L-64.8179 42.684L-63.8679 42.937L-62.9199 43.192C-62.8489 43.196 -62.7429 43.273 -62.7019 43.217L-62.6089 42.988L-62.4229 42.53L-61.7729 40.929C-61.5279 40.322 -61.2039 39.748 -60.9229 39.151C-60.2729 38.002 -59.5699 36.867 -58.7289 35.818C-57.0689 33.708 -55.0439 31.82 -52.7189 30.307C-48.0689 27.297 -42.2799 25.709 -36.4429 26.11C-34.2279 26.26 -32.0119 26.688 -29.8739 27.402C-33.3109 27.817 -36.5939 29.2979 -39.1499 31.6439C-39.6089 32.066 -39.6269 32.785 -39.1729 33.212L-38.7679 33.593C-38.3539 33.982 -37.7029 33.981 -37.3019 33.578C-36.5059 32.778 -35.4169 31.793 -34.0069 30.991C-32.1539 29.9 -29.7669 29.183 -27.6309 29.219L-27.6289 29.215V29.219C-26.6949 29.246 -25.7209 29.426 -24.7689 29.71L-24.4999 29.851L-24.2679 29.972C-24.2219 30.009 -24.1919 30.009 -24.1919 29.944L-24.1809 29.898C-23.1659 30.253 -22.1909 30.726 -21.3409 31.281C-19.9719 32.146 -18.9299 33.178 -18.1719 34.013C-17.7879 34.436 -17.1399 34.47 -16.7059 34.099L-16.2829 33.736C-15.8099 33.33 -15.7939 32.611 -16.2339 32.168C-18.2879 30.101 -20.8869 28.625 -23.6879 27.86L-23.4469 26.863C-23.0619 25.397 -22.5829 23.947 -21.9929 22.535C-19.6599 16.881 -15.6589 11.783 -10.4569 8.20495C-7.86286 6.41395 -4.97988 5.00295 -1.93088 4.05395C1.11813 3.09795 4.33213 2.63596 7.55513 2.60296C14.0241 2.51796 20.5001 4.66096 25.9081 8.35596C28.6261 10.2 31.0391 12.5 33.0721 15.096C33.6181 15.717 34.0611 16.416 34.5271 17.097L35.2001 18.084C35.2171 18.108 35.2321 18.134 35.2471 18.159L35.8351 19.199C36.2271 19.926 36.6801 20.623 36.9891 21.393L37.5231 22.577L37.9421 23.507L38.1491 23.968C38.2971 23.973 38.4761 23.918 38.6381 23.896L40.2831 23.598C40.6741 23.501 41.0721 23.521 41.4671 23.486C42.2601 23.481 43.0581 23.517 43.8371 23.673C45.4051 23.942 46.9001 24.572 48.2291 25.447C49.5431 26.341 50.7021 27.485 51.5591 28.829L51.8771 29.335L52.0591 29.68C47.3531 28.652 42.3171 29.531 38.2431 32.084C37.7361 32.402 37.6231 33.096 37.9721 33.582L38.3071 34.049C38.6401 34.513 39.2801 34.622 39.7541 34.303C40.8601 33.561 42.3811 32.66 44.2441 32.074C46.6101 31.291 49.4821 31.07 51.8871 31.629L51.8901 31.626L51.8891 31.63C54.2901 32.208 56.7591 33.6919 58.5231 35.4499C59.9301 36.8109 60.8881 38.302 61.5441 39.462C61.8251 39.958 62.4491 40.134 62.9531 39.869L63.4521 39.606C64.0001 39.317 64.1781 38.626 63.8541 38.098C61.6871 34.563 58.3231 31.828 54.4431 30.386C55.1151 30.306 55.7791 30.249 56.4511 30.229C59.7301 30.127 63.0241 30.784 65.9881 32.162C68.9621 33.523 71.5721 35.62 73.6091 38.171C74.1241 38.805 74.5911 39.4749 75.0411 40.1569C75.2641 40.5259 75.4461 40.807 75.6991 41.25L76.1231 42.023L76.3351 42.409C76.3521 42.506 76.4501 42.461 76.5251 42.457L76.7591 42.427L78.3241 42.227L79.5561 42.11C80.3781 42.0359 81.2021 41.995 82.0261 41.967C85.3221 41.867 88.6211 42.092 91.8551 42.613C98.3031 43.677 104.657 45.73 109.625 49.768C114.611 53.691 118.396 59.159 119.656 65.187L119.669 65.227L119.665 65.228C120.324 68.342 120.263 71.619 119.482 74.594Z" fill="#5AA3CF"/>
<path d="M73.1783 71.994C72.7783 71.582 72.1323 71.575 71.7033 71.956C67.8383 75.39 62.8203 77.548 57.6693 77.97C52.7953 78.373 47.7953 77.204 43.5643 74.743C44.4583 74.472 45.3483 74.137 46.1733 73.729C47.2773 73.199 48.2403 72.535 48.9623 71.912C49.4553 71.487 49.4393 70.721 48.9403 70.303L48.5373 69.966C48.1233 69.62 47.5073 69.632 47.1283 70.016C43.6473 73.54 37.8033 74.718 33.2293 72.817C32.7313 72.61 32.1583 72.837 31.9113 73.317L31.6703 73.784C31.3723 74.362 31.6533 75.075 32.2723 75.276C33.1793 75.571 34.3243 75.81 35.5483 75.871C37.3573 75.984 39.2913 75.736 40.9403 75.374C40.8003 75.825 40.9543 76.33 41.3823 76.583C42.9803 77.531 45.2793 78.573 47.9073 79.206C51.1003 80.013 54.7113 80.214 57.8283 79.915L57.8303 79.911V79.915C60.9553 79.7 64.4843 78.912 67.5023 77.595C69.9923 76.542 72.0883 75.139 73.5093 73.943C73.9763 73.55 73.9993 72.842 73.5743 72.404L73.1783 71.994Z" fill="#5AA3CF"/>
</svg>
