<svg width="160" height="99" viewBox="0 0 160 99" fill="none" xmlns="http://www.w3.org/2000/svg">
<path d="M185.963 60.787C185.649 68.4789 179.157 74.4523 171.465 74.1287C171.354 74.1287 171.243 74.103 171.125 74.0947C169.38 79.5661 165.458 83.8287 160.029 85.318C155.315 86.6026 150.363 85.5305 146.143 82.7823C144.254 84.9007 141.387 86.0665 138.375 85.6583C135.397 85.25 132.971 83.3947 131.712 80.9104C124.225 92.4142 110.143 97.2218 98.7068 91.6143C96.2391 90.3979 94.0867 88.7981 92.2654 86.8921C86.9217 95.3922 76.6858 99.9103 66.595 97.3579C59.1495 95.4686 53.4573 90.1423 50.7258 83.4544C48.8712 85.1389 46.3098 86.0242 43.6296 85.6583C39.9197 85.1479 37.0695 82.3907 36.2613 78.9537C34.7469 79.0301 33.2069 79.0475 31.6412 78.9794C14.5298 78.265 0.915846 68.6331 0.456933 57.1882C0.4403 56.7883 0.4403 56.3883 0.456933 55.9801C0.942308 44.3228 14.9728 35.3977 32.0751 35.6185C34.4574 29.2965 40.5752 24.693 47.8755 23.9703C48.599 19.2224 52.9893 15.9207 57.763 16.5679C59.6689 16.8318 61.3451 17.6914 62.6387 18.9245C66.3228 13.4107 73.2488 10.1605 80.6603 11.1645C82.8384 11.4624 84.8638 12.1262 86.7184 13.0448C93.3299 5.14875 103.072 0.341118 113.75 0.792472C124.395 1.23475 133.695 6.81657 139.634 15.198C141.48 14.5342 143.454 14.5516 145.199 15.4104C147.607 16.6019 149.01 19.1037 149.164 21.9365C150.304 21.7664 151.478 21.6984 152.67 21.749C164.182 22.2253 173.082 33.2015 172.623 46.2885C178.187 46.5183 182.842 49.9809 184.875 54.7802C185.657 56.6174 186.057 58.6595 185.963 60.787Z" fill="white"/>
<path d="M185.963 60.7871C185.649 68.479 179.157 74.4525 171.465 74.1289C171.355 74.1289 171.243 74.1032 171.125 74.0948C169.381 79.5663 165.458 83.8288 160.029 85.3182C155.315 86.6027 150.363 85.5306 146.143 82.7824C144.254 84.9009 141.387 86.0667 138.375 85.6584C135.397 85.2502 132.971 83.3948 131.713 80.9105C124.225 92.4144 110.143 97.222 98.7071 91.6145C96.2394 90.398 94.0869 88.7982 92.2656 86.8923C86.922 95.3924 76.686 99.9105 66.5952 97.3581C59.1498 95.4687 53.4576 90.1425 50.726 83.4546C48.8714 85.139 46.31 86.0243 43.6298 85.6584C39.92 85.1481 37.0697 82.3908 36.2615 78.9539C34.7472 79.0302 33.2071 79.0476 31.6414 78.9796C14.53 78.2651 0.916067 68.6332 0.457153 57.1884C7.82775 63.3206 22.1524 62.3687 29.2826 57.518C25.3171 55.3905 22.9402 52.3906 22.9689 47.6207C29.6878 55.6287 42.777 57.2481 54.1901 49.5388C49.2547 55.8351 42.3045 62.1729 34.6466 59.8496C38.4586 67.159 42.1926 70.6745 50.1915 72.6909C58.1896 74.6989 78.2646 67.097 78.3243 58.8524C86.6203 61.8388 86.4986 61.6807 92.5991 55.3074C97.0998 63.1951 108.885 65.6968 116.202 60.3274C122.499 67.8833 136.556 66.2237 140.92 57.4091C137.194 57.1453 133.603 55.3073 131.203 52.4488C138.631 55.265 147.251 54.763 154.304 51.1129C153.283 53.9714 150.714 56.2184 147.744 56.8391C151.514 66.5564 164.149 65.2711 168.361 56.8565C174.479 65.7739 179.524 59.486 184.876 54.7804C185.657 56.6176 186.057 58.6596 185.963 60.7871Z" fill="#C4E3F2"/>
<path d="M187 59.9742C186.96 56.8918 185.916 53.5645 183.576 50.7075C182.294 49.1614 180.628 47.7688 178.589 46.7806C177.576 46.2756 176.464 45.8908 175.289 45.6345C174.997 45.5611 174.699 45.5059 174.396 45.4666L173.941 45.3986L173.761 45.3721L173.728 45.3699C173.692 45.3661 173.624 45.3653 173.613 45.36L173.612 45.2852C173.59 44.666 173.633 44.0347 173.555 43.3981C173.492 42.7714 173.429 42.1348 173.365 41.4869C173.362 41.4672 173.36 41.4468 173.356 41.4271C173.131 40.1328 172.896 38.7954 172.47 37.4564C171.658 34.7559 170.368 31.9827 168.425 29.4009C166.482 26.8409 163.896 24.4035 160.541 22.8128C160.133 22.6245 159.722 22.434 159.307 22.2427C159.285 22.2329 159.262 22.2231 159.24 22.2147C158.812 22.0499 158.369 21.9154 157.928 21.7634C157.045 21.4179 156.086 21.2863 155.137 21.0663C155.118 21.0618 155.097 21.058 155.077 21.0542C154.601 20.9733 154.112 20.9499 153.624 20.8947C153.125 20.8478 152.624 20.7858 152.114 20.7926C151.604 20.7873 151.091 20.8032 150.575 20.8388L150.054 20.8834L149.992 20.8924C149.992 20.8924 149.988 20.8834 149.986 20.8667C149.983 20.8508 149.98 20.8312 149.976 20.8078C149.961 20.7306 149.944 20.6429 149.926 20.5447C149.77 19.7448 149.459 18.6024 148.697 17.3988C147.949 16.205 146.682 14.9628 144.959 14.3172C144.107 13.9936 143.158 13.8152 142.195 13.8273C141.713 13.8311 141.229 13.8787 140.751 13.9664C140.631 13.9906 140.511 14.0095 140.393 14.0397L140.089 14.1138L139.974 14.1501L139.942 14.1131C139.905 14.0662 139.869 14.0186 139.831 13.9694C139.641 13.7192 139.442 13.4561 139.233 13.1809C138.791 12.6501 138.312 12.071 137.777 11.4662C136.685 10.2747 135.377 8.96747 133.794 7.66709C130.624 5.09657 126.317 2.49883 120.959 1.09563C118.291 0.391758 115.383 -0.00818923 112.348 0.000127165C109.312 -0.00516509 106.147 0.434091 103.024 1.37687C101.452 1.81688 99.9179 2.44969 98.3861 3.12785C96.8854 3.87104 95.3741 4.65504 93.9588 5.62806C93.2338 6.07488 92.5677 6.61394 91.8691 7.11368C91.8578 7.122 91.8464 7.13106 91.8351 7.14013C91.1751 7.68901 90.4825 8.20842 89.8535 8.80493L88.8858 9.69326L87.9612 10.6338C87.6482 10.9438 87.3465 11.2658 87.06 11.603L86.5428 12.192C86.4393 12.1459 86.3243 12.0952 86.2004 12.04C85.8987 11.9069 85.5683 11.7731 85.2115 11.637C84.4978 11.3671 83.6745 11.1003 82.7506 10.8787C81.8282 10.6519 80.8 10.4879 79.6977 10.4039C79.1556 10.3382 78.5908 10.3571 78.0125 10.3321C77.9958 10.3314 77.9792 10.3314 77.9626 10.3321C77.3835 10.354 76.7854 10.3556 76.1791 10.4236C74.9437 10.5234 73.669 10.7895 72.3777 11.1501C71.0902 11.5319 69.805 12.0702 68.5575 12.7454C67.3055 13.4152 66.1208 14.2718 65.0298 15.2547C64.7509 15.4943 64.484 15.7484 64.233 16.0198C63.9782 16.2874 63.7098 16.5437 63.4792 16.8355L63.1216 17.2627C63.0074 17.3995 62.8555 17.5765 62.8343 17.6173C62.7315 17.7534 62.6287 17.9212 62.5251 18.0331C62.4306 17.9454 62.33 17.8615 62.2242 17.7813C62.0019 17.6165 61.6738 17.389 61.3842 17.2196C60.7809 16.862 60.1307 16.5656 59.4473 16.3487C58.0811 15.9086 56.5804 15.8073 55.1053 16.0273C53.6303 16.2693 52.1931 16.8839 50.9517 17.8055C49.7368 18.7544 48.6881 19.992 48.0553 21.4602C47.7265 22.1497 47.4784 23.1159 47.4369 23.41C47.4285 23.4335 47.4323 23.4751 47.4142 23.4841L47.3484 23.4932L47.2161 23.5113L46.7859 23.5703C46.3943 23.6119 46.011 23.7102 45.6224 23.785C44.074 24.1154 42.5423 24.625 41.0779 25.3228C38.149 26.7109 35.5044 28.8936 33.5946 31.6705C33.1176 32.363 32.6843 33.0926 32.3131 33.8547C32.2194 34.0444 32.1135 34.2297 32.0379 34.4285L31.8376 34.9078C31.1435 34.746 27.1872 35.31 26.246 35.4204C22.8861 35.7992 19.5316 36.5431 16.3237 37.7377C13.1196 38.9262 10.0441 40.5494 7.37151 42.7041C4.71253 44.852 2.4346 47.5639 1.15387 50.7415L1.14328 50.777L1.14026 50.7755C-0.0618376 53.7188 -0.336284 57.0816 0.4258 60.2207C1.1652 63.3756 2.89351 66.2243 5.04745 68.5809C7.21198 70.9473 9.80517 72.8684 12.5662 74.3873C15.3265 75.9152 18.2569 77.0591 21.2244 77.8771C24.1926 78.699 27.2001 79.1873 30.1614 79.4134C31.6425 79.5449 33.113 79.4867 34.5646 79.4936L35.5679 79.4905H35.8136C35.8688 79.4731 35.8695 79.5283 35.8816 79.5684L35.9149 79.6909L35.9489 79.8126L36.0358 80.0575C36.1001 80.2337 36.1561 80.4129 36.237 80.5815C36.3791 80.9277 36.5492 81.2589 36.7291 81.5832C38.1898 84.1862 40.8896 85.8911 43.6552 86.2291C45.0365 86.4098 46.4329 86.2729 47.7091 85.8609C48.3479 85.656 48.9565 85.3838 49.525 85.0557C49.6112 85.0035 49.6876 84.9574 49.7556 84.9158C50.1571 84.6694 50.678 84.8168 50.8882 85.2379C51.2102 85.8828 51.6714 86.7613 52.085 87.416C52.8251 88.5909 53.6485 89.6811 54.5262 90.6957C56.3173 92.6917 58.3503 94.3474 60.5307 95.5797C62.6967 96.8355 64.9928 97.6815 67.273 98.1661C69.5509 98.6621 71.8228 98.836 73.9964 98.6734C78.3451 98.3408 82.2742 96.9035 85.4451 94.8176C87.0547 93.8045 88.4564 92.5972 89.7031 91.3308C90.0017 91.0148 90.2988 90.7018 90.5929 90.3903C90.6065 90.3759 90.6201 90.3608 90.6322 90.3449L91.4352 89.3568C91.7081 89.0385 91.9606 88.69 92.1829 88.3558C92.3318 88.4964 92.4853 88.634 92.6463 88.7686C92.8368 88.9274 93.0772 88.9773 93.3026 88.9364C93.8144 89.3833 94.3391 89.8036 94.8736 90.1952C95.9744 91.0012 97.1145 91.6914 98.2735 92.2706C100.613 93.394 102.983 94.1055 105.288 94.4925C109.926 95.1306 114.19 94.5046 117.747 93.1778C121.325 91.8766 124.269 90.0115 126.676 87.9604C126.975 87.7018 127.287 87.4622 127.568 87.1945C127.844 86.9216 128.117 86.6509 128.386 86.3826C128.656 86.1142 128.924 85.8488 129.189 85.5849C129.446 85.3135 129.676 85.0232 129.917 84.7465C130.381 84.1779 130.892 83.6623 131.284 83.0688L131.598 82.6341C131.622 82.6054 131.644 82.5653 131.665 82.5563C131.694 82.6092 131.684 82.6031 131.751 82.6976L131.803 82.7725L131.975 82.9895C132.104 83.1573 132.241 83.3183 132.384 83.4718C132.948 84.0948 133.584 84.6353 134.267 85.0829C135.632 85.9803 137.181 86.4899 138.706 86.6237C140.232 86.7628 141.74 86.5315 143.083 86.0128C143.756 85.7558 144.386 85.4231 144.966 85.036C145.255 84.8417 145.537 84.6391 145.798 84.4161C145.932 84.308 146.062 84.1976 146.184 84.0789L146.267 84.0003C146.279 83.9965 146.275 83.9731 146.3 83.9867L146.385 84.0411L146.487 84.1039L146.893 84.3322C147.43 84.6399 147.978 84.9113 148.527 85.157C149.623 85.6507 150.732 86.0333 151.833 86.3069C154.039 86.8445 156.212 86.9428 158.214 86.6713C162.239 86.1255 165.457 84.1689 167.685 81.8773C168.802 80.7206 169.698 79.4762 170.418 78.2113C170.78 77.5785 171.093 76.9381 171.372 76.2978C171.503 75.9742 171.645 75.6567 171.762 75.3346L171.831 75.1403C171.833 75.135 171.834 75.1335 171.834 75.1335C171.834 75.1335 171.843 75.1335 171.838 75.135C172.008 75.1342 172.177 75.1327 172.343 75.132C172.543 75.1297 172.742 75.1282 172.939 75.1259C173.137 75.1055 173.334 75.0844 173.529 75.0647C174.3 75.0095 175.026 74.8477 175.726 74.6927C175.745 74.6882 175.764 74.6836 175.783 74.6783C177.167 74.2867 178.423 73.8119 179.479 73.1678C181.648 71.9423 183.132 70.3848 184.2 68.9136C185.277 67.434 185.9 65.9771 186.317 64.6397C186.659 63.6107 186.815 62.6286 186.913 61.6783C186.957 61.2179 187.005 60.4392 187 59.9742ZM180.678 69.8034C179.402 70.9488 177.898 71.8379 176.28 72.3974C175.476 72.6756 174.645 72.8752 173.803 72.9879C173.789 72.9901 173.774 72.9916 173.759 72.9924C173.34 73.0249 172.932 73.1179 172.5 73.0982L171.846 73.1035C171.604 73.1232 171.337 73.0967 171.068 73.0619C170.695 73.0143 170.34 73.2381 170.217 73.5927L169.937 74.3941C169.839 74.6912 169.77 74.8613 169.671 75.0957C169.5 75.5395 169.299 75.9682 169.091 76.3946C168.658 77.236 168.19 78.0624 167.622 78.8161C166.514 80.3388 165.136 81.6603 163.552 82.6538C160.39 84.6641 156.434 85.312 152.752 84.4841C150.904 84.1001 149.13 83.3614 147.482 82.4096L146.324 81.6936L146.03 81.5114C145.979 81.4456 145.939 81.5522 145.895 81.5802L145.764 81.714L145.241 82.2501C145.073 82.4376 144.846 82.6394 144.81 82.6749C144.731 82.7528 144.645 82.8231 144.559 82.8934C144.392 83.0393 144.212 83.1694 144.033 83.3002C143.305 83.806 142.496 84.1999 141.641 84.4312C139.937 84.9143 138.064 84.7782 136.443 84.0615C135.63 83.7107 134.885 83.2079 134.237 82.6039C133.912 82.2977 133.626 81.9718 133.345 81.6082C133.287 81.5303 133.228 81.4418 133.169 81.3526C136.741 81.0517 140.203 79.6901 143.01 77.4583C143.363 77.1778 143.398 76.6524 143.1 76.3136L142.818 75.9901C142.53 75.6612 142.034 75.6234 141.7 75.9054C140.834 76.635 139.634 77.5641 138.139 78.3111C136.391 79.2115 134.258 79.8254 132.297 79.9283C131.993 79.6258 131.491 79.6206 131.179 79.9298C129.328 79.827 127.344 79.2924 125.69 78.5039C124.172 77.8038 122.944 76.9117 122.056 76.2101C121.713 75.9387 121.219 75.9916 120.942 76.3295L120.67 76.6614C120.384 77.0092 120.434 77.5339 120.795 77.803C123.508 79.8262 126.78 81.054 130.148 81.3474L129.676 82.0104C129.542 82.1994 129.412 82.3914 129.257 82.5623L128.36 83.6223C128.067 83.9806 127.764 84.3307 127.426 84.6474C126.77 85.2991 126.136 85.9758 125.408 86.5474L124.373 87.4198C124.356 87.4342 124.339 87.4478 124.32 87.4599L123.217 88.2432C122.484 88.8094 121.662 89.2366 120.874 89.7167C120.486 89.9684 120.056 90.1416 119.644 90.348C119.228 90.5445 118.816 90.7547 118.395 90.9422C116.681 91.6113 114.933 92.2275 113.114 92.517C111.323 92.8928 109.488 92.9389 107.669 92.9011C107.647 92.9003 107.625 92.8996 107.602 92.8973C105.793 92.7332 103.973 92.4989 102.25 91.9024C101.819 91.7527 101.365 91.6619 100.951 91.4654L99.6895 90.9248C98.8405 90.5838 98.0452 90.1211 97.2642 89.6456C96.4862 89.164 95.7408 88.6302 95.0293 88.0549C94.6732 87.7676 94.33 87.4652 93.9913 87.1567C93.9021 87.0773 93.4681 86.6653 93.1438 86.3266L92.8081 85.9841C92.6236 85.7959 92.3749 85.7263 92.1375 85.7558C91.4306 85.0655 90.7419 84.249 90.2625 83.4317L90.2595 83.4325L90.2618 83.431C89.7454 82.4821 89.353 81.2959 89.1897 80.2367C89.0793 79.585 89.0831 79.0066 89.1255 78.5621C89.1633 78.1667 88.8926 77.8098 88.5055 77.7221L88.1199 77.6344C87.6368 77.5248 87.1537 77.8756 87.1416 78.3708C87.1167 79.3597 87.3442 80.2488 87.6013 81.0865C87.9566 82.179 88.4352 83.1913 88.9795 84.1598C89.5246 85.1275 90.1514 86.0423 90.853 86.9125C90.8825 86.9481 90.9127 86.9821 90.9415 87.0176L90.5332 87.6141C90.2437 88.0398 89.8966 88.4216 89.5821 88.8283C89.2744 89.2419 88.9024 89.5995 88.5547 89.9775L88.0443 90.5158C88.0307 90.5302 88.0171 90.5438 88.002 90.5574L87.4539 91.0571C85.9395 92.4475 84.243 93.6405 82.4149 94.5848C78.7458 96.4469 74.5793 97.2891 70.4824 96.9723C68.4388 96.7811 66.4149 96.3388 64.49 95.622C62.5621 94.9129 60.7514 93.9013 59.104 92.6788C57.4589 91.4518 55.968 90.0085 54.7258 88.3702C54.4189 87.9581 54.1029 87.5521 53.8299 87.1159C53.5366 86.6933 53.2712 86.2533 53.0179 85.8049C52.7465 85.3679 52.5326 84.8985 52.2929 84.4433L52.2052 84.2717L52.0547 83.9337L51.738 83.2163L51.5406 82.7694C51.3229 82.2765 50.6908 82.1359 50.2833 82.4889C49.9522 82.7762 49.6181 83.059 49.2839 83.3002L49.1168 83.4159L49.0109 83.4854L48.7955 83.6177C48.6534 83.7092 48.5006 83.781 48.3539 83.8649C47.7529 84.1719 47.1118 84.3987 46.454 84.5431C45.137 84.8342 43.7436 84.7487 42.4576 84.3443C41.1686 83.9421 40.0058 83.1747 39.0902 82.1835C38.6298 81.6883 38.2465 81.1243 37.935 80.527C37.7793 80.2284 37.6364 79.9207 37.5275 79.6016L37.4421 79.3635C37.3914 79.2304 37.3393 79.0089 37.2878 78.8373L37.1329 78.2861C37.0724 78.1145 37.083 77.8484 36.8312 77.9301L31.6524 77.955C31.635 77.955 31.6168 77.955 31.5987 77.9543C30.1131 77.8817 28.6328 77.7501 27.1615 77.549C24.2039 77.1302 21.2879 76.4286 18.4867 75.4162C15.6947 74.3903 13.0032 73.0771 10.5741 71.3934C8.15098 69.7135 5.96755 67.6797 4.32695 65.2838C2.68559 62.8978 1.6279 60.1314 1.48879 57.2819C1.33456 54.437 2.11175 51.5784 3.60794 49.1213C5.09204 46.6491 7.21424 44.5564 9.61163 42.8621C12.0226 41.1723 14.7149 39.8705 17.5175 38.8899C20.3292 37.9244 23.2573 37.2795 26.2225 36.9385C27.7051 36.7601 29.1983 36.6822 30.6914 36.646H30.7081C35.3683 37.1215 39.8561 39.4357 42.9181 42.9785C43.2016 43.3066 43.6862 43.3656 44.0271 43.0965L44.3054 42.8764C44.7265 42.5438 44.759 41.9926 44.4263 41.6494C43.9175 41.1247 43.2462 40.5312 42.478 39.9544C42.4901 39.9491 42.5022 39.9506 42.5143 39.9445C44.8883 38.815 47.632 38.4317 50.2252 38.8664C50.6516 38.9375 51.0636 38.6827 51.1618 38.2616C51.2027 38.0862 51.2344 37.9494 51.2344 37.9494C51.3607 37.4065 51.0001 36.9385 50.4966 36.9159C50.0535 36.8954 49.5447 36.9075 49.0147 36.9491C43.3067 37.3929 41.1096 38.6767 41.1867 39.0615C40.0398 38.3259 38.7954 37.6666 37.6538 37.1306L37.6515 37.1328L37.653 37.1298C36.339 36.4638 34.8065 35.7886 33.3111 35.3168L33.3572 35.208C33.4842 34.8723 33.6642 34.56 33.8237 34.2387C33.9772 33.9144 34.1639 33.6074 34.3544 33.302C35.8521 30.8524 37.9963 28.7862 40.5154 27.3656C41.7711 26.6496 43.1116 26.0819 44.4997 25.6698C44.8497 25.5776 45.196 25.4702 45.549 25.3901L46.6559 25.1656C46.6703 25.1633 46.6945 25.1587 46.7088 25.1565L48.1279 24.9667L48.6957 24.8911C48.7887 24.78 48.7796 24.5766 48.8265 24.4239L49.0276 23.4365C49.0457 23.3359 49.0571 23.3148 49.0699 23.2717L49.1077 23.1507L49.1826 22.9088C49.2317 22.7477 49.2771 22.5844 49.3504 22.4317C49.4766 22.1187 49.6105 21.8095 49.7836 21.5192C50.1019 20.9249 50.5132 20.3821 50.9819 19.8975C51.4272 19.4046 51.9716 19.0175 52.5227 18.6531C52.5447 18.6387 52.5666 18.6251 52.5892 18.6122C53.1653 18.2871 53.7664 17.9991 54.406 17.8229C55.6981 17.4351 57.0945 17.4283 58.4047 17.7284C59.0609 17.8857 59.693 18.1352 60.2857 18.4565C60.5829 18.6168 60.8663 18.8012 61.1393 18.9993L61.2572 19.0855L61.4795 19.2707C61.6269 19.3985 61.7766 19.5119 61.9225 19.6518L62.1305 19.8431C62.4835 20.1674 63.04 20.1107 63.3204 19.7228L63.7143 19.1785L64.1732 18.5442L64.4295 18.2403L64.924 17.6543C64.9361 17.64 64.9489 17.6256 64.9625 17.612L65.4978 17.0624C66.2478 16.3124 67.0681 15.6282 67.9549 15.0415C69.7135 13.8401 71.7049 12.9881 73.7817 12.4997C75.8555 11.9871 78.0246 11.9069 80.1476 12.1383C81.2098 12.2411 82.2561 12.4732 83.2798 12.7771C83.7916 12.9314 84.2967 13.1075 84.7941 13.3049C85.0429 13.4031 85.2894 13.5075 85.5343 13.6163L86.4264 14.042C86.7485 14.1955 87.134 14.1168 87.3707 13.8492L88.7218 12.3205C88.7308 12.3099 88.7406 12.2993 88.7505 12.2895L90.0282 10.9899C90.038 10.9793 90.0486 10.9695 90.0592 10.9596L91.4042 9.73183C91.4147 9.722 91.4261 9.71217 91.4374 9.70309L92.8633 8.53729C94.8298 7.01766 96.964 5.71804 99.2185 4.68075C103.725 2.59863 108.718 1.60141 113.677 1.81235C118.637 2.01043 123.531 3.41061 127.853 5.85336C130.016 7.07058 132.038 8.53956 133.876 10.2127L135.204 11.4896C135.214 11.4994 135.224 11.51 135.235 11.5206L136.476 12.8527C136.486 12.8633 136.496 12.8739 136.505 12.8852L137.674 14.2839C137.683 14.2945 137.691 14.3059 137.7 14.3172L138.455 15.3242C138.191 15.551 137.928 15.7718 137.68 15.9532L137.681 15.9563L137.68 15.954C137.135 16.267 136.414 16.5694 135.827 16.8635C135.345 17.1039 135.246 17.7496 135.622 18.1344L135.817 18.334C136.12 18.6432 136.605 18.6462 136.932 18.362C137.908 17.5099 139.007 16.7962 140.183 16.2519C140.308 16.1944 140.403 16.1045 140.482 16.0039C140.59 15.9706 140.679 15.9449 140.707 15.9427C140.949 15.8807 141.193 15.8383 141.438 15.8058C141.928 15.7393 142.42 15.7378 142.903 15.7907C143.87 15.8912 144.79 16.2632 145.572 16.8318C146.358 17.3965 146.978 18.1851 147.413 19.0757C147.631 19.521 147.802 19.995 147.919 20.4857C147.955 20.6067 147.975 20.7322 148.001 20.8554L148.018 20.9378C144.706 21.8337 141.603 23.4705 139.007 25.7159C138.709 25.9738 138.674 26.4017 138.874 26.726C136.565 25.8256 134.029 25.3137 131.727 25.2623L131.724 25.2653V25.2623C128.795 25.1202 125.43 25.6857 122.602 26.9044C120.17 27.9107 118.199 29.382 116.937 30.6067C116.607 30.9273 116.626 31.4603 116.967 31.7688L117.289 32.0591C117.611 32.3502 118.098 32.3229 118.404 32.0145C121.841 28.5428 126.793 26.5597 131.674 26.7366C136.556 26.9059 141.355 29.2353 144.537 32.9421C144.82 33.2718 145.304 33.333 145.647 33.0654L145.988 32.7985C146.35 32.5157 146.407 31.985 146.1 31.6418C144.928 30.33 143.066 28.7219 140.711 27.5463C140.541 27.4586 140.364 27.3807 140.19 27.2976C140.259 27.2598 140.329 27.2242 140.386 27.1645C140.752 26.785 141.189 26.3261 141.69 25.8656C142.493 25.1194 143.466 24.3687 144.416 23.8735L144.415 23.8705L144.417 23.8735C145.384 23.4108 146.568 23.0849 147.646 22.8921C147.917 22.8422 148.174 22.8044 148.427 22.7682C148.598 22.9262 148.827 23.0169 149.077 22.9814C149.431 22.9307 149.785 22.8816 150.133 22.8445L150.646 22.7999L151.091 22.7735C151.685 22.7515 152.28 22.7356 152.874 22.7946L154.606 22.9662C154.636 22.9693 154.666 22.9738 154.696 22.9806L156.396 23.3488C158.696 23.9672 160.864 25.0559 162.769 26.5007C164.678 27.9447 166.325 29.738 167.659 31.7438C168.996 33.7534 169.963 35.9995 170.631 38.3198C170.995 39.4652 171.179 40.6575 171.378 41.8407C171.381 41.8588 171.383 41.877 171.385 41.8951L171.56 43.6771C171.603 43.978 171.578 44.2827 171.589 44.5851L171.598 45.6526L171.607 46.6037C171.643 46.8857 171.483 47.3635 171.906 47.2569L173.574 47.3915C173.593 47.393 173.611 47.3953 173.63 47.3975L174.439 47.5208C174.458 47.5238 174.477 47.5276 174.496 47.5314L175.321 47.7189C176.449 48.0152 177.536 48.4658 178.543 49.0548C182.377 51.2556 184.962 55.5476 184.962 59.9621C184.958 65.4487 183.066 67.6858 180.678 69.8034Z" fill="#5AA3CF"/>
<path d="M80.8424 17.7867C81.1289 18.1133 81.6165 18.1435 81.9552 17.8714C85.7029 14.8593 90.667 13.3503 95.4565 13.7661C95.889 13.8039 96.2776 13.5068 96.3343 13.0758L96.3872 12.6683C96.4492 12.1951 96.0893 11.7755 95.6115 11.7634C94.7617 11.7407 93.6904 11.7974 92.5617 11.9735C90.9883 12.2071 89.3197 12.6608 87.8848 13.1212C86.4362 13.537 84.7972 14.0889 83.3599 14.7709C82.3249 15.2525 81.4033 15.8013 80.71 16.2928C80.3207 16.5687 80.2549 17.1176 80.5694 17.4767L80.8424 17.7867Z" fill="#5AA3CF"/>
<path d="M97.3427 52.4306L96.9821 52.197C96.6177 51.9612 96.1308 52.0564 95.8881 52.4163C95.3634 53.1927 94.6482 54.1899 93.6805 55.1365C92.4353 56.3832 90.7803 57.5195 89.1594 58.1591V58.1621L89.1586 58.1591C87.5271 58.773 85.538 59.0414 83.7787 58.9537C82.4261 58.9016 81.2278 58.6422 80.3175 58.4192C80.3122 58.4177 80.3077 58.42 80.3024 58.4185C81.2119 56.6561 81.9437 54.8008 82.4631 52.882C82.5803 52.4488 82.3059 52.0035 81.8689 51.8992L81.4394 51.7971C81.0168 51.6965 80.5934 51.9468 80.4823 52.3664C80.2305 53.3152 79.9055 54.4372 79.436 55.6544C78.841 57.2096 78.0139 58.9167 76.932 60.5936C74.7969 63.9632 71.5452 67.1333 68.1264 69.0264L68.1249 69.0302L68.1234 69.0279C64.7084 70.9286 60.2984 72.0112 56.3096 72.0407C54.3144 72.0717 52.4288 71.8714 50.7943 71.5538C49.5128 71.3081 48.3879 70.9906 47.4496 70.7025C47.0353 70.5755 46.6005 70.8038 46.4629 71.2144L46.3223 71.6332C46.1795 72.0589 46.4123 72.5276 46.8425 72.6569C54.1065 74.8471 62.1998 73.9966 68.8424 70.3154C73.1851 67.9007 76.8201 64.3133 79.3747 60.0734C79.4836 60.2292 79.6401 60.3524 79.8404 60.394C86.4369 61.7738 93.6063 59.0097 97.5695 53.5594C97.8333 53.1942 97.7222 52.6764 97.3427 52.4306Z" fill="#5AA3CF"/>
</svg>
