<svg width="243" height="97" viewBox="0 0 243 97" fill="none" xmlns="http://www.w3.org/2000/svg">
<path d="M242.082 62.9819C242.082 72.208 230.882 79.6794 217.064 79.6794C212.549 79.6794 208.315 78.8788 204.657 77.4817C202.319 79.4193 199.454 80.501 196.413 80.3607C193.956 80.2486 191.695 79.3499 189.785 77.882C186.478 84.3348 179.239 88.1476 171.747 86.7715C168.145 86.1042 165.027 84.3418 162.668 81.8988C157.879 88.4708 150.984 92.965 142.811 94.0039C135.895 94.8816 129.07 93.1613 123.094 89.5027C120.447 90.1133 117.575 89.1375 115.405 87.0239C109.192 92.4308 101.264 95.6744 92.6134 95.6744C85.0649 95.6744 78.0645 93.2026 72.279 88.9755C71.6965 90.2394 70.8329 91.3912 69.6741 92.318C65.679 95.5202 59.8507 94.8739 56.6562 90.8858C55.5325 89.4887 54.8939 87.8665 54.6969 86.2093C48.1319 86.3215 42.1985 83.3232 38.6458 78.5697C35.9146 79.4824 32.9795 80.0509 29.9041 80.2058C15.1029 80.9293 2.52667 71.8154 1.07347 59.6114C1.01738 59.1551 0.975322 58.6917 0.954292 58.2213C0.335997 45.5827 11.8025 34.7128 26.7236 33.5827C32.6079 22.0882 44.3338 15.193 56.2489 17.3837C56.6282 17.4538 57.0004 17.5379 57.3657 17.622C60.5602 13.5288 65.5248 10.6638 71.3102 10.1163C72.7852 9.97606 74.2244 10.0041 75.6285 10.1653C79.0691 5.84708 83.9418 2.66657 89.721 1.45873C101.791 -1.06913 113.679 5.84708 117.969 17.2575C119.387 15.9936 121.199 15.1509 123.235 14.9547C128.326 14.4773 132.84 18.22 133.325 23.3101C133.346 23.5351 133.346 23.7524 133.353 23.9704C136.049 23.1769 138.907 22.9806 141.779 23.507C144.566 24.0195 147.101 25.1642 149.292 26.7934C155.113 20.6988 163.201 17.5463 171.382 19.0486C180.53 20.7338 187.489 27.8113 190.284 36.9679C194.672 36.5116 199.236 37.7475 202.901 40.7808C205.148 42.6412 206.791 44.9518 207.823 47.4726C210.681 46.7141 213.799 46.2858 217.063 46.2858C230.404 46.2858 241.308 53.2581 242.039 62.0425C242.068 62.3503 242.082 62.6664 242.082 62.9819Z" fill="white"/>
<path d="M242.082 62.9819C242.082 72.208 230.883 79.6794 217.064 79.6794C212.55 79.6794 208.315 78.8788 204.657 77.4817C202.319 79.4193 199.454 80.501 196.414 80.3608C193.956 80.2486 191.695 79.3499 189.786 77.882C186.478 84.3348 179.239 88.1476 171.747 86.7716C168.145 86.1042 165.027 84.3418 162.668 81.8988C157.88 88.4708 150.984 92.965 142.811 94.0039C135.895 94.8816 129.07 93.1613 123.094 89.5027C120.447 90.1133 117.575 89.1375 115.406 87.0239C109.192 92.4309 101.264 95.6744 92.6136 95.6744C85.0651 95.6744 78.0648 93.2027 72.2793 88.9756C71.6968 90.2395 70.8331 91.3913 69.6743 92.318C65.6793 95.5202 59.851 94.8739 56.6565 90.8858C55.5328 89.4887 54.8941 87.8665 54.6972 86.2093C48.1322 86.3215 42.1988 83.3233 38.646 78.5697C35.9149 79.4824 32.9797 80.0509 29.9044 80.2059C15.1031 80.9293 2.52693 71.8154 1.07373 59.6114C5.13261 59.6745 9.19779 58.5866 12.5192 56.2059C19.7957 70.4246 35.8237 58.9651 35.8237 58.9651C35.8237 58.9651 45.9772 69.0899 57.3589 66.5277C64.1707 64.9938 66.4195 62.0482 68.0627 55.2581C63.8601 55.6928 56.9201 51.6465 56.0354 49.0268C61.0491 51.2455 84.2498 49.4607 91.9722 42.506C90.798 45.7888 86.1762 50.3307 78.2064 53.0843C84.4482 65.2876 99.1801 69.2238 111.278 62.7779C117.949 68.7954 127.856 70.9931 136.443 68.3601C145.038 65.7271 151.286 60.7562 153.442 52.0286C150.429 51.2631 149.182 47.9395 147.61 46.1421C153.395 49.4355 162.459 48.173 168.742 45.9613C166.618 49.9487 163.99 51.2624 160.906 52.4078C161.397 58.1162 164.108 59.5687 169.29 62.0194C174.472 64.4632 180.939 63.9437 185.664 60.6924C189.477 64.6945 195.705 66.1905 200.929 64.3643C206.146 62.5319 210.071 57.4691 210.555 51.9571C211.889 57.8764 221.172 59.765 224.711 54.8502C229.036 59.6528 235.594 62.3419 242.04 62.0405C242.068 62.3503 242.082 62.6665 242.082 62.9819Z" fill="#C4E3F2"/>
<path d="M188.197 81.8932C189.018 80.9714 190.047 79.3871 190.096 79.2637C190.362 79.4327 191.289 80.0026 191.957 80.2669C192.934 80.698 193.97 81.0044 195.029 81.1691C197.146 81.5028 199.351 81.2687 201.346 80.5038C202.345 80.1288 203.29 79.6262 204.166 79.031C204.378 78.8929 204.619 78.7071 204.79 78.5852L204.832 78.5522L205.235 78.6952C205.477 78.7758 205.716 78.8635 205.96 78.9378C207.899 79.5596 209.89 80.004 211.901 80.2781C213.913 80.5438 215.944 80.6798 217.97 80.5985L219.49 80.5466C219.996 80.5221 220.499 80.452 221.005 80.4064C221.508 80.3468 222.016 80.3223 222.516 80.2325L224.018 79.9753C228.015 79.263 231.897 77.7748 235.346 75.5308C237.043 74.3637 238.612 72.9827 239.931 71.3549C241.248 69.7271 242.22 67.7748 242.694 65.6935C243.164 63.6108 243.093 61.3984 242.479 59.3479C241.833 57.3051 240.698 55.4755 239.325 53.9094C238.966 53.533 238.642 53.1159 238.251 52.7759L237.09 51.7398C236.693 51.4089 236.264 51.1208 235.852 50.8103C235.643 50.6595 235.439 50.5004 235.226 50.3574L234.567 49.9571C232.837 48.8397 230.945 48.0356 229.037 47.3234C225.422 46.077 221.626 45.4405 217.826 45.3515C217.41 45.3416 211.657 45.6515 209.372 46.131L208.369 46.3574L208.255 46.1106C208.109 45.812 207.958 45.5155 207.798 45.2246C207.155 44.0602 206.383 42.968 205.501 41.9733C203.733 39.9866 201.525 38.4002 199.077 37.3578C196.631 36.3077 193.948 35.8394 191.294 35.9494L191.026 35.96L190.962 35.9649L190.948 35.9656L190.916 35.8702L190.61 34.968C190.605 34.954 190.6 34.94 190.594 34.9267L190.235 34.0441C190.003 33.4363 189.726 32.8481 189.437 32.2642C189.17 31.6704 188.841 31.1082 188.523 30.5397C187.224 28.2859 185.632 26.1829 183.726 24.3897C179.945 20.7816 174.958 18.3792 169.726 17.8597C167.115 17.6046 164.458 17.7567 161.908 18.361C159.361 18.9737 156.906 19.9593 154.667 21.3003C154.116 21.6494 153.549 21.974 153.025 22.3624L152.243 22.9141C152.232 22.9218 152.221 22.9302 152.21 22.9386L151.461 23.5324C150.884 23.9677 150.366 24.4717 149.819 24.9407C149.809 24.9491 149.794 24.9631 149.785 24.9715L149.191 25.5604V25.5611L149.016 25.4419C148.74 25.2604 148.46 25.083 148.176 24.9141C147.606 24.5762 147.019 24.2677 146.417 23.9901C145.213 23.4356 143.95 23.0052 142.655 22.7185C140.068 22.1345 137.354 22.1184 134.761 22.647L134.204 22.7683L134.186 22.6491C134.148 22.3042 134.071 21.9656 133.98 21.6305C133.637 20.286 133.012 19.0129 132.16 17.9179C130.468 15.716 127.84 14.2572 125.065 14.0175C123.683 13.892 122.276 14.0315 120.954 14.4689C120.293 14.6828 119.655 14.9674 119.053 15.3137C118.901 15.3971 118.756 15.4924 118.608 15.5829L118.355 15.7518V15.7504C118.353 15.7448 118.36 15.7602 118.35 15.7364L118.176 15.3319C117.965 14.7837 117.67 14.2755 117.395 13.7581C116.881 12.7115 116.203 11.7609 115.567 10.7872C115.557 10.7725 115.548 10.7585 115.537 10.7445C114.146 8.86363 112.523 7.16297 110.714 5.68243C107.048 2.7634 102.597 0.791438 97.9263 0.219409C97.3423 0.164029 96.7619 0.0532739 96.1737 0.0448617L94.4121 0C93.8253 0.000701015 93.2393 0.066596 92.6532 0.0981416C92.3609 0.121976 92.0665 0.128981 91.7756 0.166835L90.9063 0.306341C88.5768 0.61619 86.3126 1.32842 84.171 2.29021C82.0406 3.27935 80.035 4.54678 78.2586 6.08411C77.3683 6.84892 76.5236 7.6684 75.7511 8.55238C75.6522 8.66104 75.5534 8.76969 75.4616 8.88395L75.226 9.16717C75.226 9.16717 75.2239 9.16716 75.205 9.16506L74.429 9.10899C74.1338 9.09357 73.8387 9.08234 73.5429 9.07884C68.8152 9.00873 64.0687 10.5306 60.2944 13.409C59.355 14.1318 58.4767 14.9344 57.6733 15.8072C57.4749 16.0273 57.2688 16.2411 57.0852 16.4753L57.0024 16.5762L56.5685 16.4837C56.2818 16.422 55.9881 16.3974 55.6978 16.3526C53.3817 15.9502 51.0052 15.9775 48.68 16.2488C48.1009 16.34 47.5121 16.3792 46.9408 16.5145L45.2499 16.8959C45.2331 16.8994 45.2163 16.9043 45.1994 16.9092C44.089 17.2471 42.9625 17.5562 41.9019 18.0322C40.8111 18.4381 39.7946 19.0017 38.7599 19.5261C38.7438 19.5345 38.7277 19.5436 38.7116 19.5527C37.7252 20.1605 36.7172 20.736 35.8002 21.4454C34.8391 22.096 33.986 22.8825 33.102 23.6277C33.0894 23.6389 33.0768 23.6501 33.0649 23.6621C32.2426 24.4745 31.3902 25.2597 30.652 26.1507C29.8605 26.9947 29.1939 27.9403 28.4901 28.8545C28.4809 28.8671 28.4711 28.879 28.4627 28.8923C28.1381 29.3662 27.8304 29.852 27.5142 30.3315C27.3572 30.5762 27.1911 30.8152 27.0425 31.0648L26.6183 31.8261L26.3183 32.3659C26.2019 32.5748 25.993 32.7143 25.7561 32.7423L24.6955 32.8664L23.8592 32.9652C23.8395 32.9673 23.8199 32.9708 23.8003 32.975L22.9745 33.1412L21.2885 33.484C21.2724 33.4875 21.2563 33.491 21.2409 33.4952C19.0025 34.0896 16.7782 34.7984 14.706 35.8597C10.4964 37.8646 6.77682 40.9351 4.04006 44.7619C2.70252 46.7016 1.66222 48.8383 0.917041 51.0843C0.2665 53.3612 -0.0650826 55.7272 0.010627 58.0994C0.0344615 58.6903 0.126296 59.2778 0.182378 59.8667L0.275612 60.7072C0.279117 60.7352 0.283324 60.7633 0.289633 60.7906L0.478206 61.615C0.620512 62.1891 0.727767 62.7745 0.90232 63.3388L1.50379 65.0086C1.67694 65.5771 1.99099 66.084 2.23845 66.6202C2.50624 67.1467 2.74178 67.6921 3.08247 68.1751L4.01833 69.6339C4.03095 69.6528 4.04357 69.6718 4.05759 69.69C4.40459 70.1513 4.77543 70.595 5.13365 71.0478C5.32012 71.275 5.49607 71.5126 5.69235 71.7306L6.30925 72.3594C6.72705 72.7716 7.11892 73.2126 7.55916 73.5995C8.46277 74.3454 9.33132 75.1404 10.3226 75.7664C12.2237 77.139 14.3436 78.161 16.5013 79.0352C20.8672 80.6742 25.5633 81.3913 30.2061 81.1355C32.5279 81.0044 34.837 80.6356 37.0845 80.03L37.9243 79.7923L38.3162 79.6724L38.319 79.6766C38.4984 79.908 38.6891 80.1407 38.8924 80.3566C39.6719 81.256 40.5545 82.0601 41.4869 82.7926C43.3544 84.2585 45.4862 85.3766 47.7371 86.1085C48.8587 86.4912 50.0217 86.7366 51.1882 86.9216C51.7743 87.0044 52.361 87.0766 52.952 87.1067C53.2471 87.1312 53.5415 87.1481 53.8374 87.146H53.8899C53.9425 87.4152 54.0112 87.6815 54.0855 87.9451C54.2355 88.4737 54.4332 88.9882 54.6688 89.4852C55.1363 90.4828 55.7799 91.3906 56.5398 92.1813C58.0701 93.7551 60.1107 94.8438 62.2874 95.1649C64.4556 95.5273 66.7332 95.1298 68.6743 94.0993L69.3571 93.7039C69.3774 93.692 69.3971 93.6794 69.4167 93.6654L70.0574 93.2076C70.5033 92.888 70.9085 92.5108 71.2877 92.1133C71.667 91.7152 72.0098 91.2826 72.3182 90.8284L72.6105 90.3699C72.729 90.459 74.2292 91.4467 75.247 92.0173C76.4745 92.7092 77.7427 93.3275 79.0388 93.8806C81.6389 94.9693 84.3687 95.7516 87.1552 96.1911C92.7276 97.0786 98.5053 96.5718 103.85 94.7709C106.512 93.8477 109.084 92.6482 111.458 91.1291C112.658 90.3909 113.788 89.5469 114.896 88.6805L115.383 88.2739L115.462 88.3398L115.679 88.5178L116.133 88.8522C116.444 89.0639 116.762 89.2658 117.093 89.4481C118.413 90.1743 119.924 90.6209 121.478 90.6265C121.865 90.6279 122.253 90.6013 122.638 90.548C122.727 90.5403 122.849 90.515 122.908 90.5038L122.92 90.501C122.927 90.5045 122.94 90.5129 122.982 90.5375C123.585 90.9027 124.205 91.2364 124.828 91.5666C127.336 92.8557 130.004 93.8533 132.77 94.4583C138.296 95.6948 144.192 95.3191 149.5 93.296C152.159 92.2984 154.647 90.8817 156.903 89.1712C158.014 88.2963 159.103 87.3864 160.087 86.3713C160.598 85.8827 161.057 85.3444 161.537 84.8277L162.218 84.0173C162.329 83.8806 162.448 83.7502 162.554 83.6086L162.774 83.3219L162.777 83.317L162.868 83.4011C163.407 83.8855 163.972 84.3398 164.563 84.7597C165.751 85.5897 167.036 86.2837 168.39 86.8011C169.743 87.3184 171.156 87.6864 172.596 87.8456C174.031 88.0145 175.494 88.0538 176.931 87.8568C179.812 87.521 182.591 86.4351 184.968 84.7842C186.147 83.9458 187.239 82.9812 188.197 81.8932ZM186.164 81.4979C184.943 82.7443 183.442 83.8547 181.704 84.6833C179.971 85.5161 178.007 86.0755 175.922 86.2409C174.879 86.2949 173.809 86.297 172.733 86.1442C171.651 86.032 170.572 85.7643 169.508 85.4081C168.446 85.0429 167.402 84.5606 166.411 83.9584C165.79 83.5904 165.203 83.1551 164.619 82.7092C164.605 82.698 164.59 82.6854 164.577 82.6728C164.487 82.5887 164.392 82.508 164.298 82.4281C164.322 82.1477 164.197 81.8638 163.93 81.7173C163.729 81.6065 163.509 81.4839 163.284 81.3444C163.136 81.2539 162.987 81.1544 162.838 81.0499L162.776 80.9896L162.629 80.8452L162.591 80.8095C162.582 80.8165 162.572 80.8319 162.563 80.8438C162.259 80.6069 161.972 80.3482 161.745 80.072L161.742 80.0734L161.745 80.0713C161.37 79.5603 161.086 78.8845 160.896 78.2641C160.817 78.0117 160.753 77.7678 160.697 77.5463C160.586 77.1165 160.127 76.8817 159.713 77.0401L159.414 77.1544C159.023 77.3044 158.822 77.7523 158.994 78.1337C159.644 79.5799 160.549 80.9048 161.649 82.0433C161.543 82.1821 161.438 82.3202 161.332 82.459C160.95 82.9469 160.544 83.4229 160.135 83.8988C159.292 84.8298 158.411 85.7509 157.436 86.5943C153.589 90.0005 148.579 92.5599 142.998 93.3037C137.44 94.1084 131.44 93.1067 126.059 90.4302C125.384 90.1 124.717 89.7481 124.065 89.364L123.477 89.0205C123.229 88.7604 122.861 88.9504 122.608 88.9749C122.261 89.0373 121.908 89.0639 121.553 89.0723C120.13 89.0808 118.695 88.6363 117.444 87.8659C117.133 87.6696 116.829 87.46 116.54 87.2294L116.293 87.0268L115.931 86.7057L115.575 86.3846C115.539 86.3608 115.504 86.318 115.468 86.2879C118.376 86.0201 121.236 85.0513 123.638 83.3331C123.978 83.0899 124.033 82.6034 123.773 82.2767L123.52 81.9584C123.269 81.6437 122.817 81.5855 122.494 81.826C121.68 82.4337 120.564 83.2055 119.185 83.7986C117.464 84.5641 115.366 85.0296 113.504 85.0051L113.503 85.0079V85.0051C111.641 84.9588 109.562 84.4134 107.873 83.5827C106.517 82.9378 105.432 82.1239 104.642 81.486C104.329 81.2329 103.874 81.2736 103.612 81.5792L103.347 81.8876C103.075 82.2045 103.111 82.6924 103.441 82.949C106.308 85.1691 109.907 86.3075 113.478 86.3734C114.099 86.3853 114.722 86.3531 115.343 86.3005L115.212 86.4106L113.996 87.4278C113.698 87.6773 113.382 87.9052 113.075 88.1456C111.829 89.0815 110.532 89.9668 109.155 90.7302C106.419 92.2872 103.438 93.4635 100.331 94.2185C98.7731 94.5816 97.1867 94.8382 95.5842 94.9917C93.9803 95.1368 92.3616 95.1586 90.7451 95.0772C87.5106 94.9146 84.2859 94.2591 81.2127 93.1508C79.6761 92.5977 78.1759 91.9325 76.729 91.1635C76.0041 90.7814 75.2968 90.365 74.5986 89.9339L74.0813 89.6002L73.8226 89.4334C73.7364 89.378 73.6607 89.331 73.5247 89.2336C73.2814 89.0667 73.0374 88.8922 72.7935 88.7211C72.7325 88.6784 72.6638 88.6615 72.5965 88.6398C75.0851 89.0282 77.6375 89.0029 80.1149 88.5164C80.5236 88.4358 80.7787 88.0229 80.6834 87.6177L80.5965 87.2462C80.5012 86.8396 80.0918 86.5908 79.688 86.6973C79.0704 86.8599 78.3014 87.0646 77.451 87.2132C76.2222 87.4362 74.8243 87.5378 73.6067 87.413L73.6053 87.4158L73.606 87.413C72.3918 87.256 71.055 86.8368 69.9095 86.3391C69.116 85.9998 68.4142 85.6247 67.8506 85.3247C67.4819 85.1284 67.0269 85.277 66.8405 85.6507L66.6701 85.9928C66.4851 86.3657 66.6386 86.8263 67.0178 86.998C68.7192 87.7677 70.5215 88.2963 72.3596 88.6034C72.0925 88.6076 71.8324 88.7401 71.7027 89.0008C71.5828 89.2413 71.4595 89.4754 71.3368 89.6752C71.1559 89.9731 70.9505 90.2711 70.7185 90.5648C70.253 91.148 69.6894 91.725 68.994 92.201C68.3203 92.7043 67.5289 93.1221 66.6561 93.4074C65.7868 93.6962 64.8363 93.8813 63.8506 93.8694C61.8864 93.8645 59.8002 93.1649 58.1724 91.7726C57.3564 91.0842 56.6617 90.2283 56.1437 89.2728C55.8878 88.7933 55.6698 88.2907 55.5072 87.7684C55.4223 87.5084 55.355 87.2434 55.2955 86.9763L55.2443 86.7225L55.1931 86.4015L55.1013 85.7593L52.9625 85.7271C52.9351 85.725 52.9078 85.7236 52.8805 85.7215L51.2085 85.5105C51.1938 85.5084 51.1791 85.5063 51.1644 85.5035C50.7781 85.4306 50.3891 85.3577 49.9972 85.2834C48.4115 84.9314 46.8258 84.3699 45.3095 83.5904C43.7974 82.8081 42.3407 81.8225 41.0578 80.6041C40.7452 80.2914 40.4143 79.9942 40.1248 79.6549L39.8942 79.3997C40.6527 79.4684 41.4027 79.4741 42.1101 79.4131L42.1115 79.4103V79.4131C44.0547 79.3093 46.2397 78.6791 48.0028 77.6157C49.4125 76.7962 50.511 75.7145 51.2121 74.7927C51.4826 74.4366 51.395 73.9276 51.0116 73.697L50.6723 73.493C50.3442 73.2953 49.9138 73.3752 49.6944 73.6886C47.9565 76.1681 45.0333 77.8442 42.0147 78.0489C38.9969 78.2648 35.8689 77.0107 33.8044 74.7962C33.543 74.5165 33.1055 74.4968 32.8083 74.738L32.5006 74.9875C32.1529 75.2694 32.136 75.7853 32.4543 76.1008C33.2773 76.9167 34.5153 77.8358 36.026 78.452C36.2377 78.5424 36.4557 78.6244 36.6751 78.7029C36.544 78.738 36.415 78.7786 36.2825 78.8123C34.5027 79.2673 32.6611 79.5736 30.7936 79.718C29.8598 79.8063 28.9184 79.7748 27.9755 79.7909C27.0312 79.8351 26.0912 79.7096 25.1469 79.6479C21.3818 79.2925 17.6468 78.2697 14.284 76.5697L14.2447 76.5508L14.2461 76.548C10.9289 74.841 7.91177 72.4443 5.60332 69.4418C3.25422 66.4688 1.82485 62.7815 1.47365 58.9848C1.06706 55.1741 1.98679 51.2834 3.77718 47.8828C3.97487 47.4419 4.23845 47.0381 4.50203 46.6336L5.26193 45.4454C5.27525 45.4251 5.28927 45.4047 5.30469 45.3858L6.18026 44.2761C6.47469 43.8926 6.77402 43.5127 7.12243 43.1748L8.12698 42.1261C8.45575 41.77 8.84902 41.4812 9.20724 41.1545C9.57948 40.8446 9.92578 40.5032 10.3184 40.2179L11.4989 39.3669L12.0632 38.9603C12.0807 38.9477 12.0982 38.9358 12.1165 38.9252L12.7137 38.5684L13.965 37.8233C14.8062 37.3606 15.6853 36.9659 16.5497 36.5495C16.5679 36.5404 16.5868 36.5327 16.6058 36.5257C17.508 36.1955 18.3884 35.8043 19.3082 35.5267L20.7067 35.1215L21.3762 34.9274C21.3958 34.9217 21.4154 34.9168 21.4357 34.9126L22.1192 34.7738C23.0719 34.5937 24.0148 34.3525 24.9836 34.2775L26.5111 34.1002C26.6955 34.063 26.9051 34.0889 27.0495 34.0027L27.325 33.5099L27.7042 32.832C28.612 31.1194 29.754 29.5513 30.9359 28.0322C33.3888 25.0655 36.354 22.5327 39.6832 20.7038C43.027 18.9246 46.701 17.7483 50.4283 17.592L51.7876 17.5345C51.81 17.5338 51.8317 17.5338 51.8542 17.5345L53.2099 17.599L53.9032 17.6312C54.1332 17.6516 54.361 17.6922 54.5902 17.7217L55.96 17.9123C56.1893 17.9355 56.4115 18.0007 56.6372 18.0441L57.1503 18.1549L57.4251 18.2138L57.5625 18.2432C57.6074 18.2502 57.6263 18.1829 57.6593 18.1563L58.2916 17.3894C58.4318 17.2099 58.5937 17.0494 58.7452 16.8797C59.355 16.2054 60.021 15.5857 60.7234 15.0157C63.5254 12.7171 66.954 11.3074 70.4409 10.8251C71.315 10.7115 72.1892 10.633 73.0641 10.6337C73.5008 10.6309 73.9368 10.6414 74.3715 10.6673L75.022 10.7157L75.5267 10.7669C75.7013 10.7669 75.9221 10.879 76.0105 10.6659L76.5979 9.96141C76.7346 9.79247 76.8818 9.63335 77.0276 9.47281C77.3143 9.14754 77.6144 8.83629 77.9214 8.53275C78.5306 7.92076 79.1734 7.34943 79.8401 6.81456C82.5061 4.66805 85.5898 3.16999 88.7689 2.3533C91.962 1.5892 95.2225 1.41535 98.316 1.90816C101.413 2.37644 104.308 3.50718 106.845 5.02207C109.384 6.54397 111.56 8.48018 113.301 10.633C114.181 11.7034 114.933 12.844 115.596 14.0014C115.899 14.5958 116.244 15.1629 116.505 15.763L116.934 16.7683C116.458 16.7164 115.989 16.682 115.539 16.6722L115.537 16.675V16.6722C113.889 16.5867 111.98 16.7514 110.303 17.2954C109.022 17.6887 107.916 18.3133 107.13 18.8987C106.77 19.1671 106.729 19.6887 107.042 20.0112L107.305 20.2839C107.571 20.558 108.006 20.5916 108.299 20.347C112.219 17.0655 118.82 17.3087 122.488 20.8692C122.763 21.1349 123.199 21.1335 123.484 20.8797L123.727 20.6624C124.102 20.328 124.1 19.8044 123.761 19.5106C123.02 18.8685 121.962 18.164 120.713 17.6782C120.251 17.4903 119.766 17.3375 119.274 17.205L119.512 17.0424C119.868 16.8131 120.24 16.6112 120.622 16.4388C121.389 16.0939 122.2 15.8682 123.024 15.763C123.849 15.681 124.683 15.6663 125.489 15.8205C126.298 15.9488 127.084 16.1976 127.806 16.5636C128.179 16.7241 128.51 16.9582 128.856 17.1622C129.173 17.4104 129.51 17.6312 129.794 17.9158C130.393 18.4458 130.899 19.0704 131.307 19.7441C131.736 20.4079 132.026 21.1447 132.244 21.8899L132.385 22.4556C132.429 22.6512 132.441 22.8257 132.476 23.0445C132.553 23.43 132.533 23.8583 132.571 24.2341C132.637 24.5643 132.46 25.2337 132.995 24.9085L134.127 24.5993L134.411 24.5236C134.501 24.4977 134.619 24.471 134.648 24.4654L134.942 24.4009C135.334 24.3175 135.727 24.2495 136.12 24.1934C136.908 24.0834 137.697 24.0273 138.481 24.0245C140.049 24.0196 141.596 24.239 143.07 24.6435C144.542 25.0536 145.939 25.655 147.223 26.4156C147.543 26.6077 147.858 26.804 148.164 27.0143C148.415 27.1818 148.746 27.4272 149.03 27.6263L149.137 27.7027C147.757 27.9985 146.277 28.4717 144.992 29.1573C143.9 29.7216 142.98 30.4317 142.329 31.0627C142.006 31.3746 142.029 31.8955 142.378 32.1773L142.673 32.4142C142.971 32.654 143.41 32.6364 143.669 32.3546C146.934 28.7963 152.711 27.6536 157.084 29.7013C157.431 29.8632 157.844 29.7125 158.028 29.3774L158.184 29.0928C158.426 28.6526 158.249 28.1626 157.831 27.9964C156.989 27.6613 155.867 27.355 154.642 27.2484C152.997 27.0844 151.211 27.2583 149.694 27.5821L149.693 27.5849L149.693 27.5821C149.686 27.5835 149.68 27.5849 149.674 27.5863L150.906 26.3666C150.914 26.3596 150.927 26.3469 150.935 26.3399L151.76 25.6053C156.217 21.7174 161.735 19.5997 167.014 19.552C169.649 19.5422 172.223 19.9635 174.571 20.8194C176.921 21.6712 179.052 22.9028 180.903 24.382C184.617 27.3487 187.17 31.2477 188.699 35.2183C188.804 35.4636 188.898 35.7118 188.978 35.9656L189.285 36.8776L189.543 37.6389L189.606 37.8282L189.639 37.9228C189.644 37.9642 189.693 37.9298 189.719 37.9375L190.089 37.9081L190.829 37.8499L191.18 37.8233L191.37 37.8176C192.382 37.7756 193.383 37.8289 194.357 37.9691C196.307 38.2474 198.136 38.8909 199.763 39.7798C201.39 40.6701 202.815 41.8225 203.988 43.118C204.577 43.7651 205.097 44.4549 205.56 45.1671C205.789 45.5246 206.006 45.8863 206.203 46.2558C206.304 46.4394 206.398 46.6252 206.489 46.8117C206.536 46.9042 206.581 46.9974 206.623 47.0921L206.729 47.3227L206.859 47.6248L207.116 48.2249L207.245 48.5242C207.258 48.5446 207.261 48.5845 207.282 48.5887L207.36 48.5684L207.518 48.5277C207.939 48.4212 208.357 48.3146 208.774 48.2088C209.216 48.1015 209.596 48.0188 210.008 47.9354C210.816 47.772 211.618 47.6403 212.413 47.5372C213.747 47.3648 217.386 47.2435 217.789 47.2554C219.941 47.3199 222.182 47.5351 224.489 48.0111C227.048 48.5509 229.683 49.4349 232.248 50.7892C234.807 52.131 237.284 54.0496 239.092 56.6595C239.345 56.9694 239.511 57.3304 239.708 57.6774C239.889 58.0314 240.126 58.3665 240.245 58.7527L240.665 59.8365C240.679 59.8695 240.689 59.9038 240.697 59.9389L240.96 61.0836C241.242 62.7044 241.181 64.4324 240.683 66.1204C240.15 67.8 239.19 69.3984 237.936 70.8361C237.603 71.1803 237.317 71.5701 236.942 71.8863C236.586 72.2052 236.227 72.527 235.866 72.8502C235.85 72.8649 235.832 72.8789 235.814 72.8922C235.022 73.479 234.236 74.1022 233.341 74.6027C232.485 75.167 231.525 75.5918 230.576 76.0622C230.562 76.0692 230.547 76.0762 230.532 76.0825C229.547 76.4835 228.555 76.9118 227.498 77.2182C226.464 77.5904 225.364 77.8042 224.266 78.0797C224.25 78.0839 224.233 78.0874 224.217 78.0902C223.097 78.276 221.969 78.5137 220.8 78.5992C216.122 79.1053 211.01 78.7415 205.998 77.0591L205.53 76.8971L204.7 76.5922C204.627 76.5796 204.541 76.5024 204.478 76.5424L204.297 76.6868L203.933 76.9756C203.639 77.2133 203.582 77.2441 203.435 77.3542C202.912 77.7313 202.358 78.0713 201.776 78.3636C200.614 78.949 199.339 79.3423 198.015 79.4811C196.692 79.6199 195.322 79.5042 194.005 79.1256C193.347 78.9357 192.703 78.6777 192.08 78.3636C191.77 78.2024 191.463 78.0328 191.166 77.8421L191.055 77.7713C190.979 77.7236 190.903 77.6731 190.831 77.6206L190.392 77.3058L190.197 77.1628C189.838 76.8992 189.329 77.0093 189.111 77.3976L188.514 78.4611C188.417 78.6412 188.368 78.705 188.312 78.7884L188.143 79.0408C188.03 79.2098 187.916 79.3801 187.801 79.5519C187.566 79.8919 187.29 80.208 187.031 80.5452C186.766 80.8726 186.455 81.1733 186.164 81.4979Z" fill="#5AA3CF"/>
<path d="M153.2 54.3034L152.828 54.1268C152.464 53.9543 152.035 54.1071 151.851 54.4654C149.477 59.078 145.639 62.9238 141.074 65.4068C138.677 66.6883 136.091 67.6262 133.415 68.0735C132.759 68.2123 132.087 68.2543 131.422 68.3434C131.407 68.3455 131.39 68.3469 131.374 68.3476C130.704 68.3777 130.035 68.452 129.363 68.4338C128.004 68.4639 126.645 68.3335 125.299 68.1492C123.952 67.9494 122.626 67.6304 121.324 67.2386C120.035 66.8081 118.751 66.3427 117.541 65.7202C116.323 65.1173 115.145 64.4317 114.047 63.6332C113.775 63.4306 113.486 63.2505 113.228 63.0297L111.945 61.9922L111.74 61.826C111.672 61.7748 111.601 61.6753 111.539 61.7854L111.155 62.1485L110.406 62.8565C110.173 63.0935 109.904 63.2911 109.65 63.5043C105.698 66.7051 100.183 67.9445 95.251 66.7528C94.8619 66.6588 94.4665 66.8726 94.353 67.2568L94.238 67.6473C94.1167 68.0574 94.3628 68.4836 94.7785 68.5817C96.4399 68.9736 98.5373 69.2119 100.853 68.9273C103.526 68.6308 106.492 67.6851 109.135 65.9031C109.793 65.4587 110.433 64.9687 111.04 64.431C111.198 64.3034 111.342 64.1604 111.486 64.0167L111.63 63.8646C111.654 63.8505 111.677 63.7889 111.704 63.8127L111.784 63.8702L111.869 63.9312L112.014 64.0412C113.302 65.0198 114.674 65.9178 116.128 66.642C119.015 68.1302 122.128 69.0633 125.097 69.5014L125.102 69.4993L125.102 69.5021C128.068 69.9599 131.321 69.9669 134.518 69.364C136.112 69.0479 137.684 68.5915 139.196 68.0146C140.703 67.4236 142.138 66.6974 143.484 65.8982C144.828 65.0906 146.054 64.1716 147.186 63.2337C148.29 62.2641 149.308 61.2827 150.165 60.2684C151.676 58.5432 152.771 56.8033 153.541 55.3185C153.735 54.9435 153.581 54.4843 153.2 54.3034Z" fill="#5AA3CF"/>
<path d="M51.5662 34.0482C50.5301 33.8098 49.2514 33.9402 48.1558 34.5683C47.6069 34.8789 47.0951 35.2981 46.6598 35.8204L46.5042 36.0244L46.4263 36.1274L46.4004 36.1695C46.3675 36.2234 46.3422 36.269 46.3331 36.2971C46.303 36.3658 46.2756 36.4471 46.2553 36.5396C46.249 36.5592 46.2469 36.6209 46.2364 36.6111L46.2006 36.5683L46.1158 36.4569C46.085 36.4113 46.0429 36.3728 45.9973 36.3146L45.9609 36.2697L45.8999 36.1884C45.8333 36.098 45.7723 36.0012 45.6945 35.9171C45.1126 35.2084 44.4313 34.4947 43.6335 33.868C42.0478 32.6069 40.0653 31.6584 38.1011 31.2287L38.0969 31.2308L38.0976 31.228C37.14 31.0023 36.1207 30.8586 35.0755 30.8754C34.5631 30.8558 34.0478 30.9259 33.5291 30.9707C33.508 30.9728 33.4877 30.9757 33.4674 30.9792C32.9542 31.0738 32.432 31.1481 31.9287 31.3107C30.8912 31.596 29.8894 32.0335 28.9788 32.5985C28.0584 33.1474 27.2171 33.8127 26.4916 34.555C25.0047 36.0152 23.9862 37.7748 23.3721 39.439C22.8828 40.7695 22.6963 42.051 22.6697 43.1298C22.6591 43.5596 23.0251 43.9017 23.4541 43.8778L23.8558 43.8554C24.2378 43.8344 24.5498 43.5266 24.5547 43.1439C24.6122 38.3461 28.2539 33.6591 32.9318 32.5466C35.3643 31.9536 38.024 32.3335 40.303 33.4495C41.4449 34.0068 42.4979 34.7464 43.3931 35.6374C43.8389 36.0846 44.2476 36.5662 44.6079 37.0794L44.8428 37.4355C44.9346 37.575 45.0278 37.7061 45.1133 37.8806L45.6286 38.8487L45.7197 39.0191C46.0366 39.6143 46.9185 39.5126 47.0916 38.8614L47.0986 38.8347C47.1813 38.4982 47.2683 38.2501 47.3552 37.9935C47.4008 37.8743 47.4372 37.7117 47.4898 37.6276L47.6461 37.364C47.6938 37.2862 47.7604 37.1656 47.7919 37.1235L47.8739 37.0212C47.9258 36.9511 47.9854 36.8859 48.0464 36.8228C48.1642 36.6931 48.2946 36.5718 48.4341 36.4653C48.9851 36.0258 49.6643 35.758 50.3324 35.7376C51.4744 35.6851 52.6843 36.3777 53.2914 37.3661C53.48 37.6731 53.8431 37.8232 54.1831 37.7026L54.5161 37.5848C55.0096 37.4103 55.201 36.8901 54.9626 36.4877C54.3499 35.446 53.2367 34.4295 51.5662 34.0482Z" fill="#5AA3CF"/>
<path d="M188.366 63.4818C189.847 65.139 191.841 66.3931 194.077 66.8362C195.322 67.0878 196.626 67.085 197.876 66.8102C198.858 66.5971 199.798 66.2123 200.654 65.697C201.029 65.4706 201.136 64.9722 200.879 64.6168L200.653 64.3048C200.417 63.9788 199.965 63.8975 199.635 64.1274C199.167 64.4534 198.573 64.8334 197.85 65.1138C196.796 65.5435 195.472 65.7237 194.346 65.4951L194.344 65.4979L194.345 65.4951C193.222 65.2575 192.063 64.5985 191.205 63.8253C190.799 63.4685 190.461 63.0928 190.171 62.7422C193.288 62.7668 196.397 61.8534 198.987 60.1113C199.334 59.8779 199.403 59.3921 199.152 59.0577L198.913 58.7395C198.67 58.4163 198.217 58.3469 197.888 58.5817C197.039 59.1874 195.862 59.9438 194.416 60.4843C192.621 61.1825 190.44 61.5134 188.553 61.2792L188.551 61.282V61.2792C186.666 61.0311 184.639 60.1618 183.078 59.0346C181.815 58.1485 180.866 57.1201 180.197 56.3209C179.938 56.0111 179.482 55.9641 179.165 56.2158L178.853 56.4646C178.516 56.7338 178.484 57.2281 178.771 57.5505C181.212 60.2957 184.628 62.1218 188.273 62.6175C188.12 62.8859 188.145 63.2351 188.366 63.4818Z" fill="#5AA3CF"/>
<path d="M101.03 44.8389C101.364 44.548 101.374 44.03 101.05 43.7278L100.778 43.4748C100.484 43.2 100.028 43.2084 99.7463 43.4958C99.3965 43.8533 98.9444 44.2662 98.3675 44.6174C97.4877 45.1719 96.3212 45.5456 95.2774 45.507L95.2767 45.5098V45.507C94.2343 45.4453 93.1091 44.9616 92.2868 44.3251C91.7772 43.9437 91.386 43.5189 91.0797 43.1453C91.869 42.6062 92.5686 42.0832 93.1484 41.6122C93.4765 41.3458 93.5108 40.8614 93.2297 40.5459L93.0012 40.2886C92.6934 39.9423 92.2371 39.9171 91.9286 40.1793C83.5228 47.3317 71.616 50.2262 60.8646 47.7292C60.4706 47.6374 60.0759 47.8708 59.9757 48.2627L59.8761 48.6518C59.7717 49.0611 60.024 49.4761 60.4376 49.5624C62.2631 49.943 64.873 50.2802 67.7275 50.2283C71.0005 50.1968 74.5561 49.6696 77.5985 48.9027L77.6006 48.8992L77.6013 48.902C80.6563 48.187 84.0569 47.0233 86.9788 45.5491C87.8838 45.1025 88.7355 44.6258 89.5269 44.1456C89.5557 44.1947 89.5746 44.248 89.6153 44.2914C91.0678 45.8239 93.0916 46.7674 95.2115 46.874C97.3321 46.97 99.4379 46.2248 101.03 44.8389Z" fill="#5AA3CF"/>
</svg>
