<svg width="752" height="500" viewBox="0 0 752 500" fill="none" xmlns="http://www.w3.org/2000/svg">
<g style="mix-blend-mode:color-dodge" opacity="0.5" clip-path="url(#clip0_629_12322)" filter="url(#filter0_f_629_12322)">
<path d="M771 170H170V771H771V170Z" fill="black"/>
<path d="M771 170H170V771H771V170Z" fill="#907CFF" fill-opacity="0.387813"/>
<mask id="mask0_629_12322" style="mask-type:luminance" maskUnits="userSpaceOnUse" x="170" y="170" width="601" height="601">
<path d="M771 170H170V771H771V170Z" fill="white"/>
</mask>
<g mask="url(#mask0_629_12322)">
<g filter="url(#filter1_f_629_12322)">
<path d="M677.845 271.043H208.313V644.039H677.845V271.043Z" fill="#18A0FB"/>
<path d="M744.33 190.659H325.884V511.819H744.33V190.659Z" fill="#F2371F"/>
<path d="M911.483 225.593H447.962V577.553H911.483V225.593Z" fill="#EE46D3"/>
<path d="M707.143 459.231H377.72V772.502H707.143V459.231Z" fill="#00C5DF"/>
</g>
</g>
<g style="mix-blend-mode:overlay">
<path d="M771 170H170V771H771V170Z" fill="#808080"/>
</g>
</g>
<defs>
<filter id="filter0_f_629_12322" x="-0.00662231" y="-0.00662231" width="941.013" height="941.013" filterUnits="userSpaceOnUse" color-interpolation-filters="sRGB">
<feFlood flood-opacity="0" result="BackgroundImageFix"/>
<feBlend mode="normal" in="SourceGraphic" in2="BackgroundImageFix" result="shape"/>
<feGaussianBlur stdDeviation="85.0033" result="effect1_foregroundBlur_629_12322"/>
</filter>
<filter id="filter1_f_629_12322" x="20.501" y="2.84694" width="1078.79" height="957.468" filterUnits="userSpaceOnUse" color-interpolation-filters="sRGB">
<feFlood flood-opacity="0" result="BackgroundImageFix"/>
<feBlend mode="normal" in="SourceGraphic" in2="BackgroundImageFix" result="shape"/>
<feGaussianBlur stdDeviation="93.9062" result="effect1_foregroundBlur_629_12322"/>
</filter>
<clipPath id="clip0_629_12322">
<rect width="601" height="601" fill="white" transform="translate(170 170)"/>
</clipPath>
</defs>
</svg>
