<svg width="204" height="75" viewBox="0 0 204 75" fill="none" xmlns="http://www.w3.org/2000/svg">
<g filter="url(#filter0_d_862_3353)">
<rect x="12" y="21" width="180" height="38" rx="19" fill="url(#paint0_linear_862_3353)" shape-rendering="crispEdges"/>
<rect x="11" y="20" width="182" height="40" rx="20" stroke="white" stroke-opacity="0.1" stroke-width="2" shape-rendering="crispEdges"/>
<path d="M55.7667 40.6333L53.9134 41.56C53.7867 41.6267 53.6334 41.6 53.5267 41.5L52.28 40.2533C52.1467 40.12 52.1467 39.9133 52.28 39.78L53.5467 38.5133C53.6467 38.4133 53.8067 38.3867 53.9334 38.4533L55.7667 39.3733C56.2934 39.6267 56.2934 40.3733 55.7667 40.6333Z" fill="white"/>
<path d="M52.3667 37.66C52.5734 37.76 52.6134 38.0333 52.4534 38.1933L50.8667 39.78C50.7334 39.9133 50.5267 39.9133 50.3934 39.78L45.6334 35.02C45.3667 34.7533 45.68 34.32 46.02 34.4867L52.3667 37.66Z" fill="white"/>
<path d="M42.8334 45.4333V34.32C42.8334 34.0267 43.1867 33.8733 43.4 34.08L49.2467 39.7533C49.3867 39.8867 49.38 40.1067 49.24 40.24L43.3934 45.68C43.18 45.88 42.8334 45.7267 42.8334 45.4333Z" fill="white"/>
<path d="M52.3467 42.3467L46.0867 45.48C45.7467 45.6467 45.4334 45.2133 45.7 44.9467L50.4 40.2467C50.5334 40.1133 50.74 40.1133 50.8734 40.2467L52.44 41.8133C52.5934 41.9733 52.5467 42.2467 52.3467 42.3467Z" fill="white"/>
<path fill-rule="evenodd" clip-rule="evenodd" d="M74.2334 44.7734C74.6267 44.1734 74.7734 43.8667 75.0734 43.1934C72.86 42.3534 72.5067 39.2 74.6934 37.9934C74.0267 37.1534 73.0867 36.6667 72.2 36.6667C71.56 36.6667 71.12 36.8334 70.7267 36.9867C70.3934 37.1134 70.0934 37.2267 69.72 37.2267C69.32 37.2267 68.9667 37.1 68.5934 36.9667C68.1867 36.82 67.76 36.6667 67.2267 36.6667C66.2334 36.6667 65.1734 37.2734 64.5 38.3134C63.5534 39.78 63.72 42.5267 65.2467 44.8734C65.7934 45.7134 66.5267 46.6534 67.48 46.6667C67.88 46.6734 68.14 46.5534 68.4267 46.4267C68.7534 46.2801 69.1067 46.12 69.7267 46.12C70.3467 46.1134 70.6934 46.2801 71.02 46.4267C71.3 46.5534 71.5534 46.6734 71.9467 46.6667C72.9134 46.6534 73.6867 45.6134 74.2334 44.7734Z" fill="white"/>
<path fill-rule="evenodd" clip-rule="evenodd" d="M72.06 33.3334C72.1667 34.0667 71.8667 34.7934 71.4734 35.3C71.0534 35.8467 70.32 36.2734 69.6134 36.2467C69.4867 35.54 69.8134 34.8134 70.2134 34.3267C70.66 33.7934 71.4134 33.38 72.06 33.3334Z" fill="white"/>
<path d="M85.266 44.112C84.9767 44.112 84.7713 44.0187 84.65 43.832C84.5287 43.6453 84.4913 43.3887 84.538 43.062L85.196 38.918L85.392 39.996L82.802 35.292C82.6807 35.068 82.6293 34.8627 82.648 34.676C82.676 34.48 82.76 34.3213 82.9 34.2C83.0493 34.0787 83.2453 34.018 83.488 34.018C83.7027 34.018 83.8753 34.0693 84.006 34.172C84.146 34.2653 84.286 34.438 84.426 34.69L86.302 38.162H85.91L89.004 34.578C89.1907 34.3633 89.354 34.2187 89.494 34.144C89.634 34.06 89.8067 34.018 90.012 34.018C90.2453 34.018 90.4273 34.0833 90.558 34.214C90.698 34.3447 90.768 34.508 90.768 34.704C90.768 34.9 90.684 35.096 90.516 35.292L86.428 39.996L86.988 38.918L86.302 43.216C86.2087 43.8133 85.8633 44.112 85.266 44.112ZM92.0556 44.14C91.5702 44.14 91.1549 44.0373 90.8096 43.832C90.4642 43.6267 90.2169 43.3093 90.0676 42.88C89.9276 42.4507 89.9089 41.9047 90.0116 41.242L90.5576 37.854C90.6042 37.574 90.7069 37.3687 90.8656 37.238C91.0242 37.1073 91.2389 37.042 91.5096 37.042C91.7989 37.042 92.0089 37.126 92.1396 37.294C92.2796 37.4527 92.3262 37.6907 92.2796 38.008L91.7756 41.228C91.7009 41.7413 91.7382 42.124 91.8876 42.376C92.0462 42.628 92.3356 42.754 92.7556 42.754C93.2782 42.754 93.7029 42.5813 94.0296 42.236C94.3562 41.8907 94.5662 41.4193 94.6596 40.822L95.1216 37.854C95.1682 37.574 95.2709 37.3687 95.4296 37.238C95.5882 37.1073 95.8029 37.042 96.0736 37.042C96.3722 37.042 96.5869 37.126 96.7176 37.294C96.8482 37.462 96.8902 37.7047 96.8436 38.022L96.0176 43.286C95.9336 43.8367 95.6162 44.112 95.0656 44.112C94.7949 44.112 94.5942 44.0373 94.4636 43.888C94.3329 43.7387 94.2862 43.51 94.3236 43.202L94.4636 42.194L94.5616 42.572C94.3189 43.0853 93.9782 43.4773 93.5396 43.748C93.1102 44.0093 92.6156 44.14 92.0556 44.14ZM98.721 44.112C98.4503 44.112 98.2497 44.0233 98.119 43.846C97.9977 43.6687 97.9603 43.4213 98.007 43.104L99.309 34.858C99.3557 34.5687 99.463 34.3587 99.631 34.228C99.799 34.088 100.028 34.018 100.317 34.018C100.588 34.018 100.784 34.1113 100.905 34.298C101.036 34.4753 101.078 34.7273 101.031 35.054L100.233 40.066H100.261L102.991 37.56C103.178 37.3827 103.341 37.252 103.481 37.168C103.63 37.084 103.808 37.042 104.013 37.042C104.246 37.042 104.414 37.1073 104.517 37.238C104.629 37.3687 104.671 37.532 104.643 37.728C104.624 37.9147 104.526 38.092 104.349 38.26L101.605 40.836V40.08L103.831 42.88C103.98 43.0667 104.046 43.258 104.027 43.454C104.018 43.6407 103.948 43.7993 103.817 43.93C103.686 44.0513 103.509 44.112 103.285 44.112C103.042 44.112 102.851 44.0607 102.711 43.958C102.58 43.846 102.422 43.678 102.235 43.454L100.135 40.878H100.107L99.729 43.272C99.645 43.832 99.309 44.112 98.721 44.112ZM107.893 44.14C107.118 44.14 106.558 43.9207 106.213 43.482C105.868 43.034 105.76 42.3853 105.891 41.536L106.955 34.886C107.002 34.5967 107.109 34.382 107.277 34.242C107.445 34.0927 107.674 34.018 107.963 34.018C108.234 34.018 108.43 34.1067 108.551 34.284C108.682 34.4613 108.724 34.7133 108.677 35.04L107.641 41.522C107.576 41.9327 107.608 42.236 107.739 42.432C107.879 42.6187 108.103 42.712 108.411 42.712C108.514 42.712 108.598 42.7073 108.663 42.698C108.728 42.6793 108.789 42.67 108.845 42.67C108.938 42.67 109.013 42.7027 109.069 42.768C109.125 42.8333 109.153 42.9593 109.153 43.146C109.153 43.4167 109.097 43.6267 108.985 43.776C108.873 43.916 108.738 44.0093 108.579 44.056C108.495 44.084 108.388 44.1027 108.257 44.112C108.126 44.1307 108.005 44.14 107.893 44.14ZM112.448 44.14C112.028 44.14 111.645 44.0467 111.3 43.86C110.954 43.664 110.674 43.4073 110.46 43.09C110.254 42.7727 110.152 42.418 110.152 42.026C110.152 41.5407 110.287 41.1487 110.558 40.85C110.828 40.542 111.248 40.3133 111.818 40.164C112.387 40.0147 113.115 39.94 114.002 39.94H115.122L114.968 40.948H114.086C113.535 40.948 113.096 40.976 112.77 41.032C112.443 41.088 112.21 41.186 112.07 41.326C111.93 41.466 111.86 41.662 111.86 41.914C111.86 42.2407 111.967 42.4927 112.182 42.67C112.406 42.8473 112.676 42.936 112.994 42.936C113.292 42.936 113.563 42.8753 113.806 42.754C114.048 42.6233 114.254 42.4413 114.422 42.208C114.59 41.9653 114.697 41.6807 114.744 41.354L115.01 39.688C115.084 39.2493 115.014 38.9133 114.8 38.68C114.594 38.4467 114.23 38.33 113.708 38.33C113.4 38.33 113.101 38.3627 112.812 38.428C112.522 38.484 112.224 38.582 111.916 38.722C111.738 38.7967 111.58 38.82 111.44 38.792C111.3 38.764 111.183 38.7033 111.09 38.61C111.006 38.5073 110.959 38.3907 110.95 38.26C110.94 38.12 110.978 37.9847 111.062 37.854C111.155 37.7233 111.304 37.6113 111.51 37.518C111.902 37.3407 112.308 37.2147 112.728 37.14C113.157 37.056 113.558 37.014 113.932 37.014C114.669 37.014 115.248 37.1493 115.668 37.42C116.088 37.6907 116.372 38.0593 116.522 38.526C116.671 38.9927 116.699 39.5247 116.606 40.122L116.116 43.244C116.078 43.5333 115.976 43.7527 115.808 43.902C115.649 44.042 115.434 44.112 115.164 44.112C114.912 44.112 114.72 44.0327 114.59 43.874C114.468 43.706 114.431 43.4633 114.478 43.146L114.618 42.264L114.716 42.544C114.585 42.908 114.398 43.2113 114.156 43.454C113.922 43.6873 113.656 43.86 113.358 43.972C113.068 44.084 112.765 44.14 112.448 44.14ZM121.994 44.14C121.471 44.14 121.004 44.014 120.594 43.762C120.192 43.51 119.912 43.1367 119.754 42.642L119.88 42.292L119.74 43.23C119.702 43.5193 119.604 43.7387 119.446 43.888C119.296 44.0373 119.077 44.112 118.788 44.112C118.517 44.112 118.312 44.0233 118.172 43.846C118.041 43.6593 117.999 43.4073 118.046 43.09L119.348 34.9C119.394 34.6107 119.502 34.3913 119.67 34.242C119.838 34.0927 120.066 34.018 120.356 34.018C120.626 34.018 120.827 34.1067 120.958 34.284C121.088 34.4613 121.13 34.7133 121.084 35.04L120.538 38.442H120.398C120.65 37.994 120.986 37.644 121.406 37.392C121.826 37.14 122.306 37.014 122.848 37.014C123.37 37.014 123.823 37.1353 124.206 37.378C124.598 37.6113 124.901 37.952 125.116 38.4C125.33 38.8387 125.438 39.3613 125.438 39.968C125.438 40.7427 125.298 41.4473 125.018 42.082C124.747 42.7073 124.355 43.2067 123.842 43.58C123.328 43.9533 122.712 44.14 121.994 44.14ZM121.672 42.81C122.101 42.81 122.46 42.6887 122.75 42.446C123.048 42.2033 123.277 41.872 123.436 41.452C123.594 41.032 123.674 40.5653 123.674 40.052C123.674 39.5013 123.538 39.0813 123.268 38.792C123.006 38.4933 122.642 38.344 122.176 38.344C121.756 38.344 121.396 38.4653 121.098 38.708C120.799 38.9507 120.57 39.282 120.412 39.702C120.253 40.1127 120.174 40.5793 120.174 41.102C120.174 41.6527 120.304 42.0773 120.566 42.376C120.836 42.6653 121.205 42.81 121.672 42.81ZM133.755 44.14C133.083 44.14 132.504 44.014 132.019 43.762C131.543 43.51 131.174 43.1507 130.913 42.684C130.661 42.2173 130.535 41.6713 130.535 41.046C130.535 40.43 130.633 39.8747 130.829 39.38C131.025 38.8853 131.296 38.4607 131.641 38.106C131.996 37.7513 132.402 37.4807 132.859 37.294C133.316 37.1073 133.811 37.014 134.343 37.014C135.015 37.014 135.589 37.14 136.065 37.392C136.55 37.644 136.919 38.0033 137.171 38.47C137.432 38.9273 137.563 39.4733 137.563 40.108C137.563 40.724 137.465 41.2793 137.269 41.774C137.073 42.2687 136.798 42.6933 136.443 43.048C136.098 43.4027 135.696 43.6733 135.239 43.86C134.782 44.0467 134.287 44.14 133.755 44.14ZM133.797 42.81C134.226 42.81 134.586 42.6887 134.875 42.446C135.174 42.2033 135.402 41.872 135.561 41.452C135.72 41.032 135.799 40.5653 135.799 40.052C135.799 39.5013 135.664 39.0813 135.393 38.792C135.132 38.4933 134.768 38.344 134.301 38.344C133.881 38.344 133.522 38.4653 133.223 38.708C132.924 38.9507 132.696 39.282 132.537 39.702C132.378 40.1127 132.299 40.5793 132.299 41.102C132.299 41.6527 132.43 42.0773 132.691 42.376C132.962 42.6653 133.33 42.81 133.797 42.81ZM140.982 44.14C140.207 44.14 139.647 43.9207 139.302 43.482C138.956 43.034 138.849 42.3853 138.98 41.536L140.044 34.886C140.09 34.5967 140.198 34.382 140.366 34.242C140.534 34.0927 140.762 34.018 141.052 34.018C141.322 34.018 141.518 34.1067 141.64 34.284C141.77 34.4613 141.812 34.7133 141.766 35.04L140.73 41.522C140.664 41.9327 140.697 42.236 140.828 42.432C140.968 42.6187 141.192 42.712 141.5 42.712C141.602 42.712 141.686 42.7073 141.752 42.698C141.817 42.6793 141.878 42.67 141.934 42.67C142.027 42.67 142.102 42.7027 142.158 42.768C142.214 42.8333 142.242 42.9593 142.242 43.146C142.242 43.4167 142.186 43.6267 142.074 43.776C141.962 43.916 141.826 44.0093 141.668 44.056C141.584 44.084 141.476 44.1027 141.346 44.112C141.215 44.1307 141.094 44.14 140.982 44.14ZM144.052 44.112C143.782 44.112 143.581 44.0233 143.45 43.846C143.329 43.6593 143.292 43.4073 143.338 43.09L144.164 37.91C144.211 37.6207 144.318 37.406 144.486 37.266C144.654 37.1167 144.883 37.042 145.172 37.042C145.443 37.042 145.639 37.1307 145.76 37.308C145.891 37.4853 145.933 37.7373 145.886 38.064L145.06 43.244C145.014 43.5333 144.906 43.7527 144.738 43.902C144.58 44.042 144.351 44.112 144.052 44.112ZM145.396 35.754C145.079 35.754 144.841 35.6793 144.682 35.53C144.533 35.3713 144.472 35.152 144.5 34.872C144.538 34.5547 144.659 34.3167 144.864 34.158C145.07 33.99 145.345 33.906 145.69 33.906C146.008 33.906 146.246 33.9853 146.404 34.144C146.563 34.2933 146.624 34.508 146.586 34.788C146.549 35.1053 146.428 35.348 146.222 35.516C146.026 35.6747 145.751 35.754 145.396 35.754ZM149.707 44.14C149.268 44.14 148.839 44.0933 148.419 44C148.008 43.916 147.649 43.7993 147.341 43.65C147.163 43.566 147.037 43.4587 146.963 43.328C146.897 43.188 146.869 43.0527 146.879 42.922C146.897 42.782 146.944 42.6653 147.019 42.572C147.103 42.4693 147.21 42.404 147.341 42.376C147.481 42.348 147.635 42.376 147.803 42.46C148.101 42.6093 148.414 42.7213 148.741 42.796C149.067 42.8707 149.389 42.908 149.707 42.908C150.145 42.908 150.481 42.8287 150.715 42.67C150.948 42.502 151.065 42.2827 151.065 42.012C151.065 41.8253 150.999 41.6713 150.869 41.55C150.738 41.4287 150.547 41.3447 150.295 41.298L149.007 41.032C148.493 40.9293 148.092 40.7287 147.803 40.43C147.523 40.122 147.383 39.7393 147.383 39.282C147.383 38.862 147.499 38.484 147.733 38.148C147.975 37.8027 148.325 37.5273 148.783 37.322C149.249 37.1167 149.809 37.014 150.463 37.014C150.799 37.014 151.158 37.0607 151.541 37.154C151.933 37.238 152.269 37.364 152.549 37.532C152.707 37.6253 152.819 37.742 152.885 37.882C152.95 38.0127 152.969 38.1433 152.941 38.274C152.922 38.3953 152.871 38.5027 152.787 38.596C152.703 38.68 152.591 38.7313 152.451 38.75C152.311 38.7687 152.157 38.7313 151.989 38.638C151.755 38.5073 151.499 38.4093 151.219 38.344C150.939 38.2787 150.659 38.246 150.379 38.246C149.921 38.246 149.571 38.3347 149.329 38.512C149.086 38.68 148.965 38.904 148.965 39.184C148.965 39.352 149.016 39.4967 149.119 39.618C149.231 39.7393 149.403 39.8233 149.637 39.87L150.925 40.136C151.485 40.2573 151.909 40.4673 152.199 40.766C152.497 41.0553 152.647 41.4287 152.647 41.886C152.647 42.6047 152.376 43.16 151.835 43.552C151.303 43.944 150.593 44.14 149.707 44.14ZM154.751 44.112C154.48 44.112 154.279 44.0187 154.149 43.832C154.027 43.636 153.99 43.3793 154.037 43.062L155.325 34.9C155.371 34.6107 155.479 34.3913 155.647 34.242C155.815 34.0927 156.043 34.018 156.333 34.018C156.603 34.018 156.804 34.1067 156.935 34.284C157.065 34.452 157.107 34.6993 157.061 35.026L156.501 38.54H156.347C156.58 38.0453 156.911 37.6673 157.341 37.406C157.779 37.1447 158.293 37.014 158.881 37.014C159.385 37.014 159.805 37.1167 160.141 37.322C160.486 37.5273 160.729 37.8447 160.869 38.274C161.018 38.694 161.041 39.2353 160.939 39.898L160.421 43.23C160.383 43.5193 160.276 43.7387 160.099 43.888C159.931 44.0373 159.702 44.112 159.413 44.112C159.142 44.112 158.941 44.0233 158.811 43.846C158.68 43.6593 158.638 43.4073 158.685 43.09L159.189 39.926C159.273 39.4127 159.231 39.03 159.063 38.778C158.904 38.5167 158.61 38.386 158.181 38.386C157.63 38.386 157.187 38.5587 156.851 38.904C156.524 39.2493 156.314 39.7207 156.221 40.318L155.759 43.23C155.675 43.818 155.339 44.112 154.751 44.112Z" fill="white"/>
<g style="mix-blend-mode:screen" opacity="0.49">
<path d="M171.121 25.5274C178.622 24.9365 185.123 31.9365 186.123 36.9367M165.121 25.5274L163.198 25.5274" stroke="white" stroke-width="4" stroke-linecap="round"/>
</g>
<g opacity="0.5">
<path d="M22.2762 30.4346C23.0856 29.8947 24.737 29.7839 25.4994 30.5299C26.1986 31.4825 24.5939 32.1331 23.8636 33.6095C23.1334 35.0858 20.6572 35.1335 20.546 33.419C20.4349 31.7045 21.4668 30.9745 22.2762 30.4346Z" fill="white"/>
<path d="M19.6036 38.8842C18.7784 38.9636 18.0159 38.4079 18 37.2332C18.1106 35.5822 19.9849 35.5187 20.5406 36.5347C21.0962 37.5507 20.4289 38.8048 19.6036 38.8842Z" fill="white"/>
</g>
</g>
<defs>
<filter id="filter0_d_862_3353" x="-14" y="0" width="232" height="90" filterUnits="userSpaceOnUse" color-interpolation-filters="sRGB">
<feFlood flood-opacity="0" result="BackgroundImageFix"/>
<feColorMatrix in="SourceAlpha" type="matrix" values="0 0 0 0 0 0 0 0 0 0 0 0 0 0 0 0 0 0 127 0" result="hardAlpha"/>
<feOffset dy="5"/>
<feGaussianBlur stdDeviation="12"/>
<feComposite in2="hardAlpha" operator="out"/>
<feColorMatrix type="matrix" values="0 0 0 0 0.647059 0 0 0 0 0.501961 0 0 0 0 0.913725 0 0 0 0.4 0"/>
<feBlend mode="normal" in2="BackgroundImageFix" result="effect1_dropShadow_862_3353"/>
<feBlend mode="normal" in="SourceGraphic" in2="effect1_dropShadow_862_3353" result="shape"/>
</filter>
<linearGradient id="paint0_linear_862_3353" x1="12" y1="40" x2="192" y2="40" gradientUnits="userSpaceOnUse">
<stop stop-color="#A580E9"/>
<stop offset="1" stop-color="#E07FAF"/>
</linearGradient>
</defs>
</svg>
