<svg width="24" height="25" viewBox="0 0 24 25" fill="none" xmlns="http://www.w3.org/2000/svg">
<path d="M22 16.3594C22 19.9994 19.83 22.1694 16.19 22.1694H15C14.45 22.1694 14 21.7194 14 21.1694V15.3994C14 15.1294 14.22 14.8994 14.49 14.8994L16.25 14.8694C16.39 14.8594 16.51 14.7594 16.54 14.6194L16.89 12.7094C16.92 12.5294 16.78 12.3594 16.59 12.3594L14.46 12.3894C14.18 12.3894 13.96 12.1694 13.95 11.8994L13.91 9.44943C13.91 9.28943 14.04 9.14944 14.21 9.14944L16.61 9.10944C16.78 9.10944 16.91 8.97945 16.91 8.80945L16.87 6.40942C16.87 6.23942 16.74 6.10944 16.57 6.10944L13.87 6.14944C12.21 6.17944 10.89 7.53943 10.92 9.19943L10.97 11.9494C10.98 12.2294 10.76 12.4494 10.48 12.4594L9.28 12.4794C9.11 12.4794 8.98001 12.6094 8.98001 12.7794L9.01001 14.6794C9.01001 14.8494 9.14 14.9794 9.31 14.9794L10.51 14.9594C10.79 14.9594 11.01 15.1794 11.02 15.4494L11.11 21.1494C11.12 21.7094 10.67 22.1694 10.11 22.1694H7.81C4.17 22.1694 2 19.9994 2 16.3494V7.97943C2 4.33943 4.17 2.16943 7.81 2.16943H16.19C19.83 2.16943 22 4.33943 22 7.97943V16.3594Z" fill="white" fillOpacity="0.6"/>
</svg>
