<svg width="24" height="25" viewBox="0 0 24 25" fill="none" xmlns="http://www.w3.org/2000/svg">
<path d="M12 2.16943C14.717 2.16943 15.056 2.17943 16.122 2.22943C17.187 2.27943 17.912 2.44643 18.55 2.69443C19.21 2.94843 19.766 3.29243 20.322 3.84743C20.8305 4.34733 21.224 4.95202 21.475 5.61943C21.722 6.25643 21.89 6.98243 21.94 8.04743C21.987 9.11343 22 9.45243 22 12.1694C22 14.8864 21.99 15.2254 21.94 16.2914C21.89 17.3564 21.722 18.0814 21.475 18.7194C21.2247 19.3872 20.8311 19.9921 20.322 20.4914C19.822 20.9998 19.2173 21.3932 18.55 21.6444C17.913 21.8914 17.187 22.0594 16.122 22.1094C15.056 22.1564 14.717 22.1694 12 22.1694C9.283 22.1694 8.944 22.1594 7.878 22.1094C6.813 22.0594 6.088 21.8914 5.45 21.6444C4.78233 21.3939 4.17753 21.0004 3.678 20.4914C3.16941 19.9916 2.77593 19.3869 2.525 18.7194C2.277 18.0824 2.11 17.3564 2.06 16.2914C2.013 15.2254 2 14.8864 2 12.1694C2 9.45243 2.01 9.11343 2.06 8.04743C2.11 6.98143 2.277 6.25743 2.525 5.61943C2.77524 4.95161 3.1688 4.34675 3.678 3.84743C4.17767 3.33866 4.78243 2.94516 5.45 2.69443C6.088 2.44643 6.812 2.27943 7.878 2.22943C8.944 2.18243 9.283 2.16943 12 2.16943ZM12 7.16943C10.6739 7.16943 9.40215 7.69622 8.46447 8.6339C7.52678 9.57158 7 10.8434 7 12.1694C7 13.4955 7.52678 14.7673 8.46447 15.705C9.40215 16.6426 10.6739 17.1694 12 17.1694C13.3261 17.1694 14.5979 16.6426 15.5355 15.705C16.4732 14.7673 17 13.4955 17 12.1694C17 10.8434 16.4732 9.57158 15.5355 8.6339C14.5979 7.69622 13.3261 7.16943 12 7.16943ZM18.5 6.91943C18.5 6.58791 18.3683 6.26997 18.1339 6.03555C17.8995 5.80113 17.5815 5.66943 17.25 5.66943C16.9185 5.66943 16.6005 5.80113 16.3661 6.03555C16.1317 6.26997 16 6.58791 16 6.91943C16 7.25095 16.1317 7.5689 16.3661 7.80332C16.6005 8.03774 16.9185 8.16943 17.25 8.16943C17.5815 8.16943 17.8995 8.03774 18.1339 7.80332C18.3683 7.5689 18.5 7.25095 18.5 6.91943ZM12 9.16943C12.7956 9.16943 13.5587 9.4855 14.1213 10.0481C14.6839 10.6107 15 11.3738 15 12.1694C15 12.9651 14.6839 13.7281 14.1213 14.2908C13.5587 14.8534 12.7956 15.1694 12 15.1694C11.2044 15.1694 10.4413 14.8534 9.87868 14.2908C9.31607 13.7281 9 12.9651 9 12.1694C9 11.3738 9.31607 10.6107 9.87868 10.0481C10.4413 9.4855 11.2044 9.16943 12 9.16943Z" fill="white" fill-opacity="0.6"/>
</svg>
