<svg width="24" height="25" viewBox="0 0 24 25" fill="none" xmlns="http://www.w3.org/2000/svg">
<path d="M12 22.1694C6.477 22.1694 2 17.6924 2 12.1694C2 6.64643 6.477 2.16943 12 2.16943C17.523 2.16943 22 6.64643 22 12.1694C22 17.6924 17.523 22.1694 12 22.1694ZM8.89 13.3394L8.903 13.3324L9.773 16.2024C9.885 16.5134 10.039 16.5694 10.226 16.5434C10.414 16.5184 10.513 16.4174 10.636 16.2994L11.824 15.1514L14.374 17.0394C14.84 17.2964 15.175 17.1634 15.291 16.6074L16.948 8.78543C17.131 8.05743 16.811 7.76543 16.246 7.99743L6.513 11.7574C5.849 12.0234 5.853 12.3954 6.393 12.5604L8.89 13.3404V13.3394Z" fill="white" fillOpacity="0.6"/>
</svg>
