<svg xmlns="http://www.w3.org/2000/svg" width="118" height="76" viewBox="0 0 118 76" fill="none">
  <path d="M24.524 34.5854C26.027 35.3774 27.663 35.8774 29.245 36.3614C29.754 36.5174 30.264 36.6724 30.769 36.8374C30.81 36.8514 30.853 36.8574 30.895 36.8574C30.996 36.8574 31.095 36.8194 31.171 36.7494C33.022 35.0354 34.652 33.1864 36.3 30.9304C36.957 30.0304 37.616 29.0564 37.833 27.9204C38.086 26.6624 37.788 25.2124 36.971 23.7294C36.523 22.9094 36.065 22.3454 35.527 21.9534C34.238 21.0314 32.345 21.0584 30.819 22.0204C29.76 22.6814 28.892 23.7194 28.176 25.1844C26.838 23.9794 24.877 23.0414 22.94 23.6684C20.55 24.4434 19.54 27.3294 20.096 29.5414C20.791 32.2584 23.168 33.8674 24.524 34.5854ZM23.19 24.4414C23.524 24.3334 23.862 24.2854 24.199 24.2854C25.674 24.2854 27.115 25.2164 28.011 26.1554C28.105 26.2534 28.241 26.2994 28.376 26.2744C28.51 26.2504 28.623 26.1614 28.677 26.0364C29.37 24.4454 30.211 23.3574 31.251 22.7084C32.483 21.9324 34.047 21.8944 35.052 22.6124C35.487 22.9284 35.871 23.4074 36.259 24.1204C36.764 25.0364 37.309 26.4124 37.037 27.7644C36.851 28.7394 36.273 29.5924 35.646 30.4524C34.081 32.5934 32.535 34.3604 30.795 35.9914C30.359 35.8514 29.922 35.7174 29.484 35.5844C27.938 35.1124 26.34 34.6234 24.905 33.8664C23.668 33.2114 21.502 31.7534 20.884 29.3414C20.426 27.5254 21.261 25.0664 23.19 24.4414ZM117.398 16.1204C117.733 13.2574 116.8 10.1364 114.887 7.75543C113.14 5.58143 110.802 4.25643 108.303 4.02443C104.813 3.70043 101.096 5.24542 97.249 8.62442C96.8 9.01842 96.359 9.42543 95.918 9.83243C94.696 10.9604 93.431 12.1264 92.002 12.9854C90.16 14.0974 88.19 14.5214 86.543 14.1834C86.305 12.5594 85.489 11.0554 84.784 9.91243C83.943 8.54043 82.875 6.98943 81.339 5.89743C81.25 5.83243 81.159 5.77443 81.068 5.71443C80.466 3.80243 79.383 1.24343 76.932 0.343428C75.597 -0.143572 74.13 -0.00358118 72.952 0.109419C67.581 0.634419 62.251 1.35843 57.118 2.25743C56.61 2.07543 56.083 1.91543 55.508 1.77643H55.506C51.966 0.559426 48.315 1.17243 45.873 1.90343C43.502 2.60843 41.312 3.67842 39.456 4.65242C37.77 3.97242 35.927 3.49643 33.969 3.24643H33.967C31.76 2.82243 29.358 2.68842 26.823 2.84642C24.204 3.01542 22.163 3.43243 20.398 4.16043C15.371 6.24243 12.147 11.0844 10.162 14.5414C9.85397 15.0674 9.56297 15.6094 9.27597 16.1564C6.46597 17.0184 3.07497 18.4104 1.32097 21.5094C-0.0470341 23.9354 -0.0610347 26.8594 0.0339653 29.4094C0.459965 40.9704 2.80897 52.2764 7.01497 63.0114C8.10997 65.8214 9.46697 68.6234 11.925 70.1454C12.979 71.6154 14.079 72.7194 15.285 73.5114C17.617 75.0554 20.381 75.5234 23.247 75.5234C24.722 75.5234 26.224 75.3994 27.707 75.2334C47.032 73.0944 65.443 66.9624 82.459 60.6534C85.594 59.4964 88.559 58.2504 90.372 55.7504C92.892 52.2734 92.314 47.5874 91.803 43.4544L91.665 42.3134C91.27 38.9064 91.231 32.8564 95.409 30.6224C96.87 29.8394 98.619 29.6954 100.144 29.6224C100.654 29.5974 101.171 29.5764 101.69 29.5554C106.185 29.3754 110.834 29.1884 114.253 26.3094C117.061 23.9364 118.319 19.8514 117.398 16.1204ZM80.865 6.55542C82.286 7.56542 83.294 9.03342 84.093 10.3364C84.797 11.4784 85.625 12.9904 85.782 14.5724C85.812 14.8344 85.819 15.1044 85.804 15.3744C85.759 16.2334 85.5 17.0604 85.226 17.9364C85.124 18.2604 85.023 18.5854 84.933 18.9094C83.736 23.1424 84.359 27.6044 84.961 31.9194C85.059 32.6194 85.156 33.3174 85.246 34.0124C85.305 34.4594 85.365 34.9844 85.365 35.4784C85.365 36.0494 85.287 36.5204 85.126 36.9194C84.88 37.5304 84.435 38.0354 83.794 38.4484C84.357 37.4344 84.488 36.2654 84.528 35.4074C84.626 33.1754 84.267 30.9184 83.919 28.7364C83.408 25.5264 82.925 22.4944 83.766 19.5274C83.875 19.1354 84.006 18.7504 84.137 18.3654C84.377 17.6594 84.626 16.9284 84.735 16.1634C84.882 15.1714 84.808 14.0974 84.508 12.8794C84.005 10.8324 82.927 8.87743 81.473 7.37343C80.913 6.79343 80.296 6.29642 79.651 5.86642C79.943 5.99342 80.231 6.14443 80.511 6.31943C80.632 6.39243 80.746 6.46742 80.865 6.55542ZM42.65 7.31442C43.194 7.70242 43.715 8.10842 44.185 8.55142C47.491 11.6514 49.002 16.3604 47.953 20.2474L47.906 20.4054C47.774 20.8834 47.607 21.3514 47.442 21.8184C47.205 22.4884 46.959 23.1814 46.812 23.8984C46.353 26.0694 46.716 28.4814 47.95 31.4774C48.033 31.6984 48.121 31.9074 48.211 32.1184L48.267 32.2514C48.491 32.7714 48.726 33.2894 48.961 33.8074C49.857 35.7874 50.784 37.8344 51.106 39.9814C51.321 41.4204 51.206 42.6574 50.764 43.6534C50.492 44.2554 50.102 44.7974 49.583 45.2964C50.483 43.1484 49.967 40.6834 49.378 38.7304C48.917 37.2084 48.362 35.6934 47.825 34.2284C46.923 31.7684 45.99 29.2244 45.506 26.6284C45.325 25.6764 45.153 24.4394 45.437 23.3144C45.571 22.7614 45.808 22.2434 46.059 21.6954C46.198 21.3914 46.337 21.0874 46.458 20.7794C48.198 16.4424 46.56 10.8344 42.65 7.31442ZM48.607 20.8834C49.727 20.7494 50.884 21.0444 51.746 21.7044C51.836 21.7734 51.953 21.8034 52.063 21.7814C52.175 21.7614 52.274 21.6964 52.335 21.6004C53.2 20.2454 54.526 19.1984 56.064 18.6544C56.755 18.4184 57.36 18.3294 57.91 18.3824C59.885 18.5644 61.107 20.6674 61.107 22.5104C61.107 22.6784 61.1 22.8384 61.077 23.0054C60.888 24.5714 60.02 25.9824 59.071 27.4104C58.006 29.0044 56.705 30.8574 55.127 32.5214C54.946 32.7094 54.794 32.8564 54.641 32.8914C54.49 32.9214 54.289 32.8684 54.098 32.8114C52.313 32.2774 50.477 31.6694 48.639 31.0094C47.522 28.2404 47.19 26.0274 47.605 24.0614C47.742 23.3964 47.967 22.7604 48.205 22.0864C48.35 21.6854 48.487 21.2824 48.607 20.8834ZM49.46 46.4624C53.159 45.6044 56.926 44.5424 60.66 43.3034C62.199 42.7864 63.556 42.2724 64.569 41.2014C65.785 39.9334 66.353 38.0084 66.258 35.4764C66.161 33.2184 65.642 30.9454 65.141 28.7464C64.668 26.6734 64.179 24.5294 64.073 22.4754C63.986 20.7624 64.17 19.2604 64.636 17.8844C64.716 17.6534 64.804 17.4234 64.892 17.1924C65.169 16.4684 65.456 15.7194 65.502 14.9034C65.548 13.9484 65.258 13.0474 64.983 12.2754C64.254 10.2684 62.768 7.06443 60.123 4.59743C61.519 5.46343 62.794 6.52743 63.891 7.76843C64.699 8.68343 65.39 9.66143 65.943 10.6754C66.878 12.3844 67.271 13.8704 67.146 15.2184C67.072 15.9874 66.843 16.7214 66.599 17.4984C66.513 17.7754 66.426 18.0514 66.33 18.4064C65.361 21.9204 65.788 25.4934 66.395 28.8324C66.552 29.6794 66.723 30.5264 66.893 31.3694C67.014 31.9674 67.134 32.5634 67.249 33.1574C67.691 35.4214 68.073 38.0124 67.001 40.1164C66.533 41.0304 65.84 41.8004 64.881 42.4694C63.254 43.5984 61.127 44.2284 59.455 44.6514C56.116 45.5044 52.631 46.1974 49.081 46.7344C49.21 46.6454 49.34 46.5554 49.46 46.4624ZM69.347 20.5874C69.416 20.7124 69.546 20.7924 69.688 20.7964C69.831 20.8134 69.966 20.7314 70.043 20.6114C71.191 18.8394 73.115 17.5694 75.188 17.2164C76.034 17.0744 76.719 17.1124 77.282 17.3334C78.365 17.7524 79.144 18.9904 79.175 20.3434C79.202 21.5014 78.737 22.7754 77.83 24.0294C77.25 24.8364 76.539 25.5744 75.851 26.2894C75.573 26.5774 75.296 26.8654 75.027 27.1574C74.013 28.2464 73.087 29.4084 72.266 30.6214C72.185 30.7354 72.101 30.8534 72.035 30.8774C71.978 30.8984 71.855 30.8714 71.664 30.7974C70.072 30.2074 68.561 29.4364 67.165 28.5114C66.608 25.4034 66.235 22.1004 67.048 18.9054C68.005 19.1164 68.883 19.7484 69.347 20.5874ZM67.725 40.4864C68.914 38.1514 68.514 35.3994 68.046 33.0034C67.931 32.4084 67.81 31.8094 67.689 31.2094C67.581 30.6754 67.478 30.1394 67.374 29.6044C68.636 30.3794 69.976 31.0394 71.376 31.5584C71.563 31.6304 71.772 31.6964 71.989 31.6964C72.096 31.6964 72.205 31.6804 72.314 31.6414C72.618 31.5274 72.789 31.2874 72.947 31.0654C73.736 29.8984 74.635 28.7694 75.622 27.7094C75.889 27.4204 76.162 27.1364 76.436 26.8524C77.144 26.1174 77.875 25.3574 78.488 24.5044C79.499 23.1074 80.017 21.6614 79.987 20.3244C79.948 18.6244 78.978 17.1184 77.577 16.5764C76.876 16.3004 76.05 16.2474 75.053 16.4154C72.959 16.7724 71.003 17.9734 69.713 19.6704C69.11 18.8954 68.224 18.3574 67.254 18.1374C67.295 18.0054 67.333 17.8724 67.375 17.7394C67.62 16.9564 67.872 16.1474 67.955 15.2934C68.096 13.7784 67.671 12.1394 66.656 10.2844C66.155 9.36642 65.543 8.48043 64.843 7.63843C68.523 5.88343 72.717 4.22142 76.642 5.33142L76.853 5.39642C76.86 5.39842 76.865 5.40143 76.872 5.40343C78.342 5.86042 79.731 6.73443 80.891 7.93443C82.246 9.33643 83.252 11.1604 83.722 13.0704C83.996 14.1844 84.065 15.1564 83.933 16.0434C83.834 16.7354 83.608 17.3984 83.37 18.1004C83.234 18.5004 83.098 18.9004 82.986 19.3044C82.097 22.4414 82.616 25.7044 83.118 28.8604C83.46 31.0034 83.812 33.2194 83.718 35.3674C83.65 36.8654 83.328 37.8964 82.706 38.6104C82.478 38.8684 82.221 39.0864 81.941 39.2584C81.146 39.7584 80.132 40.0084 79.163 40.2204C74.959 41.1284 70.672 41.8034 66.398 42.2544C66.942 41.7224 67.389 41.1414 67.725 40.4864ZM73.031 0.917417C74.128 0.813417 75.494 0.682421 76.654 1.10542C78.107 1.63942 79.187 2.93142 80.013 5.13742C79.029 4.70342 78.001 4.51642 77.032 4.60342C77.014 4.59842 76.998 4.59242 76.98 4.58642L76.881 4.55643C72.595 3.34243 68.15 5.14943 64.287 7.00343C62.673 5.24043 60.718 3.82142 58.56 2.84042C63.279 2.04742 68.135 1.39542 73.031 0.917417ZM46.106 2.68042C48.444 1.97942 51.932 1.38842 55.285 2.55542L55.499 2.63243C55.896 2.77843 56.239 2.92843 56.558 3.09543C61.032 5.28943 63.278 9.96243 64.218 12.5504C64.527 13.4144 64.725 14.1384 64.691 14.8604C64.652 15.5474 64.4 16.2044 64.133 16.9014C64.041 17.1404 63.95 17.3794 63.867 17.6214C63.367 19.0974 63.169 20.6994 63.261 22.5164C63.37 24.6414 63.868 26.8194 64.349 28.9264C64.842 31.0894 65.353 33.3264 65.447 35.5084C65.534 37.8094 65.042 39.5354 63.982 40.6404C63.096 41.5774 61.837 42.0514 60.404 42.5324C57.154 43.6114 53.88 44.5454 50.646 45.3364C50.998 44.9134 51.288 44.4624 51.505 43.9834C52.011 42.8414 52.147 41.4534 51.909 39.8594C51.57 37.6004 50.62 35.5014 49.7 33.4704C49.48 32.9834 49.26 32.4964 49.05 32.0104C50.673 32.5814 52.291 33.1174 53.868 33.5894C54.072 33.6504 54.302 33.7114 54.547 33.7114C54.635 33.7114 54.724 33.7034 54.815 33.6854C55.228 33.5914 55.51 33.2974 55.718 33.0814C57.349 31.3624 58.729 29.3884 59.75 27.8604C60.756 26.3474 61.676 24.8454 61.885 23.1094C61.912 22.9124 61.921 22.7154 61.921 22.5094C61.921 20.3094 60.417 17.7964 57.987 17.5724C57.322 17.5084 56.604 17.6104 55.799 17.8864C54.221 18.4444 52.848 19.4754 51.889 20.8124C50.99 20.2434 49.916 19.9944 48.827 20.0614C49.77 15.9034 48.2 11.1984 44.743 7.95743C43.531 6.81443 42.067 5.85442 40.408 5.07542C42.099 4.20642 44.032 3.29842 46.106 2.68042ZM9.91597 16.6794C10.222 16.0924 10.535 15.5144 10.866 14.9484C12.794 11.5904 15.912 6.89743 20.709 4.91043C22.389 4.21743 24.349 3.81943 26.876 3.65643C29.35 3.50143 31.695 3.63342 33.84 4.04742C35.688 4.41242 37.363 4.97342 38.825 5.71942C39.713 6.15542 40.551 6.67442 41.317 7.26242C45.548 10.4884 47.433 16.1684 45.702 20.4794C45.585 20.7764 45.452 21.0674 45.319 21.3564C45.063 21.9154 44.797 22.4944 44.647 23.1194C44.326 24.3944 44.51 25.7454 44.707 26.7784C45.204 29.4404 46.149 32.0164 47.062 34.5084C47.595 35.9624 48.147 37.4664 48.601 38.9664C49.189 40.9164 49.727 43.4094 48.657 45.3994C48.542 45.6134 48.404 45.8194 48.277 46.0044C48.098 46.2394 47.893 46.4644 47.639 46.7014C47.509 46.8314 47.372 46.9534 47.235 47.0684C46.253 47.8484 45.015 48.4114 43.825 48.9034C38.607 51.0274 33.135 52.5384 27.565 53.3944C25.957 53.6374 24.093 53.8744 22.328 53.5814C20.479 53.2844 18.905 52.4084 18.01 51.1764C17.295 50.1964 16.963 48.9484 16.636 47.7214L13.395 35.4954C13.055 34.2044 12.106 33.5244 11.269 32.9234C11.127 32.8214 10.986 32.7204 10.851 32.6184C8.50896 30.8564 7.23497 27.5824 7.52697 24.0724C7.70897 21.8154 8.46897 19.4664 9.91597 16.6794ZM12.808 69.7164C12.68 69.6494 12.552 69.5814 12.427 69.5034L12.423 69.5014L12.422 69.5004C10.12 68.1114 8.82697 65.4184 7.77297 62.7134C3.60097 52.0634 1.27096 40.8474 0.846965 29.3774C0.756965 26.9384 0.765966 24.1484 2.02997 21.9074C3.49397 19.3204 6.27097 18.0044 8.76497 17.1714C7.54897 19.6874 6.88997 21.8794 6.71496 24.0054C6.39996 27.7904 7.79796 31.3384 10.359 33.2664C10.499 33.3724 10.646 33.4774 10.794 33.5834C11.555 34.1294 12.343 34.6944 12.608 35.7024L15.855 47.9504C16.195 49.2284 16.548 50.5514 17.351 51.6534C18.386 53.0784 20.107 54.0474 22.195 54.3824C22.826 54.4864 23.463 54.5284 24.095 54.5284C25.346 54.5284 26.574 54.3644 27.685 54.1964C33.32 53.3314 38.852 51.8034 44.131 49.6534C45.337 49.1554 46.588 48.5794 47.637 47.7734C51.757 47.2094 55.802 46.4244 59.657 45.4394C61.364 45.0074 63.531 44.3604 65.252 43.1974C69.961 42.7504 74.699 42.0174 79.336 41.0154C80.355 40.7914 81.421 40.5234 82.313 39.9794C84.19 39.4214 85.359 38.5184 85.881 37.2204C86.081 36.7234 86.179 36.1534 86.179 35.4764C86.179 34.9354 86.116 34.3774 86.054 33.9054C85.964 33.2084 85.866 32.5074 85.768 31.8054C85.177 27.5734 84.567 23.1974 85.718 19.1274C85.806 18.8104 85.905 18.4944 86.004 18.1784C86.281 17.2934 86.568 16.3784 86.618 15.4184C86.626 15.2834 86.609 15.1534 86.607 15.0204C88.405 15.3184 90.491 14.8484 92.425 13.6814C93.925 12.7794 95.22 11.5854 96.473 10.4294C96.909 10.0274 97.345 9.62542 97.79 9.23442C101.462 6.00842 104.974 4.53042 108.232 4.83342C110.511 5.04442 112.651 6.26342 114.258 8.26442C116.054 10.5004 116.926 13.4294 116.591 16.1004C116.553 16.4034 116.498 16.6974 116.428 16.9944C115.227 22.1824 109.792 26.2254 104.036 26.2254H103.967C102.759 26.2184 101.487 26.0644 100.257 25.9144C97.329 25.5594 94.302 25.1924 91.733 26.7214C88.513 28.6494 87.719 32.5534 87.62 35.4894C87.596 36.2474 87.616 37.0574 87.678 37.8974C87.744 38.7374 87.838 39.5854 87.933 40.4354C88.28 43.5664 88.64 46.8044 87.518 49.6844C85.581 54.6594 80.108 57.0314 74.481 58.8524C55.676 64.9464 37.298 68.8434 19.858 70.4344C17.308 70.6614 14.854 70.7774 12.808 69.7164ZM113.73 25.6864C110.525 28.3854 106.017 28.5664 101.658 28.7414C101.136 28.7624 100.618 28.7834 100.105 28.8084C98.492 28.8864 96.636 29.0424 95.026 29.9044C90.423 32.3654 90.439 38.7934 90.858 42.4064L90.997 43.5524C91.513 47.7324 92.046 52.0544 89.714 55.2734C88.034 57.5894 85.191 58.7794 82.176 59.8914C65.208 66.1824 46.855 72.2974 27.616 74.4254C23.403 74.8964 19.048 75.0294 15.731 72.8324C14.978 72.3384 14.27 71.6964 13.583 70.9174C14.692 71.2794 15.865 71.4014 17.079 71.4014C18.008 71.4014 18.96 71.3304 19.924 71.2454C37.425 69.6484 55.863 65.7384 74.725 59.6264C80.264 57.8344 86.204 55.2854 88.269 49.9804C89.463 46.9144 89.093 43.5754 88.734 40.3464C88.641 39.5054 88.548 38.6664 88.482 37.8364C88.422 37.0264 88.404 36.2444 88.426 35.5164C88.518 32.7824 89.238 29.1594 92.143 27.4194C94.473 26.0334 97.233 26.3684 100.153 26.7214C101.406 26.8734 102.701 27.0304 103.956 27.0374C103.981 27.0374 104.005 27.0374 104.029 27.0374C109.724 27.0364 115.124 23.2934 116.879 18.3084C116.964 21.1314 115.814 23.9264 113.73 25.6864ZM103.43 18.9764C104.129 19.5074 105.045 19.7984 106.014 19.7984H106.06C107.778 19.7804 109.415 18.7914 110.132 17.3384C110.907 15.7774 110.537 13.7784 109.266 12.6884C108.655 12.1734 107.85 11.8484 106.999 11.7734C105.801 11.6724 104.593 12.0714 103.687 12.8614C102.773 13.6484 102.213 14.7884 102.149 15.9894C102.071 17.2784 102.503 18.2834 103.43 18.9764ZM102.96 16.0344C103.01 15.0674 103.48 14.1114 104.219 13.4764C104.881 12.9004 105.771 12.5724 106.647 12.5724C106.742 12.5724 106.836 12.5764 106.93 12.5844C107.615 12.6444 108.258 12.9024 108.74 13.3084C109.718 14.1484 110.01 15.7604 109.404 16.9794C108.818 18.1654 107.471 18.9724 106.052 18.9874C105.259 19.0004 104.489 18.7624 103.919 18.3294C103.212 17.8014 102.898 17.0524 102.96 16.0394C102.96 16.0364 102.96 16.0344 102.96 16.0344Z" fill="white" fillOpacity="0.2"/>
</svg>