<svg width="121" height="157" viewBox="0 0 121 157" fill="none" xmlns="http://www.w3.org/2000/svg">
<path d="M113.273 117.727C111.452 117.037 109.348 116.838 106.648 117.101C103.745 117.385 101.236 118.157 99.3143 119.347C99.7163 117.572 100.112 115.797 100.503 114.019C100.905 112.193 101.308 110.366 101.722 108.538V108.534C101.736 108.48 101.746 108.425 101.754 108.351C101.817 107.581 101.173 106.969 99.9843 106.672C88.5553 103.865 76.6183 103.011 65.0743 102.185C58.6863 101.729 52.0813 101.262 45.5613 101.401C48.5333 96.07 53.5623 92.14 58.4373 88.339C59.8083 87.27 61.2263 86.165 62.5593 85.055C70.2143 78.687 75.1823 71.691 77.3283 64.262C78.1953 61.271 78.5973 58.147 78.5363 54.969C78.5443 54.969 78.5523 54.969 78.5603 54.969C78.8063 54.969 79.0533 54.962 79.2963 54.951C81.0783 54.869 82.8633 54.584 84.6003 54.101C85.6383 53.817 86.8093 53.408 87.6403 52.533C87.7903 52.375 87.9973 52.128 88.0743 51.804C88.1543 51.434 88.0563 51.024 87.7893 50.617C86.8953 49.263 85.1833 49.025 83.6733 48.815L83.2613 48.756C81.1553 48.446 79.0893 47.721 77.2693 46.668C76.8183 45.129 76.2473 43.617 75.5683 42.169C72.3603 35.366 66.5583 29.748 59.6523 26.753C54.5113 24.525 48.4273 23.567 41.5623 23.888C41.5633 20.502 41.5703 17.117 41.5773 13.73V13.596C41.5773 11.145 41.5773 8.61102 41.1073 6.14502C40.9373 5.28102 40.6683 4.162 40.0963 3.164C39.0043 1.235 36.9083 0 34.7333 0C34.7033 0 34.6733 7.08003e-06 34.6433 0.00100708C32.4103 0.0370071 30.2613 1.46901 29.4173 3.48401C28.8233 4.90501 28.8553 6.45901 28.9653 7.79001C29.1013 9.53701 29.4053 11.293 29.6853 12.782C30.4843 16.935 31.5323 21.002 32.7943 24.885C25.8053 26.119 19.5653 28.269 14.2323 31.278L12.7733 28.012C11.3043 24.722 9.83331 21.431 8.33431 18.089C7.56531 16.38 6.77031 14.614 5.51131 13.155C4.05831 11.46 2.1433 10.529 0.322301 10.527C-2.1807 10.568 -4.5727 12.539 -5.3657 15.212C-6.0317 17.458 -5.68169 20.098 -4.37969 22.645C-3.22669 24.909 -1.47769 26.885 0.0643053 28.627C2.11931 30.955 4.17932 33.282 6.24032 35.611L6.95229 36.414C6.44629 36.856 5.9453 37.315 5.4623 37.792C-3.5187 46.612 -7.8997 60.165 -5.9707 73.163C-5.7497 74.63 -5.44969 76.058 -5.08369 77.417C-5.93469 79.731 -7.52969 82.017 -9.96369 84.405C-10.3787 84.814 -11.2417 85.663 -10.9357 86.653C-10.7757 87.16 -10.3327 87.553 -9.6157 87.822C-8.8277 88.11 -8.0057 88.195 -7.2707 88.195C-6.7987 88.195 -6.36269 88.16 -5.99769 88.121C-4.24669 87.936 -2.5097 87.484 -0.823695 86.795C0.134305 88.164 1.2343 89.424 2.4623 90.537C6.4013 94.089 12.0133 96.408 19.1433 97.429C22.4923 97.907 25.9163 98.095 29.2283 98.278C31.8393 98.422 34.5393 98.571 37.1743 98.86C38.7153 99.031 40.3313 99.265 41.6353 100.068C42.2193 100.43 42.7213 100.928 43.0733 101.479C39.9213 101.622 36.9973 101.91 34.1723 102.369C33.3793 102.498 32.7893 102.655 32.2593 102.879C31.7983 103.074 31.4253 103.284 31.1203 103.523C30.7273 103.831 30.5753 104.179 30.6673 104.581C29.9093 116.261 30.4133 128.598 32.1223 140.26C32.2953 141.471 32.4923 142.646 32.9923 143.712C33.6853 145.219 34.9343 146.395 36.0673 147.348C40.8023 151.277 47.0163 154.088 54.0393 155.476C57.8263 156.225 61.8643 156.594 66.4243 156.594C68.7343 156.594 71.1773 156.499 73.7903 156.312C78.1493 155.996 83.2563 155.429 88.0953 153.622C89.2523 153.189 90.4373 152.655 91.2663 151.695C92.1973 150.611 92.5273 149.152 92.7923 147.978C93.2793 145.834 93.7683 143.695 94.2633 141.549C96.1133 142.565 98.4543 143.107 101.243 143.153C101.387 143.155 101.532 143.157 101.675 143.157C106.265 143.157 110.551 141.907 113.785 139.617C117.596 136.909 120.018 132.602 120.105 128.378C120.205 123.738 117.334 119.256 113.273 117.727ZM83.1443 49.564L83.5623 49.623C84.9673 49.818 86.4203 50.02 87.1123 51.067C87.2543 51.283 87.3143 51.485 87.2833 51.627C87.2613 51.722 87.1853 51.837 87.0513 51.978C86.3603 52.705 85.3623 53.053 84.3853 53.321C82.7053 53.787 80.9813 54.063 79.2613 54.142C79.0103 54.153 78.7583 54.149 78.5053 54.148C78.4023 51.968 78.0783 49.819 77.5473 47.735C79.2853 48.636 81.1943 49.276 83.1443 49.564ZM30.4823 12.635C30.2073 11.169 29.9063 9.44001 29.7733 7.73001C29.6713 6.49501 29.6393 5.062 30.1653 3.802C30.8883 2.075 32.7343 0.848024 34.6553 0.818024C34.6803 0.817024 34.7043 0.817017 34.7303 0.817017C36.5893 0.817017 38.4543 1.91601 39.3903 3.57101C39.9053 4.46801 40.1523 5.50402 40.3103 6.30502C40.7653 8.69302 40.7653 11.188 40.7653 13.6V13.734C40.7573 17.134 40.7503 20.534 40.7503 23.934C40.2403 23.964 39.7313 24.002 39.2233 24.046C39.1303 22.046 39.0263 20.047 38.9043 18.055C38.6793 14.474 38.4043 10.98 37.5183 7.60101C37.2953 6.76901 36.9183 5.77201 35.9863 5.44601C34.8753 5.05301 33.7593 5.89701 33.2323 6.93301C32.3013 8.72601 32.5433 10.83 32.8423 12.66C33.4803 16.644 34.4473 20.52 35.4753 24.459C35.3203 24.481 35.1633 24.501 35.0073 24.525C34.5363 24.591 34.0693 24.669 33.5993 24.747C32.3323 20.864 31.2813 16.792 30.4823 12.635ZM38.4133 24.114C37.6603 24.185 36.9363 24.269 36.2843 24.351C35.2533 20.4 34.2803 16.515 33.6433 12.531C33.3643 10.829 33.1353 8.881 33.9533 7.306C34.3193 6.591 35.0773 5.98702 35.7173 6.21402C36.2913 6.41402 36.5623 7.17303 36.7333 7.81003C37.5993 11.116 37.8713 14.567 38.0933 18.105C38.2153 20.104 38.3203 22.109 38.4133 24.114ZM6.8463 35.079C4.7853 32.751 2.72531 30.424 0.670308 28.096C-0.913692 26.306 -2.5517 24.455 -3.6587 22.283C-4.8657 19.922 -5.1967 17.495 -4.5897 15.451C-3.8947 13.107 -1.8247 11.382 0.331304 11.346C1.9103 11.32 3.59529 12.181 4.89229 13.692C6.07529 15.061 6.84629 16.773 7.61629 18.483C9.09129 21.77 10.5613 25.061 12.0303 28.35L13.5203 31.685C13.0253 31.974 12.5093 32.29 11.9783 32.629L9.2763 27.098C8.0423 24.582 6.7673 21.98 5.2513 19.547C4.7463 18.736 4.13231 17.822 3.25231 17.226C2.23231 16.525 0.979306 16.405 0.0623064 16.921C-1.10869 17.578 -1.46769 19.013 -1.30369 20.145C-1.13169 21.326 -0.484694 22.386 0.0343065 23.237C2.51931 27.345 5.0933 31.582 8.6043 35.036C8.2453 35.318 7.89731 35.602 7.56231 35.889L6.8463 35.079ZM11.2933 33.078C10.5763 33.556 9.89331 34.044 9.25231 34.537C5.77331 31.141 3.20631 26.914 0.728307 22.816C0.222307 21.986 -0.35169 21.045 -0.49969 20.029C-0.61969 19.2 -0.371691 18.096 0.45931 17.63C1.19931 17.214 2.1643 17.465 2.7943 17.897C3.5453 18.406 4.07931 19.203 4.56231 19.977C6.05631 22.374 7.32229 24.957 8.54729 27.455L11.2933 33.078ZM-6.0867 87.321C-7.4407 87.464 -8.4757 87.383 -9.3377 87.068C-9.8057 86.892 -10.0837 86.673 -10.1647 86.419C-10.3047 85.964 -9.85669 85.442 -9.39869 84.993C-7.20669 82.842 -5.66769 80.758 -4.71569 78.654C-3.86869 81.422 -2.7227 83.926 -1.2857 86.108C-2.8517 86.734 -4.4637 87.149 -6.0867 87.321ZM42.0583 99.385C40.6093 98.493 38.8943 98.242 37.2593 98.06C34.6023 97.768 31.8913 97.619 29.2693 97.474C25.9743 97.292 22.5683 97.105 19.2543 96.632C12.2863 95.635 6.8193 93.383 3.0033 89.942C1.7443 88.801 0.61731 87.503 -0.34669 86.081C-2.05769 83.593 -3.3777 80.655 -4.2707 77.349C-4.6437 75.98 -4.94669 74.534 -5.17069 73.051C-7.06069 60.306 -2.76971 47.02 6.03029 38.379C6.5983 37.817 7.19031 37.275 7.79131 36.761C8.31531 36.3 8.87531 35.842 9.46331 35.395C10.2563 34.771 11.1223 34.152 12.0343 33.555C12.8033 33.054 13.5453 32.599 14.2413 32.202C19.6933 29.057 26.1333 26.837 33.3823 25.606L33.5193 25.583C34.0543 25.494 34.5833 25.405 35.1253 25.33C35.4303 25.282 35.7283 25.242 36.0323 25.202C36.8683 25.094 37.8603 24.973 38.8783 24.886C39.6443 24.813 40.4113 24.757 41.1783 24.716C42.1683 24.662 43.1423 24.636 44.0983 24.636C49.8193 24.636 54.9323 25.597 59.3293 27.502C66.0583 30.419 71.7093 35.892 74.8353 42.518C75.5203 43.978 76.0953 45.508 76.5423 47.063C77.2353 49.483 77.6313 52.008 77.7203 54.569C77.8263 57.808 77.4323 60.993 76.5503 64.036C74.4503 71.307 69.5693 78.168 62.0423 84.43C60.7193 85.531 59.3063 86.633 57.9393 87.698C52.8113 91.695 47.5083 95.83 44.5073 101.632C44.4213 101.798 44.3383 101.962 44.2573 102.125C44.2143 101.983 44.1633 101.84 44.1033 101.697C44.1023 101.695 44.1013 101.694 44.1003 101.692C44.0993 101.69 44.0983 101.688 44.0973 101.686C43.7013 100.782 42.9603 99.944 42.0583 99.385ZM31.6153 104.171C31.8603 103.98 32.1813 103.8 32.5713 103.635C33.0393 103.437 33.5723 103.297 34.2983 103.178C37.1943 102.708 40.1933 102.416 43.4473 102.281C43.6053 102.76 43.6523 103.231 43.5733 103.681C43.5373 103.887 43.6613 104.085 43.8613 104.142C43.8983 104.153 43.9363 104.158 43.9733 104.158C44.1353 104.158 44.2863 104.06 44.3503 103.903C44.5733 103.347 44.8313 102.793 45.1223 102.22C51.7593 102.049 58.4983 102.529 65.0173 102.995C76.5283 103.818 88.4303 104.67 99.7903 107.46C100.369 107.604 100.978 107.897 100.95 108.251C100.949 108.257 100.934 108.339 100.933 108.345C100.844 108.688 100.201 108.855 99.6033 108.869C94.8573 108.983 89.8553 109.011 84.3023 108.953C79.2073 108.9 74.0343 108.763 68.9293 108.547C63.8373 108.331 58.6713 108.029 53.5753 107.649C48.4913 107.271 43.3373 106.804 38.2573 106.262C37.1613 106.145 36.0503 105.963 34.9763 105.787L34.7413 105.749C34.1443 105.651 33.5913 105.487 33.0063 105.314L32.5863 105.195C32.1763 105.086 31.8213 104.99 31.5663 104.653C31.3683 104.381 31.3903 104.347 31.6153 104.171ZM93.5873 140.843C93.0513 143.166 92.5223 145.482 91.9953 147.806C91.7493 148.891 91.4443 150.242 90.6463 151.172C89.9363 151.993 88.8613 152.473 87.8053 152.868C83.0633 154.64 78.0263 155.196 73.7263 155.508C66.0333 156.062 59.8253 155.8 54.1913 154.687C47.3023 153.324 41.2123 150.573 36.5833 146.732C35.5213 145.839 34.3513 144.742 33.7243 143.378C33.2703 142.41 33.0863 141.3 32.9223 140.152C31.2673 128.862 30.7583 116.942 31.4243 105.604C31.7303 105.795 32.0653 105.896 32.3763 105.98L32.7763 106.093C33.3863 106.274 33.9623 106.444 34.6093 106.55L34.8453 106.589C35.9293 106.767 37.0523 106.95 38.1713 107.07C43.2593 107.613 48.4223 108.082 53.5153 108.461C58.6193 108.841 63.7933 109.144 68.8943 109.361C74.0093 109.578 79.1903 109.714 84.2943 109.767C86.1723 109.787 87.9883 109.796 89.7533 109.796C93.2123 109.796 96.4743 109.758 99.6223 109.683C100.024 109.674 100.375 109.615 100.673 109.518C100.349 110.96 100.028 112.403 99.7103 113.844C99.2463 115.954 98.7813 118.063 98.2983 120.171C97.8523 122.161 97.3973 124.15 96.9423 126.132L94.5243 136.727C94.2093 138.1 93.8933 139.472 93.5873 140.843ZM97.7023 126.454C99.4143 125.073 101.244 124.173 103.145 123.785C106.193 123.169 109.383 124.068 111.274 126.078C113.322 128.252 113.662 131.821 112.03 134.033C110.61 135.967 108.055 136.776 105.744 137.313C103.721 137.776 101.555 138.163 99.4053 137.883C97.8953 137.68 96.5093 137.115 95.4533 136.3L97.7023 126.454ZM113.31 138.961C110.116 141.223 105.811 142.433 101.252 142.347C98.4913 142.303 96.2083 141.755 94.4473 140.73C94.7143 139.538 94.9873 138.345 95.2613 137.153C96.3873 137.936 97.7853 138.485 99.3003 138.688C99.8443 138.759 100.386 138.791 100.925 138.791C102.645 138.791 104.332 138.47 105.928 138.104C108.385 137.533 111.108 136.66 112.686 134.513C114.571 131.958 114.211 128.008 111.867 125.52C109.787 123.312 106.299 122.318 102.985 122.988C101.246 123.343 99.5683 124.097 97.9823 125.224C98.3423 123.652 98.7023 122.078 99.0563 120.502C100.934 119.114 103.58 118.216 106.728 117.909C109.298 117.656 111.286 117.842 112.987 118.486C116.735 119.898 119.385 124.053 119.288 128.366C119.206 132.34 116.916 136.401 113.31 138.961ZM43.0983 118.427C42.6133 118.367 42.0813 118.498 41.5203 118.82C40.7233 119.282 40.0853 119.993 39.6903 120.818C39.6223 120.533 39.5463 120.245 39.4393 119.961C39.0523 118.937 38.3213 118.263 37.4873 118.159C36.4433 118.026 35.5413 118.795 35.1823 119.633C34.8843 120.351 34.8513 121.206 35.0783 122.245C35.5703 124.576 36.9573 126.709 38.8863 128.096C38.9573 128.147 39.0403 128.172 39.1233 128.172C39.2023 128.172 39.2813 128.149 39.3503 128.103C41.2933 126.796 42.8623 125.226 44.0143 123.435C44.4683 122.728 44.9843 121.782 44.9563 120.735C44.9283 119.716 44.2263 118.573 43.0983 118.427ZM43.3313 122.997C42.2873 124.62 40.8763 126.056 39.1343 127.268C37.4863 125.997 36.3043 124.12 35.8733 122.075C35.6823 121.201 35.7023 120.504 35.9323 119.95C36.1463 119.449 36.6673 118.958 37.2503 118.958C37.2943 118.958 37.3393 118.96 37.3843 118.967C38.0123 119.045 38.4653 119.682 38.6793 120.249C38.8123 120.606 38.8963 120.98 38.9843 121.376C39.0673 121.75 39.1533 122.138 39.2863 122.516C39.3493 122.696 39.5343 122.811 39.7193 122.784C39.9093 122.761 40.0563 122.609 40.0743 122.418C40.1833 121.234 40.8953 120.124 41.9263 119.525C42.3303 119.295 42.6883 119.197 42.9963 119.235C43.6813 119.324 44.1263 120.096 44.1453 120.76C44.1673 121.583 43.7213 122.388 43.3313 122.997ZM65.8693 120.067C65.6353 119.95 65.3623 119.89 65.0113 119.878C63.2623 119.832 61.5093 120.813 60.5693 122.3C60.4663 121.893 60.3143 121.493 60.0693 121.128C59.5103 120.307 58.3593 119.763 57.3943 120.277C57.0763 120.449 56.7993 120.732 56.5693 121.123C55.7973 122.476 56.0733 124.376 57.3083 126.207C58.2373 127.585 59.4823 128.785 60.9063 129.679C60.9733 129.72 61.0473 129.741 61.1223 129.741C61.2243 129.741 61.3243 129.703 61.4023 129.629C63.2413 127.876 64.6983 126.145 65.8603 124.337C66.4223 123.452 67.0233 122.288 66.6793 121.13C66.5383 120.645 66.2543 120.269 65.8693 120.067ZM65.1763 123.899C64.1003 125.575 62.7563 127.187 61.0743 128.818C59.8563 128.005 58.7923 126.95 57.9833 125.752C57.5863 125.164 56.3643 123.122 57.2733 121.53C57.4253 121.273 57.5963 121.092 57.7803 120.992C57.9103 120.922 58.0513 120.891 58.1963 120.891C58.6483 120.891 59.1333 121.192 59.3973 121.582C59.8083 122.196 59.8953 122.997 59.9803 123.772C60.0013 123.966 60.1583 124.119 60.3543 124.133C60.5603 124.147 60.7283 124.02 60.7773 123.829C61.2503 122.001 63.0743 120.621 64.9843 120.69C65.2153 120.698 65.3813 120.73 65.4993 120.789C65.7413 120.917 65.8543 121.198 65.9003 121.358C66.1523 122.204 65.6453 123.161 65.1763 123.899ZM88.6033 121.097C86.9593 121.104 85.4233 122.147 84.7203 123.612C84.4783 123.142 84.1893 122.711 83.7923 122.356C83.0883 121.717 81.9133 121.397 81.0283 122.015C80.3613 122.482 80.0463 123.377 80.1413 124.531C80.3313 127.035 81.9003 129.391 84.1393 130.532C84.1983 130.562 84.2613 130.576 84.3243 130.576C84.4193 130.576 84.5133 130.543 84.5883 130.478C85.1123 130.029 85.6433 129.625 86.1563 129.235C86.9753 128.613 87.7473 128.025 88.4333 127.309C89.7413 125.963 90.4663 124.363 90.4733 122.801C90.4733 122.559 90.4523 122.2 90.2753 121.881C89.9913 121.369 89.3673 121.081 88.6033 121.097ZM87.8483 126.746C87.2053 127.418 86.4563 127.988 85.6643 128.59C85.2103 128.935 84.7423 129.291 84.2733 129.682C82.4063 128.626 81.1133 126.609 80.9513 124.467C80.9183 124.067 80.9053 123.093 81.4943 122.68C81.6733 122.555 81.8863 122.5 82.1073 122.5C82.5163 122.5 82.9493 122.687 83.2493 122.959C83.7803 123.434 84.0993 124.143 84.4033 124.889C84.4713 125.056 84.6453 125.158 84.8223 125.139C85.0023 125.12 85.1473 124.984 85.1793 124.806C85.4613 123.215 86.9993 121.916 88.6133 121.909C88.9833 121.914 89.4103 121.996 89.5673 122.276C89.6533 122.43 89.6623 122.65 89.6623 122.8C89.6553 124.149 89.0113 125.549 87.8483 126.746ZM35.1273 50.494C35.6473 50.348 35.9723 49.852 36.2243 49.381C36.7033 48.487 37.0853 47.529 37.3533 46.546C37.5403 45.864 37.6213 44.994 37.0443 44.572C36.6783 44.296 36.1753 44.328 35.7203 44.369C35.5613 44.385 35.4013 44.401 35.2423 44.419C34.1843 44.536 33.1123 44.7 32.1213 45.104C31.6183 45.309 30.8553 45.668 30.4963 46.187C30.3223 46.439 30.2433 46.729 30.3333 47.058C30.4473 47.472 30.7553 47.805 31.0563 48.114C31.8203 48.861 32.6733 49.528 33.5823 50.088C34.0553 50.372 34.6073 50.64 35.1273 50.494ZM38.6453 53.955C38.3963 53.929 38.2283 54.112 38.2153 54.336C38.1943 54.683 38.0883 55.025 37.9163 55.303C37.8683 55.381 37.8313 55.429 37.7993 55.448C37.7753 55.464 37.7233 55.483 37.5973 55.491C37.0803 55.524 36.4383 55.257 36.2893 54.743C36.2303 54.54 36.0273 54.415 35.8173 54.458C35.6103 54.501 35.4703 54.695 35.4963 54.905C35.5193 55.094 35.4463 55.324 35.2803 55.587C35.0383 55.965 34.5933 56.321 34.1733 56.217C33.8383 56.129 33.5953 55.775 33.3343 55.27C33.2313 55.07 32.9843 54.993 32.7873 55.095C32.5883 55.198 32.5093 55.443 32.6123 55.642C32.9253 56.246 33.3053 56.829 33.9703 57.003C34.0893 57.033 34.2063 57.047 34.3223 57.047C35.0003 57.047 35.6163 56.567 35.9643 56.022C36.0073 55.954 36.0463 55.886 36.0813 55.819C36.5283 56.181 37.1313 56.339 37.6513 56.3C37.8033 56.291 38.0293 56.264 38.2313 56.135C38.4103 56.024 38.5223 55.865 38.6063 55.727C38.8503 55.334 38.9953 54.869 39.0243 54.384C39.0393 54.162 38.8693 53.969 38.6453 53.955ZM23.0463 47.434C23.1113 47.219 22.9893 46.993 22.7743 46.929C22.5583 46.863 22.3333 46.987 22.2693 47.201C21.9913 48.127 22.0873 49.145 22.5343 49.992C22.6073 50.131 22.7473 50.209 22.8933 50.209C22.9573 50.209 23.0213 50.194 23.0823 50.162C23.2813 50.057 23.3573 49.812 23.2533 49.614C22.9093 48.962 22.8323 48.148 23.0463 47.434ZM24.6203 47.078C24.6493 46.856 24.4923 46.651 24.2703 46.622C24.0493 46.592 23.8433 46.748 23.8143 46.972C23.7163 47.715 23.7693 48.47 23.9653 49.153C24.0173 49.331 24.1783 49.447 24.3553 49.447C24.3923 49.447 24.4293 49.442 24.4683 49.431C24.6833 49.369 24.8073 49.144 24.7463 48.928C24.5803 48.351 24.5363 47.711 24.6203 47.078ZM41.6633 40.567C41.4703 40.453 41.2203 40.515 41.1073 40.709C40.9923 40.902 41.0563 41.151 41.2493 41.265C41.8433 41.618 42.1993 42.371 42.0943 43.056C42.0603 43.277 42.2123 43.484 42.4343 43.518C42.4553 43.521 42.4753 43.523 42.4963 43.523C42.6933 43.523 42.8663 43.379 42.8973 43.178C43.0513 42.164 42.5443 41.09 41.6633 40.567ZM43.9433 42.12C43.9603 42.332 44.1383 42.492 44.3473 42.492C44.3593 42.492 44.3703 42.491 44.3823 42.49C44.6053 42.472 44.7723 42.275 44.7523 42.051C44.6763 41.132 44.1333 40.281 43.3373 39.83C43.1413 39.72 42.8953 39.787 42.7833 39.984C42.6733 40.179 42.7423 40.427 42.9373 40.538C43.4943 40.854 43.8893 41.474 43.9433 42.12ZM24.0743 42.383C24.0743 42.005 23.7683 41.699 23.3903 41.699C23.0123 41.699 22.7063 42.005 22.7063 42.383C22.7063 42.761 23.0123 43.067 23.3903 43.067C23.7683 43.068 24.0743 42.761 24.0743 42.383ZM39.3043 36.111C38.9263 36.111 38.6203 36.417 38.6203 36.795C38.6203 37.173 38.9263 37.479 39.3043 37.479C39.6823 37.479 39.9883 37.173 39.9883 36.795C39.9883 36.417 39.6823 36.111 39.3043 36.111Z" fill="white" fillOpacity="0.1"/>
</svg>
