<svg width="116" height="153" viewBox="0 0 116 153" fill="none" xmlns="http://www.w3.org/2000/svg">
<path d="M45.8252 78.8821C45.9992 79.3461 46.2622 79.5031 46.6912 79.7421C47.6252 80.2621 48.6162 80.7981 49.6812 80.7171C49.9492 80.7011 50.2172 80.6361 50.4362 80.4901C50.8752 80.1981 51.0212 79.6291 51.1022 79.1171C51.2322 78.3051 51.2652 77.4841 51.2002 76.6721C51.1672 76.2331 51.0542 75.7211 50.6482 75.5351C50.3802 75.4131 50.0632 75.4861 49.7712 75.5761C48.9092 75.8581 48.1002 76.2941 47.3882 76.8551C47.0322 77.1351 46.7012 77.4461 46.4002 77.7831C46.2272 77.9771 45.8092 78.3571 45.7802 78.6521C45.7782 78.6741 45.7782 78.6961 45.7812 78.7171C45.7862 78.7741 45.8052 78.8281 45.8252 78.8821ZM53.0342 84.1531C52.9272 83.9581 52.6832 83.8861 52.4872 83.9911C52.2912 84.0961 52.2162 84.3381 52.3182 84.5361C52.3242 84.5471 52.3302 84.5581 52.3362 84.5691C52.4862 84.8571 52.5032 85.2101 52.3782 85.5011C52.2142 85.8931 51.7822 86.1881 51.3282 86.2191C50.8772 86.2521 50.3992 86.0431 50.0752 85.6801C49.9262 85.5121 49.6682 85.4991 49.5022 85.6471C49.3342 85.7961 49.3192 86.0531 49.4692 86.2201C49.9292 86.7371 50.5812 87.0341 51.2362 87.0341C51.2852 87.0341 51.3342 87.0321 51.3832 87.0291C52.1442 86.9781 52.8452 86.4891 53.1262 85.8181C53.1992 85.6511 53.2442 85.4731 53.2642 85.2931C53.5382 85.3761 53.8382 85.3941 54.1292 85.3301C54.7542 85.1831 55.2992 84.6931 55.5512 84.0541C55.7612 83.5281 55.7872 82.8851 55.6242 82.2431C55.5692 82.0251 55.3442 81.8931 55.1312 81.9491C54.9142 82.0041 54.7822 82.2251 54.8382 82.4421C54.9592 82.9181 54.9452 83.3841 54.7972 83.7531C54.6402 84.1501 54.3142 84.4511 53.9492 84.5371C53.6052 84.6161 53.2072 84.4551 53.0522 84.1811C53.0442 84.1711 53.0392 84.1621 53.0342 84.1531ZM39.6812 84.8691C39.7542 84.8691 39.8292 84.8491 39.8962 84.8071C40.0862 84.6881 40.1442 84.4381 40.0252 84.2471C39.7792 83.8531 39.6372 83.3981 39.6152 82.9321C39.6052 82.7081 39.4332 82.5311 39.1902 82.5451C38.9662 82.5551 38.7932 82.7461 38.8032 82.9701C38.8312 83.5751 39.0152 84.1651 39.3362 84.6781C39.4132 84.8011 39.5462 84.8691 39.6812 84.8691ZM40.5902 83.0951L40.7572 83.5161C40.8202 83.6751 40.9732 83.7721 41.1352 83.7721C41.1852 83.7721 41.2362 83.7631 41.2852 83.7431C41.4932 83.6601 41.5952 83.4241 41.5132 83.2151L41.3452 82.7941C41.1992 82.4271 41.0542 82.0631 40.9132 81.7001C40.8322 81.4901 40.5962 81.3871 40.3882 81.4681C40.1792 81.5491 40.0752 81.7841 40.1562 81.9931C40.2962 82.3601 40.4422 82.7261 40.5902 83.0951ZM57.1572 74.3431C57.2242 74.4941 57.3732 74.5841 57.5292 74.5841C57.5842 74.5841 57.6402 74.5731 57.6942 74.5491C57.8992 74.4581 57.9912 74.2171 57.9002 74.0131C57.6452 73.4401 57.2222 72.9231 56.7082 72.5561C56.5262 72.4251 56.2712 72.4681 56.1422 72.6501C56.0122 72.8331 56.0542 73.0861 56.2362 73.2171C56.6332 73.5011 56.9602 73.9001 57.1572 74.3431ZM58.4082 73.5461C58.4822 73.6801 58.6212 73.7551 58.7642 73.7551C58.8312 73.7551 58.8982 73.7391 58.9612 73.7041C59.1572 73.5951 59.2282 73.3481 59.1192 73.1511C58.7652 72.5121 58.3482 71.9221 57.8812 71.3971C57.7322 71.2281 57.4752 71.2131 57.3082 71.3631C57.1402 71.5121 57.1252 71.7691 57.2742 71.9361C57.7012 72.4181 58.0832 72.9601 58.4082 73.5461ZM87.6022 113.654C87.5142 113.447 87.2742 113.351 87.0692 113.44C83.1082 115.129 79.4252 117.406 76.1212 120.206C75.9502 120.351 75.9292 120.607 76.0742 120.778C76.1542 120.873 76.2692 120.922 76.3842 120.922C76.4772 120.922 76.5702 120.89 76.6472 120.826C79.8892 118.079 83.5022 115.846 87.3892 114.188C87.5942 114.099 87.6902 113.86 87.6022 113.654ZM89.3872 114.721C88.0962 115.607 86.8042 116.484 85.5142 117.36C85.3282 117.486 85.2802 117.738 85.4062 117.924C85.4852 118.04 85.6122 118.102 85.7422 118.102C85.8202 118.102 85.9002 118.079 85.9702 118.032C87.2622 117.155 88.5542 116.277 89.8472 115.391C90.0322 115.264 90.0792 115.011 89.9522 114.826C89.8242 114.641 89.5722 114.594 89.3872 114.721ZM57.2862 132.88C57.4962 132.955 57.7302 132.846 57.8052 132.635C57.8812 132.424 57.7712 132.191 57.5592 132.116C56.8892 131.877 56.2392 132.342 55.9232 132.568L52.7552 134.875C52.5742 135.007 52.5342 135.262 52.6662 135.443C52.7462 135.552 52.8692 135.61 52.9942 135.61C53.0772 135.61 53.1612 135.585 53.2332 135.532L56.3982 133.227C56.7052 133.007 57.0462 132.797 57.2862 132.88ZM59.1472 133.854C58.2132 134.508 57.2782 135.226 56.3662 135.987C56.1942 136.131 56.1702 136.387 56.3142 136.559C56.3942 136.655 56.5102 136.705 56.6262 136.705C56.7182 136.705 56.8102 136.674 56.8862 136.611C57.7802 135.864 58.6982 135.161 59.6132 134.52C59.7972 134.391 59.8412 134.138 59.7132 133.954C59.5842 133.771 59.3312 133.726 59.1472 133.854ZM114.771 99.3011C113.952 98.1771 112.957 96.9651 111.523 96.8221C110.544 96.7071 109.65 97.1321 108.825 97.6671C107.388 95.1411 105.545 92.8951 103.334 90.9831C103.36 90.9441 103.386 90.9091 103.413 90.8651C103.562 90.6281 103.748 90.3331 103.759 89.9701C103.785 89.2881 103.192 88.7961 102.939 88.5861C101.536 87.4221 100.031 86.3861 98.4692 85.5071C98.0602 85.2751 97.6192 85.0481 97.1092 85.0481C96.3542 85.0591 95.7502 85.5871 95.3632 85.9821C95.2102 86.1381 95.0692 86.3111 94.9232 86.4781C90.9882 84.4101 85.7652 83.5561 81.7182 84.2691C82.4902 83.0261 83.1612 81.7161 83.7062 80.3571C86.2572 73.9621 86.0522 65.9341 83.1272 57.7541C80.2232 49.6501 75.2522 42.4001 68.7532 36.7871C65.8032 34.2361 63.0222 32.4701 60.2522 31.3871C58.0622 30.5291 55.6572 30.0301 53.1102 29.8831C51.8582 22.8341 49.8832 15.8341 47.9702 9.06307L47.8732 8.72207C47.3932 7.05707 46.8962 5.33507 46.0112 3.80307C44.9712 2.00807 43.5012 0.743072 41.8712 0.239072C39.6612 -0.432928 36.9822 0.343072 35.2062 2.17307C33.6712 3.75507 32.7392 6.05707 32.5822 8.65207C32.4242 11.1201 32.9432 13.5231 33.4722 15.5481C34.8742 20.9071 37.0012 25.9301 39.7512 31.7611C38.6482 32.0971 37.5132 32.4751 36.3572 32.9031C32.1482 34.4481 28.2262 36.3101 24.6732 38.4261C22.8632 34.2251 20.9262 30.0211 18.9082 25.9231C17.7862 23.6411 16.4502 21.0071 14.7912 18.6171C13.7912 17.1771 12.3822 15.4351 10.3452 14.7511C9.10321 14.3371 7.63321 14.3401 6.09821 14.7601C4.83421 15.0991 3.74521 15.6491 2.86321 16.3931C0.717209 18.1941 -0.341792 21.3721 0.098208 24.6871C0.502208 27.6771 1.92521 30.3821 3.40121 32.8591C6.53721 38.1271 10.2352 43.0281 13.4882 47.2351C12.6962 48.0771 11.9252 48.9511 11.2002 49.8461C4.29721 58.4231 1.46421 69.1991 3.62321 78.6731C3.84121 79.6301 4.04921 80.5721 4.25421 81.4981C5.63521 87.7411 6.82721 93.1321 9.80721 97.9201C12.5402 102.323 15.7582 105.682 19.3712 107.906C23.3082 110.328 28.1272 111.608 33.3512 111.638C30.6372 115.364 27.9172 120.354 27.3242 128.726C27.3202 128.783 27.3282 128.838 27.3462 128.888C27.1032 129.021 26.8572 129.159 26.5952 129.317C26.0512 129.647 25.3182 130.18 25.2312 131.01C25.1952 131.42 25.3312 131.787 25.4522 132.111C25.5292 132.317 25.6012 132.512 25.6232 132.699C25.6562 132.957 25.5982 133.242 25.5352 133.543L25.5052 133.69C25.2862 134.827 25.3012 136.035 25.5482 137.185C25.5902 137.376 25.6482 137.577 25.7982 137.768C25.9232 137.914 26.1512 138.088 26.5272 138.088C26.7892 138.088 27.1232 138.003 27.5442 137.766C27.7892 137.625 28.0462 137.492 28.2992 137.356C28.6152 140.504 29.1622 143 30.0042 145.126C29.5872 145.396 29.1692 145.667 28.7422 145.95C28.3792 146.195 27.9682 146.472 27.6962 146.899C27.0352 147.959 27.5952 149.253 28.1562 150.258C28.5482 150.976 28.9252 151.603 29.5662 152.012C30.0472 152.325 30.5752 152.447 31.1102 152.447C32.1352 152.447 33.1892 152.001 33.9982 151.597C34.2152 151.488 34.4302 151.374 34.6432 151.258C35.1002 151.51 35.5742 151.698 36.0612 151.787C36.3672 151.847 36.6682 151.873 36.9592 151.873C37.9152 151.873 38.7682 151.592 39.3722 151.318C40.5142 150.793 41.4562 149.97 42.0232 149.001C42.4992 148.185 42.7322 147.236 42.7512 146.117C43.0852 145.863 43.4132 145.602 43.7392 145.338C44.7292 146.661 45.8442 147.643 47.0702 148.229C48.1282 148.732 49.2802 148.984 50.5632 148.984C51.9532 148.984 53.5092 148.671 55.2562 148.077C55.2552 148.139 55.2462 148.2 55.2462 148.262C55.2532 149.769 56.2782 150.891 58.2102 151.507C58.8262 151.703 59.4542 151.773 60.0672 151.773C60.7002 151.773 61.3152 151.698 61.8802 151.61C66.5662 150.894 70.8102 148.79 75.4772 146.32C83.6692 141.985 91.5462 137.572 97.8562 131.278C99.3912 129.759 101.186 127.694 101.451 125.19C101.545 124.274 101.418 123.401 101.081 122.66C100.98 122.446 100.868 122.26 100.749 122.086C102.17 120.744 103.697 118.942 103.776 116.6C103.829 114.984 103.152 113.477 102.555 112.149C102.407 111.815 102.249 111.478 102.09 111.139L103.346 110.324C104.089 110.93 105.171 111.571 106.456 111.599C106.482 111.599 106.508 111.6 106.534 111.6C108.904 111.6 110.721 109.509 111.236 107.515C111.428 106.755 111.489 105.932 111.431 105.07L114.078 103.354C114.597 103.016 115.38 102.504 115.568 101.656C115.769 100.765 115.261 99.9731 114.771 99.3011ZM95.9422 86.5501C96.3992 86.0841 96.7732 85.8651 97.1142 85.8591C97.4202 85.8591 97.7392 86.0261 98.0682 86.2131C99.5892 87.0691 101.053 88.0771 102.419 89.2101C102.67 89.4181 102.956 89.6881 102.946 89.9411C102.942 90.0851 102.836 90.2531 102.716 90.4451C102.662 90.5321 102.604 90.6141 102.545 90.6981L102.463 90.8171C101.971 91.5581 101.453 92.2931 100.935 93.0291C99.0802 95.6631 97.1792 98.3871 96.4022 101.489C96.1352 101.337 95.8712 101.197 95.6152 101.084C94.5042 100.59 93.3182 100.323 92.1662 100.07C92.1022 98.2051 92.1012 95.8451 92.5352 93.5471C92.9332 91.4981 93.6262 89.7101 94.5972 88.2321C94.9952 87.6181 95.4482 87.0521 95.9422 86.5501ZM39.5552 111.11C40.7082 110.913 41.8842 110.662 43.0632 110.35C43.3712 111.292 43.7692 112.199 44.2602 113.049C44.6412 113.707 45.1872 114.527 46.0382 115.04C46.6622 115.408 47.3372 115.553 48.0402 115.553C49.1352 115.553 50.2952 115.199 51.4242 114.778C60.0552 111.535 67.2512 107.96 73.4232 103.851C74.8382 102.915 76.4502 101.791 77.6802 100.294C78.5222 99.2701 78.9622 98.3121 79.0222 97.3671C79.1012 96.2421 78.6462 95.1711 78.1432 94.1821C77.5882 93.0881 76.9562 92.0101 76.2252 90.9001C77.2072 89.9671 78.1072 89.0251 78.9092 88.0901C80.2132 89.4601 81.2222 91.1911 82.1872 92.8841C83.6762 95.4971 85.2152 98.1991 87.9262 99.6081C89.1382 100.24 90.4902 100.537 91.6822 100.798L91.8752 100.84C93.0772 101.103 94.2122 101.352 95.2852 101.829C95.6552 101.992 96.0442 102.204 96.4412 102.457C97.3082 103.013 98.1192 103.743 98.9162 104.659L98.8422 104.711C98.5752 104.899 98.3072 105.089 98.0402 105.279C97.1782 104.565 96.2662 104.07 95.2552 103.795C93.3102 103.267 91.2732 103.664 89.7182 104.07C86.6602 104.862 83.7882 106.085 80.4182 107.679C69.0082 113.06 58.0342 119.581 47.8002 127.061C44.8682 129.206 41.6742 131.806 40.9002 135.537C40.8572 135.745 40.8402 135.958 40.8132 136.169C40.6522 135.722 40.5162 135.229 40.4122 134.682C40.3792 134.522 40.3512 134.356 40.3242 134.194L40.3102 134.109C39.9212 131.638 40.0362 129.14 40.2002 127.02C40.2652 126.137 40.3502 125.253 40.4332 124.371C40.5062 123.608 40.5782 122.845 40.6392 122.085C40.9002 118.861 40.9882 114.745 39.5552 111.11ZM43.8562 110.125C51.6702 107.884 58.6062 103.588 65.0462 99.3681C68.6062 97.0381 72.3382 94.4671 75.6202 91.4591C76.3022 92.5031 76.8962 93.5191 77.4182 94.5491C77.9392 95.5731 78.2732 96.4341 78.2122 97.3121C78.1622 98.0831 77.7832 98.8901 77.0522 99.7781C75.8942 101.189 74.3412 102.271 72.9742 103.175C66.8542 107.25 59.7112 110.797 51.1402 114.018C49.4742 114.639 47.7532 115.107 46.4552 114.343C45.7662 113.928 45.2962 113.216 44.9642 112.644C44.5062 111.852 44.1452 111.002 43.8562 110.125ZM94.3962 87.1241C94.2322 87.3421 94.0662 87.5591 93.9162 87.7901C92.8882 89.3561 92.1542 91.2411 91.7362 93.3971C91.3042 95.6881 91.2882 98.0161 91.3462 99.8901C90.3372 99.6631 89.2562 99.3861 88.3012 98.8881C85.8032 97.5891 84.3892 95.1091 82.8932 92.4821C81.8882 90.7191 80.8382 88.9121 79.4342 87.4611C80.0392 86.7271 80.6052 85.9711 81.1142 85.2051C85.0202 84.2731 90.3782 85.0601 94.3962 87.1241ZM34.2572 15.3421C33.7452 13.3801 33.2412 11.0571 33.3922 8.70207C33.5382 6.29807 34.3882 4.18007 35.7882 2.73707C37.3572 1.11907 39.7052 0.426072 41.6322 1.01407C43.0652 1.45707 44.3702 2.59207 45.3072 4.20907C46.1422 5.65407 46.6252 7.32807 47.0912 8.94707L47.1872 9.28407C49.0792 15.9791 51.0292 22.8971 52.2762 29.8461C51.3112 29.8111 50.3102 29.8271 49.2452 29.9041C48.6822 27.3761 48.0732 24.7581 47.4272 22.1071C46.3872 17.8571 45.2862 13.7351 43.2612 10.0251C42.4212 8.49807 41.5112 7.77307 40.4342 7.82507C38.9162 7.89107 38.0692 9.52007 37.9022 11.1061C37.7102 12.9721 37.9952 14.8071 38.2652 16.1981C39.3162 21.5111 41.5362 26.4701 43.5882 30.7451C42.6042 30.9651 41.5962 31.2221 40.5362 31.5261C37.7802 25.6871 35.6522 20.6751 34.2572 15.3421ZM48.4282 29.9741C47.1382 30.0921 45.7922 30.2891 44.4062 30.5711C42.3532 26.3011 40.1112 21.3331 39.0642 16.0411C38.8052 14.7061 38.5312 12.9491 38.7122 11.1891C38.8382 9.99107 39.4422 8.68107 40.4712 8.63607C41.1812 8.60207 41.8832 9.20307 42.5502 10.4151C44.5272 14.0381 45.6132 18.1031 46.6392 22.2991C47.2742 24.9091 47.8732 27.4841 48.4282 29.9741ZM4.09921 32.4421C2.66621 30.0391 1.28821 27.4231 0.903208 24.5781C0.500208 21.5371 1.45121 18.6381 3.38621 17.0141C4.17721 16.3461 5.16021 15.8521 6.31021 15.5441C7.69321 15.1671 8.99821 15.1581 10.0872 15.5211C11.8962 16.1291 13.1942 17.7431 14.1232 19.0801C15.7502 21.4241 17.0692 24.0271 18.1782 26.2821C20.2052 30.4001 22.1512 34.6251 23.9682 38.8441C23.1852 39.3221 22.4332 39.8101 21.7172 40.3001C20.1442 36.8441 18.4412 33.3831 16.6432 30.0061C15.6122 28.0621 14.4792 26.0131 12.9752 24.1961C11.8052 22.7671 10.6222 22.1141 9.44721 22.2461C7.84321 22.4261 6.87621 24.0181 6.78021 25.4251C6.68621 26.8081 7.20821 28.0931 7.79921 29.3981C10.1142 34.4931 13.0302 39.5271 16.4622 44.3681C15.6482 45.0851 14.8452 45.8471 14.0592 46.6441C10.8382 42.4771 7.18921 37.6341 4.09921 32.4421ZM21.0412 40.7721C19.6762 41.7241 18.3492 42.7521 17.0822 43.8371C13.6992 39.0571 10.8242 34.0891 8.54021 29.0631C7.99421 27.8571 7.51121 26.6751 7.59221 25.4811C7.66721 24.3871 8.41521 23.1801 9.54121 23.0541C10.4202 22.9481 11.3652 23.5101 12.3492 24.7131C13.8062 26.4731 14.9152 28.4811 15.9262 30.3881C17.7402 33.7941 19.4582 37.2861 21.0412 40.7721ZM19.7962 107.212C16.2912 105.055 13.1632 101.785 10.4962 97.4891C7.59021 92.8191 6.41221 87.4911 5.04721 81.3211C4.84221 80.3941 4.63321 79.4501 4.41421 78.4911C2.31021 69.2571 5.08421 58.7391 11.8322 50.3551C12.6152 49.3881 13.4502 48.4401 14.3102 47.5391C15.2672 46.5491 16.2622 45.6061 17.2662 44.7361C18.6992 43.4881 20.2172 42.3121 21.7822 41.2371C22.6902 40.6001 23.6692 39.9661 24.6922 39.3511C28.3022 37.1631 32.3212 35.2501 36.6372 33.6651C37.9322 33.1861 39.2082 32.7591 40.4282 32.3991C41.7772 32.0031 43.0302 31.6851 44.2572 31.4241C45.8862 31.0801 47.4672 30.8481 48.9582 30.7331C49.7972 30.6641 50.5902 30.6291 51.3572 30.6291C51.8302 30.6291 52.2932 30.6421 52.7492 30.6681C55.3322 30.7851 57.7562 31.2821 59.9562 32.1431C62.6392 33.1921 65.3432 34.9121 68.2222 37.4011C74.6152 42.9221 79.5052 50.0551 82.3622 58.0271C85.2202 66.0201 85.4292 73.8441 82.9522 80.0541C82.3112 81.6511 81.4992 83.1841 80.5362 84.6131C79.9552 85.5001 79.3012 86.3751 78.5902 87.2161C77.6692 88.3201 76.6042 89.4391 75.4232 90.5421C72.1022 93.6501 68.2592 96.2941 64.6012 98.6881C58.1092 102.942 51.1142 107.277 43.2192 109.466C43.2172 109.467 43.2152 109.466 43.2132 109.467C43.2112 109.468 43.2102 109.469 43.2082 109.47C43.2002 109.472 43.1932 109.475 43.1852 109.477C43.1362 109.496 43.0932 109.508 43.0362 109.522C41.6542 109.894 40.2772 110.189 38.9422 110.399C37.3412 110.658 35.7292 110.801 34.1512 110.824H34.1492C28.7622 110.929 23.8042 109.677 19.7962 107.212ZM34.3692 111.625C35.8122 111.594 37.2792 111.463 38.7392 111.242C40.1802 114.76 40.0872 118.834 39.8282 122.018C39.7682 122.775 39.6962 123.533 39.6242 124.293C39.5532 125.043 39.4862 125.794 39.4262 126.544C35.6692 126.108 31.7482 126.751 28.3342 128.383C28.2782 128.408 28.2172 128.442 28.1612 128.469C28.8102 120.145 31.5112 115.437 34.3692 111.625ZM28.4512 136.347L28.4502 136.348C28.0072 136.577 27.5652 136.815 27.1422 137.059C26.7522 137.278 26.4802 137.314 26.4262 137.252C26.3872 137.202 26.3612 137.101 26.3412 137.011C26.1172 135.969 26.1042 134.873 26.3012 133.845L26.3292 133.707C26.3992 133.369 26.4782 132.986 26.4272 132.597C26.3942 132.318 26.3012 132.068 26.2112 131.827C26.1122 131.56 26.0182 131.308 26.0372 131.087C26.0862 130.624 26.6182 130.251 27.0122 130.011C27.6152 129.648 28.1572 129.357 28.6762 129.12C31.9682 127.546 35.7472 126.931 39.3592 127.355C39.2192 129.286 39.1442 131.495 39.4382 133.727C36.0812 133.424 32.3922 134.294 28.4522 136.346L28.4512 136.347ZM33.6342 150.867C32.5822 151.393 31.0612 152.012 30.0052 151.327C29.5232 151.02 29.2052 150.483 28.8652 149.863C28.4122 149.049 27.9472 148.026 28.3822 147.33C28.5612 147.049 28.8692 146.841 29.2062 146.614C29.5772 146.369 29.9512 146.127 30.3232 145.885C30.8102 146.988 31.3922 148.009 32.0682 148.915C32.6342 149.674 33.2312 150.29 33.8472 150.756C33.7762 150.791 33.7062 150.831 33.6342 150.867ZM41.3202 148.588C40.8372 149.414 40.0242 150.12 39.0342 150.576C38.3572 150.883 37.3192 151.203 36.2112 150.985C35.7422 150.899 35.2832 150.72 34.8432 150.45C34.1092 150.016 33.3952 149.336 32.7202 148.429C31.9832 147.441 31.3812 146.362 30.8762 145.128C29.9632 142.937 29.3902 140.326 29.0732 136.947C32.8572 135.019 36.3802 134.215 39.5622 134.551C39.5792 134.649 39.5952 134.748 39.6142 134.84C39.7912 135.774 40.0552 136.588 40.3882 137.252C40.3602 137.851 40.3982 138.478 40.5112 139.114V139.115C40.5122 139.123 40.5132 139.132 40.5142 139.14C40.6722 140.157 40.9652 141.162 41.2482 142.134L41.3372 142.438C41.6132 143.416 41.9312 144.695 41.9482 145.913C41.9562 146.975 41.7512 147.851 41.3202 148.588ZM42.7062 145.115C42.6392 144.433 42.5112 143.764 42.3632 143.151C42.4222 143.264 42.4722 143.376 42.5342 143.489C42.7582 143.898 43.0052 144.293 43.2632 144.677C43.0782 144.826 42.8912 144.97 42.7062 145.115ZM100.642 125.103C100.405 127.337 98.8112 129.185 97.2822 130.699C91.0502 136.915 83.2312 141.294 75.0962 145.599C70.4952 148.035 66.3162 150.107 61.7552 150.804C60.7352 150.962 59.5462 151.077 58.4562 150.729C57.3662 150.382 56.0652 149.67 56.0582 148.257C56.0582 148.023 56.0652 147.788 56.0962 147.545C56.4632 144.142 59.4942 141.243 62.8522 141.083C63.0422 141.074 63.2342 141.072 63.4292 141.072C63.5482 141.072 63.6672 141.073 63.7862 141.074C64.9422 141.082 66.1412 141.092 67.0762 140.328C67.4152 140.055 67.6632 139.721 67.9022 139.398C68.0432 139.207 68.1842 139.015 68.3432 138.844C69.2532 137.876 70.6272 137.647 72.0812 137.404C72.8892 137.269 73.7262 137.129 74.5032 136.853C75.9812 136.328 77.2822 135.254 78.0732 133.904C78.5102 133.152 78.7942 132.335 79.0692 131.544C79.1722 131.248 79.2752 130.952 79.3852 130.66C81.7672 124.395 88.5982 119.986 95.2922 120.401C97.3492 120.53 99.0262 121.219 99.8922 122.29C99.8942 122.293 99.8972 122.296 99.9002 122.3C100.066 122.492 100.211 122.722 100.341 122.999C100.619 123.603 100.722 124.331 100.642 125.103ZM102.964 116.57C102.896 118.605 101.518 120.235 100.221 121.465C98.8072 120.033 96.5972 119.668 95.3452 119.59C88.1972 119.141 81.1712 123.68 78.6272 130.372C78.5132 130.671 78.4082 130.975 78.3032 131.278C78.0292 132.067 77.7702 132.812 77.3732 133.495C76.6782 134.681 75.5332 135.626 74.2332 136.088C73.5232 136.34 72.7222 136.474 71.9482 136.603C70.4252 136.858 68.8502 137.121 67.7502 138.29C67.5692 138.485 67.4092 138.7 67.2492 138.915C67.0312 139.21 66.8242 139.489 66.5642 139.698C65.8542 140.277 64.8482 140.269 63.7912 140.262C63.4602 140.26 63.1332 140.257 62.8122 140.272C59.1552 140.446 55.8562 143.531 55.3282 147.195C52.0132 148.379 49.4912 148.478 47.4172 147.493C46.2122 146.918 45.1092 145.922 44.1372 144.53C43.8152 144.075 43.5152 143.593 43.2432 143.098C42.4342 141.629 41.9032 140.187 41.6642 138.821C41.6092 138.459 41.5702 138.097 41.5462 137.738C41.5072 137.051 41.5562 136.365 41.6932 135.699C42.4082 132.252 45.4672 129.771 48.2772 127.715C58.4692 120.265 69.3992 113.771 80.7622 108.412C84.0912 106.838 86.9222 105.631 89.9192 104.855C91.3772 104.475 93.2792 104.101 95.0392 104.578C96.0252 104.846 96.9122 105.341 97.7522 106.09C99.3312 107.491 100.427 109.536 101.204 111.159C101.414 111.602 101.616 112.038 101.81 112.476C102.374 113.726 103.01 115.142 102.964 116.57ZM101.738 110.396C101.006 108.909 100.019 107.178 98.6592 105.836C98.8762 105.682 99.0922 105.528 99.3092 105.376L99.4402 105.284C99.7162 105.629 99.9902 105.992 100.258 106.384C100.451 106.663 100.638 106.947 100.826 107.231C101.381 108.07 101.955 108.938 102.668 109.689C102.688 109.71 102.711 109.731 102.732 109.752L101.738 110.396ZM110.45 107.31C110.008 109.022 108.441 110.802 106.473 110.783C105.292 110.758 104.284 110.078 103.647 109.513C103.51 109.391 103.38 109.261 103.257 109.131C102.591 108.43 102.038 107.593 101.502 106.783C101.311 106.495 101.12 106.206 100.926 105.924C100.569 105.402 100.2 104.913 99.8322 104.473C98.9642 103.418 98.0732 102.595 97.1212 101.946C97.8172 98.8831 99.7332 96.1461 101.598 93.4991C102.033 92.8821 102.458 92.2661 102.875 91.6501C105.07 93.5651 106.957 95.8991 108.344 98.4391C108.875 99.3931 109.346 100.407 109.74 101.456C110.228 102.744 110.512 103.868 110.61 104.892C110.691 105.753 110.637 106.568 110.45 107.31ZM114.777 101.475C114.669 101.96 114.176 102.317 113.636 102.668L111.329 104.164C111.183 103.247 110.915 102.262 110.5 101.168C110.136 100.2 109.701 99.2681 109.223 98.3761C109.93 97.9131 110.675 97.5431 111.436 97.6291C112.542 97.7401 113.365 98.7521 114.114 99.7801C114.5 100.308 114.902 100.919 114.777 101.475ZM68.8902 145.588C68.6852 145.494 68.4452 145.586 68.3532 145.79C68.3252 145.851 68.1792 145.92 67.9642 145.925C67.8912 145.928 67.8202 145.925 67.7472 145.923C67.5102 145.919 67.2382 145.911 66.9692 146.013C66.6412 146.131 66.4172 146.361 66.2192 146.564C66.1662 146.619 66.1132 146.673 66.0572 146.725C65.3602 147.38 64.3822 147.461 63.8482 147.452C62.9922 147.437 62.1332 147.196 61.3022 146.963C61.0902 146.904 60.8622 147.029 60.8012 147.245C60.7402 147.461 60.8662 147.685 61.0832 147.746C61.9632 147.993 62.8732 148.247 63.8332 148.265C63.8652 148.265 63.8972 148.266 63.9292 148.266C65.0092 148.266 65.9592 147.931 66.6122 147.319C66.6762 147.259 66.7382 147.196 66.8002 147.132C66.9572 146.972 67.0922 146.833 67.2522 146.776C67.3792 146.728 67.5422 146.731 67.7282 146.736C67.8142 146.737 67.9012 146.74 67.9872 146.737C68.5202 146.722 68.9232 146.499 69.0932 146.125C69.1852 145.922 69.0942 145.681 68.8902 145.588ZM74.3852 142.941C73.4802 143.462 72.5332 143.906 71.5712 144.261C71.3612 144.339 71.2532 144.572 71.3312 144.783C71.3922 144.947 71.5472 145.048 71.7122 145.048C71.7592 145.048 71.8062 145.04 71.8532 145.023C72.8582 144.652 73.8462 144.188 74.7912 143.645C74.9852 143.533 75.0522 143.285 74.9402 143.09C74.8272 142.897 74.5802 142.83 74.3852 142.941ZM94.5412 123.246C92.8172 123.1 91.0842 123.412 89.5252 124.144C89.3222 124.24 89.2352 124.482 89.3302 124.685C89.3992 124.832 89.5452 124.918 89.6982 124.918C89.7562 124.918 89.8152 124.906 89.8712 124.88C91.3012 124.208 92.8932 123.924 94.4732 124.056C94.6952 124.084 94.8932 123.909 94.9122 123.686C94.9312 123.461 94.7642 123.265 94.5412 123.246ZM36.2632 75.3851C36.7862 75.3851 37.2102 74.9611 37.2102 74.4381C37.2102 73.9151 36.7862 73.4911 36.2632 73.4911C35.7402 73.4911 35.3162 73.9151 35.3162 74.4381C35.3162 74.9611 35.7402 75.3851 36.2632 75.3851ZM52.1792 67.4171C52.7022 67.4171 53.1262 66.9931 53.1262 66.4701C53.1262 65.9471 52.7022 65.5231 52.1792 65.5231C51.6562 65.5231 51.2322 65.9471 51.2322 66.4701C51.2322 66.9931 51.6562 67.4171 52.1792 67.4171Z" fill="white" fill-opacity="0.1"/>
</svg>
