<svg width="113" height="74" viewBox="0 0 113 74" fill="none" xmlns="http://www.w3.org/2000/svg">
<path d="M60.6394 15.6738C54.6914 12.4798 49.3953 8.18877 45.3703 3.00577C44.4923 3.30477 43.6143 3.61778 42.7623 3.97678C48.2713 8.74078 54.1394 12.8458 60.3734 16.1718C69.6144 21.1218 79.6474 24.3488 90.4994 25.4668C90.1464 24.2098 89.7144 22.9718 89.2084 21.7678C89.1624 21.8478 89.0883 21.9138 88.9683 21.9278C79.4473 22.6658 69.3484 20.3578 60.6394 15.6738ZM45.7623 2.87977C57.2794 15.2078 71.9293 21.8148 88.9683 21.3558C88.9953 21.3558 89.0084 21.3628 89.0284 21.3628C88.6094 20.4048 88.1504 19.4598 87.6314 18.5488C86.4534 16.4728 85.0834 14.5638 83.5534 12.8408C76.6804 5.06277 66.5613 0.918762 56.1353 1.15076C60.0873 4.06476 63.9334 7.31877 68.4704 9.25477C73.2404 11.2908 78.0704 12.2488 83.1804 12.9608C83.2464 12.9678 83.2864 13.0008 83.3204 13.0408C83.4334 13.1938 83.3334 13.4928 83.1074 13.4798C73.4404 13.0008 61.7174 8.21676 54.9044 1.19776C53.2144 1.29776 51.5244 1.49676 49.8414 1.82276C48.4504 2.09476 47.0933 2.45377 45.7623 2.87977ZM20.0214 47.5818C20.5864 50.4898 21.5254 53.3238 22.9624 55.9918C26.7684 63.0638 33.6544 68.1138 41.2054 70.5758C49.5884 73.3098 59.8874 73.6228 68.7824 70.7488C50.3864 70.4688 31.6374 61.9728 20.0214 47.5818ZM19.1164 29.0328C22.4834 12.2868 38.8764 0.450785 56.2744 0.0117852C71.2974 -0.367215 85.2554 8.42177 90.7844 22.5058C96.1204 36.0918 91.7624 55.3328 81.0174 65.3188C75.1094 70.8138 66.9454 72.8638 59.0954 73.4958C50.7124 74.1678 42.0364 72.9568 34.6114 68.8518C28.3574 65.3988 23.2344 60.0428 20.6194 53.3498C17.6524 45.7388 17.3264 37.9288 19.1164 29.0328ZM19.3094 40.7028C26.3814 48.6468 34.0723 55.3598 43.7864 59.9908C53.9454 64.8348 65.7953 66.8968 76.9993 66.8308C79.8603 64.9348 82.3824 62.5598 84.3644 59.6458C90.8044 50.1648 93.6254 37.2908 90.6713 26.0668C90.6313 26.0798 90.5914 26.0868 90.5454 26.0798C72.8814 24.3498 55.0104 16.8248 42.4034 4.12378C31.9914 8.60778 23.5943 18.1758 20.3013 28.9538C19.1633 32.6728 19.2294 36.7578 19.3094 40.7028ZM19.3424 41.7008C19.4084 43.4108 19.5884 45.1068 19.8744 46.7838C32.9484 61.2078 50.4854 69.8238 70.1124 70.0498C70.2454 70.0498 70.3323 70.1098 70.3913 70.1958C72.4203 69.4308 74.3634 68.4928 76.1794 67.3678C76.1194 67.3808 76.0594 67.3948 76.0134 67.4008C55.2634 68.7928 31.7704 58.7398 19.3424 41.7008Z" fill="white" fillOpacity="0.1"/>
<path d="M111.26 42.1998C113.961 46.9238 110.555 52.4128 106.17 54.5948C100.495 57.4088 93.1034 56.6038 86.9964 56.2778C79.9844 55.8918 72.9844 54.9868 66.1054 53.5698C52.0144 50.6758 38.3353 45.6458 25.7473 38.6868C19.8653 35.4338 14.0113 31.8608 8.97435 27.3768C5.20235 24.0238 -0.652646 18.4148 0.0593544 12.7868C0.638354 8.13578 5.36835 5.76777 9.57335 5.41477C16.6523 4.81577 24.4633 7.01776 31.1033 9.20676C31.4493 9.31976 31.4494 9.71878 31.2494 9.91178C31.3164 10.0248 31.3223 10.1648 31.1963 10.2778C30.5513 10.8828 29.9394 11.5288 29.3934 12.2208C29.0204 12.6868 28.6813 13.4118 28.2153 13.8438L27.7964 13.4718C28.0094 12.8728 28.5553 12.2878 28.8943 11.8418C29.4263 11.1568 30.0123 10.5248 30.6373 9.92575C24.1903 8.09575 16.8523 6.06678 10.1253 6.51978C6.27335 6.77878 1.77534 8.58878 1.24334 12.9598C0.777345 16.7658 3.92435 20.5108 6.30635 23.1588C13.5653 31.2158 23.8774 36.8108 33.5444 41.4488C43.9834 46.4588 55.0603 50.1508 66.4043 52.4668C77.2153 54.6758 89.5373 56.5388 100.568 54.9688C104.081 54.4698 107.707 53.1788 109.703 50.0458C111.679 46.9458 111.326 43.5858 108.825 40.9308C104.86 36.7258 98.7724 33.9648 93.3504 32.2148C93.3504 33.7718 93.3573 35.3288 93.3303 36.8918L92.8044 36.8988C92.7774 35.2618 92.7843 33.6258 92.7843 31.9888C92.4513 31.7288 92.5644 31.1768 92.9244 31.0438C92.9444 31.0238 92.9773 31.0168 93.0043 31.0108C93.0173 31.0108 93.0243 31.0038 93.0373 31.0038C93.0843 31.0038 93.1304 31.0038 93.1704 31.0168C93.2034 31.0238 93.2303 31.0168 93.2573 31.0298C96.9633 32.1938 100.509 33.7378 103.822 35.7798C106.476 37.4168 109.67 39.4188 111.26 42.1998Z" fill="white" fillOpacity="0.1"/>
<path d="M101.426 43.5578C101.925 46.3718 100.501 48.7538 97.6003 49.1928C93.1293 49.8718 87.7273 48.3077 83.4023 47.3097C78.1003 46.0857 72.8303 44.6887 67.5743 43.2707C57.9143 40.6697 48.3133 37.7418 39.0983 33.8168C34.2813 31.7678 29.5773 29.4458 25.0803 26.7648C22.0463 24.9548 17.6823 22.8458 16.0723 19.4668C14.9543 17.1178 15.7533 14.6298 17.8883 13.1928C20.9023 11.1708 24.7013 12.1618 27.7953 13.4728L28.2143 13.8447C28.1473 13.9047 28.0813 13.9648 28.0083 14.0108C27.9213 14.1708 27.7423 14.2968 27.5423 14.2438C24.7743 13.5588 21.4943 12.2678 18.8133 13.9248C14.9813 16.2868 17.4293 20.1058 20.0643 22.1218C23.3513 24.6298 27.0773 26.6928 30.7363 28.6148C38.6203 32.7528 46.9763 35.9268 55.4663 38.5878C63.7433 41.1888 72.1593 43.3717 80.5893 45.4538C85.4523 46.6577 90.5423 47.9618 95.5793 48.0888C97.3623 48.1358 98.1404 48.1157 99.4243 46.7117C101.041 44.9487 100.861 43.2317 99.4573 41.3497C97.9733 39.3737 95.5053 38.5218 93.2503 37.7308C93.1103 37.8708 92.8183 37.8108 92.8113 37.5578C92.8113 37.5308 92.8113 37.4978 92.8113 37.4708C92.7313 37.3378 92.7383 37.1717 92.8044 37.0387C92.8044 36.9917 92.8044 36.9458 92.8044 36.8988L93.3303 36.8917C96.6763 38.0487 100.728 39.6188 101.426 43.5578Z" fill="white" fillOpacity="0.1"/>
<path d="M40.6005 15.3537C42.0045 15.8457 42.4715 18.1568 41.6455 20.5118C40.8185 22.8688 39.0114 24.3798 37.6074 23.8868C36.2034 23.3948 35.7354 21.0857 36.5624 18.7287C37.3884 16.3737 39.1965 14.8607 40.6005 15.3537ZM40.9594 17.7237C41.1304 17.2357 40.8754 16.7007 40.3874 16.5297C39.8974 16.3577 39.3635 16.6167 39.1925 17.1037C39.0215 17.5917 39.2764 18.1268 39.7674 18.2988C40.2544 18.4698 40.7884 18.2107 40.9594 17.7237Z" fill="white" fillOpacity="0.1"/>
<path d="M36.2584 23.5018C37.4184 24.1628 38.3674 25.7388 37.0324 26.7618C36.3204 27.3068 35.4254 27.2618 34.6054 27.0488C33.6604 26.8048 32.4544 26.4418 31.7334 25.7428C31.0814 25.1078 31.0314 23.9948 31.8504 23.2008C33.0964 21.9748 35.2784 22.9468 36.2584 23.5018ZM36.6464 26.2458C38.3974 24.6708 33.4804 22.1088 31.9964 23.7828C30.8854 25.4378 35.4034 27.3618 36.6464 26.2458Z" fill="white" fillOpacity="0.1"/>
<path d="M54.4424 29.8208C55.0434 29.8268 54.9724 30.7518 54.3784 30.7498C52.0814 30.7438 49.8034 30.3308 47.6534 29.5168C45.7744 28.8028 43.3614 27.7448 42.1314 26.0958C41.9774 25.8898 42.1674 25.4958 42.4504 25.6328C43.3314 26.0608 44.0853 26.7148 44.9283 27.2168C45.8893 27.7928 46.9004 28.2768 47.9504 28.6678C50.0404 29.4428 52.2184 29.8008 54.4424 29.8208Z" fill="white" fillOpacity="0.1"/>
<path d="M63.3793 28.1358C62.5523 30.4928 60.7453 32.0038 59.3413 31.5108C57.9373 31.0178 57.4693 28.7097 58.2963 26.3527C59.1223 23.9977 60.9303 22.4847 62.3343 22.9777C63.7383 23.4697 64.2063 25.7808 63.3793 28.1358ZM61.1463 25.7977C61.6363 25.9697 62.1703 25.7107 62.3413 25.2237C62.5123 24.7357 62.2573 24.2008 61.7673 24.0288C61.2793 23.8578 60.7453 24.1157 60.5743 24.6037C60.4033 25.0917 60.6583 25.6267 61.1463 25.7977Z" fill="white" fillOpacity="0.1"/>
<path d="M64.2644 34.5708C64.4084 35.7018 63.6734 36.5398 62.7674 36.6288C61.7674 36.7238 60.6004 36.2548 59.7094 35.8548C58.9364 35.5088 58.2094 34.9848 57.9934 34.1148C57.5904 32.4818 59.3154 31.8438 60.6344 32.0528C61.7474 32.2318 64.0584 32.8358 64.2644 34.5708ZM63.7884 34.9348C63.6754 32.7008 58.2354 31.6298 58.6184 33.9528C58.8924 35.6008 63.6214 36.9208 63.7884 34.9348Z" fill="white" fillOpacity="0.1"/>
</svg>
