<svg width="138" height="152" viewBox="0 0 138 152" fill="none" xmlns="http://www.w3.org/2000/svg">
<path d="M137.438 45.503C137.771 45.483 137.83 46.002 137.517 46.075C131.689 47.426 126.46 48.856 121.111 51.664C120.845 51.804 120.612 51.418 120.871 51.252C125.755 48.217 131.663 45.849 137.438 45.503Z" fill="white" fillOpacity="0.1"/>
<path d="M131.63 115.661C132.016 115.94 131.643 116.586 131.257 116.3C125.788 112.315 120.346 108.29 114.943 104.218C114.71 104.038 114.93 103.639 115.176 103.812C120.692 107.717 126.174 111.669 131.63 115.661Z" fill="white" fillOpacity="0.1"/>
<path d="M130.112 81.397C130.332 81.497 130.218 81.863 129.986 81.849C127.897 81.756 125.648 80.831 123.632 80.292C123.359 80.225 123.479 79.826 123.745 79.886C125.787 80.325 128.203 80.532 130.112 81.397Z" fill="white" fillOpacity="0.1"/>
<path d="M115.13 47.7178C125.296 67.2118 122.628 92.4138 108.876 109.513C94.9436 126.831 74.6986 134.343 49.0566 127.729C19.5696 120.124 6.76257 94.7088 9.50957 68.6418C12.0316 44.7038 28.5846 24.4318 52.4426 19.3018C76.4146 14.1458 103.66 25.7158 115.13 47.7178ZM112.01 103.172C123.3 84.5758 123.134 59.4738 110.067 41.7898C95.7026 22.3358 68.0716 14.2388 45.4646 22.5688C22.6846 30.9648 9.37759 53.7858 10.3826 77.6768C11.3536 100.823 26.7296 121.428 49.5236 126.777C74.7846 132.706 99.3746 123.99 112.01 103.172Z" fill="white" fillOpacity="0.1"/>
<path d="M113.327 28.7167C113.693 28.5507 114.019 29.0827 113.646 29.2687C111.444 30.3797 109.494 31.7237 107.678 33.3937C107.478 33.5797 107.199 33.3007 107.379 33.0947C109.009 31.2447 111.072 29.7277 113.327 28.7167Z" fill="white" fillOpacity="0.1"/>
<path d="M102.835 128.974C103.075 129.34 102.476 129.693 102.243 129.32C101.105 127.457 99.974 125.601 98.837 123.738C98.691 123.492 99.0631 123.279 99.2161 123.518C100.427 125.334 101.631 127.151 102.835 128.974Z" fill="white" fillOpacity="0.1"/>
<path d="M98.2109 1.6708C98.3569 1.3518 98.8099 1.63081 98.6769 1.94381C96.2149 7.76481 93.5539 13.5268 90.8529 19.2418C90.7669 19.4148 90.4599 19.2878 90.5339 19.1088C92.9879 13.2608 95.5099 7.4128 98.2109 1.6708Z" fill="white" fillOpacity="0.1"/>
<path d="M81.3975 151.614C81.4305 151.933 80.9385 151.98 80.8585 151.687C79.0955 145.333 78.3905 138.135 78.1905 131.561C78.1835 131.368 78.4966 131.322 78.5296 131.514C79.4886 138.181 80.7125 144.921 81.3975 151.614Z" fill="white" fillOpacity="0.1"/>
<path d="M72.1169 8.92985C72.2169 10.9928 71.804 13.1608 71.585 15.2108C71.558 15.4508 71.192 15.4568 71.206 15.2108C71.312 13.1348 71.2529 10.9128 71.6779 8.87085C71.7309 8.61685 72.1039 8.69085 72.1169 8.92985Z" fill="white" fillOpacity="0.1"/>
<path d="M57.6327 133.884C57.6797 133.704 57.9717 133.744 57.9517 133.924C57.7317 136.712 57.2267 139.493 56.7807 142.247C56.7147 142.673 56.0617 142.493 56.1357 142.067C56.5747 139.339 56.9677 136.565 57.6327 133.884Z" fill="white" fillOpacity="0.1"/>
<path d="M49.0569 15.2438C49.0899 15.4968 48.6639 15.5498 48.6109 15.3038C47.6199 10.2878 46.2619 5.34382 45.2709 0.33382C45.2049 -0.0121804 45.6769 -0.13818 45.7969 0.19382C47.5069 4.97082 48.3919 10.2268 49.0569 15.2438Z" fill="white" fillOpacity="0.1"/>
<path d="M34.6997 127.909C34.8197 127.723 35.1587 127.842 35.0727 128.069C33.7887 131.515 32.1787 135.394 30.1097 138.435C29.8637 138.794 29.2177 138.575 29.3777 138.122C30.5677 134.635 32.7097 131.003 34.6997 127.909Z" fill="white" fillOpacity="0.1"/>
<path d="M28.6917 26.9798C28.7577 27.1458 28.5116 27.2258 28.4186 27.0998C27.0746 25.1438 25.7177 22.9678 24.8527 20.7528C24.7467 20.4668 25.1586 20.3538 25.3116 20.5598C26.7026 22.4828 27.7867 24.8048 28.6917 26.9798Z" fill="white" fillOpacity="0.1"/>
<path d="M17.1685 110.185C17.4145 110.092 17.5145 110.451 17.3345 110.584C16.6225 111.096 15.8645 111.535 15.1055 111.968C14.4205 112.354 13.7415 112.853 12.9835 113.052C12.6905 113.132 12.4445 112.746 12.6775 112.533C13.2965 111.967 14.1415 111.648 14.8795 111.262C15.6245 110.87 16.3835 110.498 17.1685 110.185Z" fill="white" fillOpacity="0.1"/>
<path d="M12.997 46.4266C13.243 46.5866 13.024 46.9586 12.764 46.8196C8.007 44.3516 3.14402 41.6566 -1.14798 38.4236C-1.40698 38.2236 -1.18799 37.8116 -0.881991 37.9716C3.87601 40.4856 8.46601 43.5196 12.997 46.4266Z" fill="white" fillOpacity="0.1"/>
<path d="M6.27679 67.4648C6.56979 67.5178 6.50279 68.0168 6.20379 67.9908C3.97479 67.7908 1.6398 68.0778 -0.5622 67.7518C-0.8022 67.7118 -0.7622 67.3588 -0.5622 67.2998C1.5338 66.6398 4.15479 67.0588 6.27679 67.4648Z" fill="white" fillOpacity="0.1"/>
<path d="M5.73777 88.9678C6.07077 88.9218 6.2298 89.4138 5.8838 89.4938C1.0208 90.5578 -3.81021 91.9288 -8.68621 92.8798C-9.01221 92.9458 -9.12523 92.5068 -8.82623 92.3878C-4.22123 90.6108 0.861771 89.6598 5.73777 88.9678Z" fill="white" fillOpacity="0.1"/>
<path d="M65.7656 112.111C66.3656 111.632 67.0696 112.581 66.5936 113.111C64.9786 114.916 63.0336 116.392 60.8816 117.325C60.7746 117.586 60.4386 117.77 60.1606 117.619L60.1566 117.618C58.2406 118.323 56.1746 118.604 54.0266 118.312C49.6886 117.72 44.0506 114.387 42.3256 110.177C42.0406 109.476 42.9516 109.115 43.4326 109.474C45.0606 110.685 46.2376 112.479 47.8776 113.736C49.4956 114.975 51.3646 115.915 53.3536 116.369C51.7096 113.455 51.9776 109.29 55.4746 107.826C59.1896 106.275 63.1346 109.674 64.8336 112.833C65.1466 112.595 65.4606 112.354 65.7656 112.111ZM59.8626 115.79C61.2346 115.239 62.5406 114.471 63.7816 113.604C62.5856 111.16 59.7856 108.463 56.8536 108.803C52.7486 109.282 53.4276 113.959 54.7056 116.589C56.0766 116.723 57.3846 116.57 58.6396 116.207C57.7156 114.909 57.2156 113.136 57.4026 111.764C57.4416 111.456 57.9106 111.457 57.9886 111.738C58.2696 112.732 58.4916 113.714 59.0016 114.624C59.2446 115.062 59.5476 115.434 59.8626 115.79Z" fill="white" fillOpacity="0.1"/>
<path d="M43.9067 84.4436C46.5527 85.0406 47.8828 89.1276 46.8818 93.5656C45.8788 98.0086 42.9228 101.123 40.2778 100.526C37.6328 99.9286 36.3007 95.8466 37.3027 91.4036C38.3047 86.9646 41.2617 83.8456 43.9067 84.4436ZM45.0548 88.6596C45.2628 87.7406 44.6877 86.8246 43.7677 86.6166C42.8437 86.4086 41.9318 86.9886 41.7238 87.9076C41.5158 88.8276 42.0918 89.7436 43.0148 89.9516C43.9348 90.1596 44.8478 89.5786 45.0548 88.6596Z" fill="white" fillOpacity="0.1"/>
<path d="M34.4687 99.9225C36.7087 100.877 38.7587 103.531 36.5547 105.665C35.3807 106.801 33.7487 106.907 32.2197 106.694C30.4567 106.45 28.1977 106.046 26.7447 104.931C25.4317 103.919 25.1067 101.913 26.4227 100.304C28.4207 97.8195 32.5767 99.1225 34.4687 99.9225ZM35.7467 104.81C38.5857 101.59 29.1447 97.9825 26.8087 101.326C25.1437 104.556 33.7297 107.091 35.7467 104.81Z" fill="white" fillOpacity="0.1"/>
<path d="M78.1537 100.624C77.1507 105.067 74.1947 108.181 71.5497 107.584C68.9047 106.987 67.5727 102.905 68.5747 98.4616C69.5767 94.0236 72.5337 90.9046 75.1787 91.5016C77.8247 92.0986 79.1557 96.1846 78.1537 100.624ZM73.6187 96.8586C74.5427 97.0666 75.4547 96.4866 75.6627 95.5676C75.8707 94.6486 75.2947 93.7316 74.3717 93.5236C73.4527 93.3156 72.5397 93.8966 72.3317 94.8156C72.1237 95.7356 72.6987 96.6516 73.6187 96.8586Z" fill="white" fillOpacity="0.1"/>
<path d="M84.1546 113.333C84.6516 115.351 83.4975 117.023 81.8765 117.374C80.0865 117.756 77.8725 117.151 76.1755 116.614C74.7035 116.15 73.2755 115.353 72.7035 113.823C71.6305 110.95 74.6215 109.433 77.0535 109.534C79.1065 109.624 83.4176 110.233 84.1546 113.333ZM83.3685 114.092C82.6945 110.07 72.6195 109.272 73.8005 113.399C74.6425 116.325 83.4845 117.724 83.3685 114.092Z" fill="white" fillOpacity="0.1"/>
</svg>
