<svg
						width="1200"
						height="283"
						viewBox="0 0 1200 283"
						fill="none"
						xmlns="http://www.w3.org/2000/svg"
					>
						<mask id="path-1-inside-1_629_12614" fill="white">
							<path d="M1200 58.2598C1200 47.2141 1191.05 38.2598 1180 38.2598H898.963C888.49 38.2598 880 29.7698 880 19.2969C880 8.82397 871.51 0.333984 861.037 0.333984H631.352C624.37 0.333984 618.71 5.99405 618.71 12.9761C618.71 19.9581 613.05 25.6182 606.068 25.6182H327.713C323.097 25.6182 319.355 29.3601 319.355 33.9761C319.355 38.592 315.613 42.334 310.998 42.334H20C8.9543 42.334 0 51.2883 0 62.334V262.664C0 273.71 8.95431 282.664 20 282.664H1180C1191.05 282.664 1200 273.71 1200 262.664V58.2598Z" />
						</mask>
						<path
							d="M1200 58.2598C1200 47.2141 1191.05 38.2598 1180 38.2598H898.963C888.49 38.2598 880 29.7698 880 19.2969C880 8.82397 871.51 0.333984 861.037 0.333984H631.352C624.37 0.333984 618.71 5.99405 618.71 12.9761C618.71 19.9581 613.05 25.6182 606.068 25.6182H327.713C323.097 25.6182 319.355 29.3601 319.355 33.9761C319.355 38.592 315.613 42.334 310.998 42.334H20C8.9543 42.334 0 51.2883 0 62.334V262.664C0 273.71 8.95431 282.664 20 282.664H1180C1191.05 282.664 1200 273.71 1200 262.664V58.2598Z"
							fill="#436EFF"
							fill-opacity="0.27"
						/>
						<path
							d="M1180 38.2598V41.2598H898.963V38.2598V35.2598H1180V38.2598ZM861.037 0.333984V3.33398H631.352V0.333984V-2.66602H861.037V0.333984ZM606.068 25.6182V28.6182H327.713V25.6182V22.6182H606.068V25.6182ZM310.998 42.334V45.334H20V42.334V39.334H310.998V42.334ZM0 62.334H3V262.664H0H-3V62.334H0ZM20 282.664V279.664H1180V282.664V285.664H20V282.664ZM1200 262.664H1197V58.2598H1200H1203V262.664H1200ZM1180 282.664V279.664C1189.39 279.664 1197 272.053 1197 262.664H1200H1203C1203 275.367 1192.7 285.664 1180 285.664V282.664ZM0 262.664H3C3 272.053 10.6112 279.664 20 279.664V282.664V285.664C7.29745 285.664 -3 275.367 -3 262.664H0ZM20 42.334V45.334C10.6112 45.334 3 52.9451 3 62.334H0H-3C-3 49.6314 7.29745 39.334 20 39.334V42.334ZM319.355 33.9761H322.355C322.355 40.2489 317.27 45.334 310.998 45.334V42.334V39.334C313.957 39.334 316.355 36.9352 316.355 33.9761H319.355ZM327.713 25.6182V28.6182C324.754 28.6182 322.355 31.017 322.355 33.9761H319.355H316.355C316.355 27.7033 321.441 22.6182 327.713 22.6182V25.6182ZM618.71 12.9761H621.71C621.71 21.615 614.707 28.6182 606.068 28.6182V25.6182V22.6182C611.393 22.6182 615.71 18.3012 615.71 12.9761H618.71ZM631.352 0.333984V3.33398C626.027 3.33398 621.71 7.65091 621.71 12.9761H618.71H615.71C615.71 4.33719 622.713 -2.66602 631.352 -2.66602V0.333984ZM880 19.2969H877C877 10.4808 869.853 3.33398 861.037 3.33398V0.333984V-2.66602C873.167 -2.66602 883 7.16711 883 19.2969H880ZM898.963 38.2598V41.2598C886.833 41.2598 877 31.4267 877 19.2969H880H883C883 28.1129 890.147 35.2598 898.963 35.2598V38.2598ZM1180 38.2598V35.2598C1192.7 35.2598 1203 45.5572 1203 58.2598H1200H1197C1197 48.8709 1189.39 41.2598 1180 41.2598V38.2598Z"
							fill="url(#paint0_linear_629_12614)"
							fill-opacity="0.85"
							mask="url(#path-1-inside-1_629_12614)"
						/>
						<defs>
							<linearGradient
								id="paint0_linear_629_12614"
								x1="600"
								y1="282.664"
								x2="600"
								y2="0.334076"
								gradientUnits="userSpaceOnUse"
							>
								<stop stop-color="#33CEFF" />
								<stop offset="0.562842" stop-color="#D633FF" stop-opacity="0" />
							</linearGradient>
						</defs>
					</svg>