<svg width="1200" height="283" viewBox="0 0 1200 283" fill="none" xmlns="http://www.w3.org/2000/svg">
<path d="M1200 257.198C1200 268.244 1191.05 277.198 1180 277.198H906.853C896.441 277.198 888 268.758 888 258.346C888 247.934 879.559 239.493 869.147 239.493H620.696C613.96 239.493 608.5 244.954 608.5 251.689C608.5 258.425 603.04 263.886 596.304 263.886H320.224C315.13 263.886 311 268.016 311 273.11C311 278.204 306.87 282.334 301.776 282.334H20C8.95431 282.334 0 273.38 0 262.334V20C0 8.95431 8.95431 0 20 0H1180C1191.05 0 1200 8.9543 1200 20V257.198Z" fill="white"/>
</svg>
