<svg width="1200" height="283" viewBox="0 0 1200 283" fill="none" xmlns="http://www.w3.org/2000/svg">
<path d="M1200 58.2598C1200 47.2141 1191.05 38.2598 1180 38.2598H898.963C888.49 38.2598 880 29.7698 880 19.2969C880 8.82397 871.51 0.333984 861.037 0.333984H631.352C624.37 0.333984 618.71 5.99405 618.71 12.9761C618.71 19.9581 613.05 25.6182 606.068 25.6182H327.713C323.097 25.6182 319.355 29.3601 319.355 33.9761C319.355 38.592 315.613 42.334 310.998 42.334H20C8.9543 42.334 0 51.2883 0 62.334V262.664C0 273.71 8.95431 282.664 20 282.664H1180C1191.05 282.664 1200 273.71 1200 262.664V58.2598Z" fill="white"/>
</svg>
