<svg
						height="283"
						viewBox="0 0 1200 283"
						fill="none"
						xmlns="http://www.w3.org/2000/svg"
					>
						<mask id="path-1-inside-1_629_12608" fill="white">
							<path d="M1200 257.198C1200 268.244 1191.05 277.198 1180 277.198H920C908.954 277.198 900 268.244 900 257.198V251.493C900 240.447 891.046 231.493 880 231.493H615.196C606.804 231.493 600 238.297 600 246.689C600 255.082 593.196 261.886 584.804 261.886H310.224C304.577 261.886 300 266.463 300 272.11C300 277.757 295.423 282.334 289.776 282.334H20C8.9543 282.334 0 273.38 0 262.334V20C0 8.95431 8.95431 0 20 0H1180C1191.05 0 1200 8.9543 1200 20V257.198Z" />
						</mask>
						<path
							d="M1200 257.198C1200 268.244 1191.05 277.198 1180 277.198H920C908.954 277.198 900 268.244 900 257.198V251.493C900 240.447 891.046 231.493 880 231.493H615.196C606.804 231.493 600 238.297 600 246.689C600 255.082 593.196 261.886 584.804 261.886H310.224C304.577 261.886 300 266.463 300 272.11C300 277.757 295.423 282.334 289.776 282.334H20C8.9543 282.334 0 273.38 0 262.334V20C0 8.95431 8.95431 0 20 0H1180C1191.05 0 1200 8.9543 1200 20V257.198Z"
							fill="#436EFF"
							fillOpacity="0.27"
						/>
						<path
							d="M1180 277.198V274.198H920V277.198V280.198H1180V277.198ZM900 257.198H903V251.493H900H897V257.198H900ZM880 231.493V228.493H615.196V231.493V234.493H880V231.493ZM584.804 261.886V258.886H310.224V261.886V264.886H584.804V261.886ZM289.776 282.334V279.334H20V282.334V285.334H289.776V282.334ZM0 262.334H3V20H0H-3V262.334H0ZM20 0V3H1180V0V-3H20V0ZM1200 20H1197V257.198H1200H1203V20H1200ZM1180 0V3C1189.39 3 1197 10.6112 1197 20H1200H1203C1203 7.29745 1192.7 -3 1180 -3V0ZM0 20H3C3 10.6112 10.6112 3 20 3V0V-3C7.29745 -3 -3 7.29745 -3 20H0ZM20 282.334V279.334C10.6112 279.334 3 271.723 3 262.334H0H-3C-3 275.037 7.29745 285.334 20 285.334V282.334ZM300 272.11H297C297 276.1 293.766 279.334 289.776 279.334V282.334V285.334C297.079 285.334 303 279.413 303 272.11H300ZM310.224 261.886V258.886C302.921 258.886 297 264.806 297 272.11H300H303C303 268.12 306.234 264.886 310.224 264.886V261.886ZM600 246.689H597C597 253.425 591.54 258.886 584.804 258.886V261.886V264.886C594.853 264.886 603 256.739 603 246.689H600ZM615.196 231.493V228.493C605.147 228.493 597 236.64 597 246.689H600H603C603 239.954 608.46 234.493 615.196 234.493V231.493ZM900 251.493H903C903 238.791 892.703 228.493 880 228.493V231.493V234.493C889.389 234.493 897 242.104 897 251.493H900ZM920 277.198V274.198C910.611 274.198 903 266.587 903 257.198H900H897C897 269.901 907.297 280.198 920 280.198V277.198ZM1180 277.198V280.198C1192.7 280.198 1203 269.901 1203 257.198H1200H1197C1197 266.587 1189.39 274.198 1180 274.198V277.198Z"
							fill="url(#paint0_linear_629_12608)"
							fillOpacity="0.85"
							mask="url(#path-1-inside-1_629_12608)"
						/>
						<defs>
							<linearGradient
								id="paint0_linear_629_12608"
								x1="600"
								y1="0"
								x2="600"
								y2="282.334"
								gradientUnits="userSpaceOnUse"
							>
								<stop stopColor="#33CEFF" />
								<stop offset="0.562842" stopColor="#D633FF" stop-opacity="0" />
							</linearGradient>
						</defs>
					</svg>